<?xml version="1.0" encoding="UTF-8"?>
<!--Generator: Apple Native CoreSVG 175-->
<!DOCTYPE svg
PUBLIC "-//W3C//DTD SVG 1.1//EN"
       "http://www.w3.org/Graphics/SVG/1.1/DTD/svg11.dtd">
<svg version="1.1" xmlns="http://www.w3.org/2000/svg" xmlns:xlink="http://www.w3.org/1999/xlink" width="3300" height="2200">
 <!--glyph: "uni100373.medium", point size: 100.0, font version: "17.3d3e1", template writer version: "65.1"-->
 <g id="Notes">
  <rect height="2200" id="artboard" style="fill:white;opacity:1" width="3300" x="0" y="0"/>
  <line style="fill:none;stroke:black;opacity:1;stroke-width:0.5;" x1="263" x2="3036" y1="292" y2="292"/>
  <text style="stroke:none;fill:black;font-family:sans-serif;font-size:13;font-weight:bold;" transform="matrix(1 0 0 1 263 322)">Weight/Scale Variations</text>
  <text style="stroke:none;fill:black;font-family:sans-serif;font-size:13;text-anchor:middle;" transform="matrix(1 0 0 1 559.711 322)">Ultralight</text>
  <text style="stroke:none;fill:black;font-family:sans-serif;font-size:13;text-anchor:middle;" transform="matrix(1 0 0 1 856.422 322)">Thin</text>
  <text style="stroke:none;fill:black;font-family:sans-serif;font-size:13;text-anchor:middle;" transform="matrix(1 0 0 1 1153.13 322)">Light</text>
  <text style="stroke:none;fill:black;font-family:sans-serif;font-size:13;text-anchor:middle;" transform="matrix(1 0 0 1 1449.84 322)">Regular</text>
  <text style="stroke:none;fill:black;font-family:sans-serif;font-size:13;text-anchor:middle;" transform="matrix(1 0 0 1 1746.56 322)">Medium</text>
  <text style="stroke:none;fill:black;font-family:sans-serif;font-size:13;text-anchor:middle;" transform="matrix(1 0 0 1 2043.27 322)">Semibold</text>
  <text style="stroke:none;fill:black;font-family:sans-serif;font-size:13;text-anchor:middle;" transform="matrix(1 0 0 1 2339.98 322)">Bold</text>
  <text style="stroke:none;fill:black;font-family:sans-serif;font-size:13;text-anchor:middle;" transform="matrix(1 0 0 1 2636.69 322)">Heavy</text>
  <text style="stroke:none;fill:black;font-family:sans-serif;font-size:13;text-anchor:middle;" transform="matrix(1 0 0 1 2933.4 322)">Black</text>
  <line style="fill:none;stroke:black;opacity:1;stroke-width:0.5;" x1="263" x2="3036" y1="1903" y2="1903"/>
  <g transform="matrix(1 0 0 1 263 1933)">
   <path d="M9.24805 0.830078Q10.8691 0.830078 12.2949 0.214844Q13.7207-0.400391 14.8096-1.49414Q15.8984-2.58789 16.5186-4.01367Q17.1387-5.43945 17.1387-7.05078Q17.1387-8.66211 16.5186-10.0879Q15.8984-11.5137 14.8047-12.6074Q13.7109-13.7012 12.2852-14.3164Q10.8594-14.9316 9.23828-14.9316Q7.62695-14.9316 6.20117-14.3164Q4.77539-13.7012 3.69141-12.6074Q2.60742-11.5137 1.9873-10.0879Q1.36719-8.66211 1.36719-7.05078Q1.36719-5.43945 1.9873-4.01367Q2.60742-2.58789 3.69629-1.49414Q4.78516-0.400391 6.21094 0.214844Q7.63672 0.830078 9.24805 0.830078ZM9.24805-0.654297Q7.91992-0.654297 6.7627-1.14746Q5.60547-1.64062 4.73145-2.51953Q3.85742-3.39844 3.36426-4.56055Q2.87109-5.72266 2.87109-7.05078Q2.87109-8.37891 3.35938-9.54102Q3.84766-10.7031 4.72168-11.582Q5.5957-12.4609 6.75293-12.9541Q7.91016-13.4473 9.23828-13.4473Q10.5762-13.4473 11.7334-12.9541Q12.8906-12.4609 13.7695-11.582Q14.6484-10.7031 15.1465-9.54102Q15.6445-8.37891 15.6445-7.05078Q15.6445-5.72266 15.1514-4.56055Q14.6582-3.39844 13.7842-2.51953Q12.9102-1.64062 11.748-1.14746Q10.5859-0.654297 9.24805-0.654297ZM5.6543-7.05078Q5.6543-6.72852 5.85938-6.52832Q6.06445-6.32812 6.40625-6.32812L8.51562-6.32812L8.51562-4.20898Q8.51562-3.88672 8.71094-3.67676Q8.90625-3.4668 9.23828-3.4668Q9.56055-3.4668 9.77051-3.67676Q9.98047-3.88672 9.98047-4.20898L9.98047-6.32812L12.0898-6.32812Q12.4219-6.32812 12.627-6.52832Q12.832-6.72852 12.832-7.05078Q12.832-7.38281 12.627-7.58789Q12.4219-7.79297 12.0898-7.79297L9.98047-7.79297L9.98047-9.90234Q9.98047-10.2344 9.77051-10.4443Q9.56055-10.6543 9.23828-10.6543Q8.90625-10.6543 8.71094-10.4443Q8.51562-10.2344 8.51562-9.90234L8.51562-7.79297L6.40625-7.79297Q6.06445-7.79297 5.85938-7.58789Q5.6543-7.38281 5.6543-7.05078Z"/>
  </g>
  <g transform="matrix(1 0 0 1 281.867 1933)">
   <path d="M11.709 2.91016Q13.75 2.91016 15.5518 2.12891Q17.3535 1.34766 18.7305-0.0292969Q20.1074-1.40625 20.8887-3.20801Q21.6699-5.00977 21.6699-7.05078Q21.6699-9.0918 20.8887-10.8936Q20.1074-12.6953 18.7305-14.0723Q17.3535-15.4492 15.5469-16.2305Q13.7402-17.0117 11.6992-17.0117Q9.6582-17.0117 7.85645-16.2305Q6.05469-15.4492 4.68262-14.0723Q3.31055-12.6953 2.5293-10.8936Q1.74805-9.0918 1.74805-7.05078Q1.74805-5.00977 2.5293-3.20801Q3.31055-1.40625 4.6875-0.0292969Q6.06445 1.34766 7.86621 2.12891Q9.66797 2.91016 11.709 2.91016ZM11.709 1.25Q9.98047 1.25 8.47656 0.605469Q6.97266-0.0390625 5.83496-1.17676Q4.69727-2.31445 4.05762-3.81836Q3.41797-5.32227 3.41797-7.05078Q3.41797-8.7793 4.05762-10.2832Q4.69727-11.7871 5.83008-12.9297Q6.96289-14.0723 8.4668-14.7119Q9.9707-15.3516 11.6992-15.3516Q13.4277-15.3516 14.9316-14.7119Q16.4355-14.0723 17.5781-12.9297Q18.7207-11.7871 19.3652-10.2832Q20.0098-8.7793 20.0098-7.05078Q20.0098-5.32227 19.3701-3.81836Q18.7305-2.31445 17.5928-1.17676Q16.4551-0.0390625 14.9463 0.605469Q13.4375 1.25 11.709 1.25ZM7.17773-7.05078Q7.17773-6.69922 7.41211-6.47461Q7.64648-6.25 8.01758-6.25L10.8887-6.25L10.8887-3.36914Q10.8887-2.99805 11.1133-2.76855Q11.3379-2.53906 11.6895-2.53906Q12.0605-2.53906 12.29-2.76855Q12.5195-2.99805 12.5195-3.36914L12.5195-6.25L15.4004-6.25Q15.7715-6.25 16.001-6.47461Q16.2305-6.69922 16.2305-7.05078Q16.2305-7.42188 16.001-7.65137Q15.7715-7.88086 15.4004-7.88086L12.5195-7.88086L12.5195-10.752Q12.5195-11.1328 12.29-11.3623Q12.0605-11.5918 11.6895-11.5918Q11.3379-11.5918 11.1133-11.3574Q10.8887-11.123 10.8887-10.752L10.8887-7.88086L8.01758-7.88086Q7.63672-7.88086 7.40723-7.65137Q7.17773-7.42188 7.17773-7.05078Z"/>
  </g>
  <g transform="matrix(1 0 0 1 305.646 1933)">
   <path d="M14.9707 5.66406Q17.0605 5.66406 18.96 5.01465Q20.8594 4.36523 22.4512 3.19336Q24.043 2.02148 25.2197 0.429688Q26.3965-1.16211 27.0459-3.06641Q27.6953-4.9707 27.6953-7.05078Q27.6953-9.14062 27.0459-11.04Q26.3965-12.9395 25.2197-14.5312Q24.043-16.123 22.4512-17.2998Q20.8594-18.4766 18.9551-19.126Q17.0508-19.7754 14.9609-19.7754Q12.8711-19.7754 10.9717-19.126Q9.07227-18.4766 7.48535-17.2998Q5.89844-16.123 4.72168-14.5312Q3.54492-12.9395 2.90039-11.04Q2.25586-9.14062 2.25586-7.05078Q2.25586-4.9707 2.90527-3.06641Q3.55469-1.16211 4.72656 0.429688Q5.89844 2.02148 7.49023 3.19336Q9.08203 4.36523 10.9814 5.01465Q12.8809 5.66406 14.9707 5.66406ZM14.9707 3.84766Q13.1641 3.84766 11.5283 3.2959Q9.89258 2.74414 8.53516 1.74805Q7.17773 0.751953 6.17676-0.610352Q5.17578-1.97266 4.62891-3.6084Q4.08203-5.24414 4.08203-7.05078Q4.08203-8.86719 4.62891-10.5029Q5.17578-12.1387 6.17188-13.501Q7.16797-14.8633 8.52539-15.8594Q9.88281-16.8555 11.5186-17.4023Q13.1543-17.9492 14.9609-17.9492Q16.7773-17.9492 18.4131-17.4023Q20.0488-16.8555 21.4111-15.8594Q22.7734-14.8633 23.7695-13.501Q24.7656-12.1387 25.3174-10.5029Q25.8691-8.86719 25.8691-7.05078Q25.8789-5.24414 25.332-3.6084Q24.7852-1.97266 23.7842-0.610352Q22.7832 0.751953 21.4209 1.74805Q20.0586 2.74414 18.4229 3.2959Q16.7871 3.84766 14.9707 3.84766ZM9.19922-7.05078Q9.19922-6.66992 9.45801-6.4209Q9.7168-6.17188 10.1172-6.17188L14.0625-6.17188L14.0625-2.2168Q14.0625-1.81641 14.3115-1.55762Q14.5605-1.29883 14.9512-1.29883Q15.3516-1.29883 15.6104-1.55273Q15.8691-1.80664 15.8691-2.2168L15.8691-6.17188L19.8242-6.17188Q20.2246-6.17188 20.4785-6.4209Q20.7324-6.66992 20.7324-7.05078Q20.7324-7.46094 20.4785-7.71484Q20.2246-7.96875 19.8242-7.96875L15.8691-7.96875L15.8691-11.9141Q15.8691-12.3242 15.6104-12.583Q15.3516-12.8418 14.9512-12.8418Q14.5605-12.8418 14.3115-12.583Q14.0625-12.3242 14.0625-11.9141L14.0625-7.96875L10.1172-7.96875Q9.70703-7.96875 9.45312-7.71484Q9.19922-7.46094 9.19922-7.05078Z"/>
  </g>
  <text style="stroke:none;fill:black;font-family:sans-serif;font-size:13;font-weight:bold;" transform="matrix(1 0 0 1 263 1953)">Design Variations</text>
  <text style="stroke:none;fill:black;font-family:sans-serif;font-size:13;" transform="matrix(1 0 0 1 263 1971)">Symbols are supported in up to nine weights and three scales.</text>
  <text style="stroke:none;fill:black;font-family:sans-serif;font-size:13;" transform="matrix(1 0 0 1 263 1989)">For optimal layout with text and other symbols, vertically align</text>
  <text style="stroke:none;fill:black;font-family:sans-serif;font-size:13;" transform="matrix(1 0 0 1 263 2007)">symbols with the adjacent text.</text>
  <line style="fill:none;stroke:#00AEEF;stroke-width:0.5;opacity:1.0;" x1="776" x2="776" y1="1919" y2="1933"/>
  <g transform="matrix(1 0 0 1 776 1933)">
   <path d="M3.31055 0.15625Q3.70117 0.15625 3.91602-0.00976562Q4.13086-0.175781 4.26758-0.585938L5.52734-4.0332L11.2891-4.0332L12.5488-0.585938Q12.6855-0.175781 12.9004-0.00976562Q13.1152 0.15625 13.4961 0.15625Q13.8867 0.15625 14.1162-0.0585938Q14.3457-0.273438 14.3457-0.644531Q14.3457-0.869141 14.2383-1.17188L9.6582-13.3691Q9.48242-13.8184 9.17969-14.043Q8.87695-14.2676 8.4082-14.2676Q7.5-14.2676 7.17773-13.3789L2.59766-1.16211Q2.49023-0.859375 2.49023-0.634766Q2.49023-0.263672 2.70996-0.0537109Q2.92969 0.15625 3.31055 0.15625ZM6.00586-5.51758L8.37891-12.0898L8.42773-12.0898L10.8008-5.51758Z"/>
  </g>
  <line style="fill:none;stroke:#00AEEF;stroke-width:0.5;opacity:1.0;" x1="793.197" x2="793.197" y1="1919" y2="1933"/>
  <text style="stroke:none;fill:black;font-family:sans-serif;font-size:13;font-weight:bold;" transform="matrix(1 0 0 1 776 1953)">Margins</text>
  <text style="stroke:none;fill:black;font-family:sans-serif;font-size:13;" transform="matrix(1 0 0 1 776 1971)">Leading and trailing margins on the left and right side of each symbol</text>
  <text style="stroke:none;fill:black;font-family:sans-serif;font-size:13;" transform="matrix(1 0 0 1 776 1989)">can be adjusted by modifying the x-location of the margin guidelines.</text>
  <text style="stroke:none;fill:black;font-family:sans-serif;font-size:13;" transform="matrix(1 0 0 1 776 2007)">Modifications are automatically applied proportionally to all</text>
  <text style="stroke:none;fill:black;font-family:sans-serif;font-size:13;" transform="matrix(1 0 0 1 776 2025)">scales and weights.</text>
  <g transform="matrix(1 0 0 1 1289 1933)">
   <path d="M2.8418 1.86523L4.54102 3.57422Q5.18555 4.22852 5.90332 4.17969Q6.62109 4.13086 7.31445 3.35938L18.0078-8.42773L17.041-9.4043L6.42578 2.27539Q6.16211 2.57812 5.89355 2.61719Q5.625 2.65625 5.27344 2.30469L4.10156 1.14258Q3.75 0.791016 3.79395 0.522461Q3.83789 0.253906 4.14062-0.0195312L15.6152-10.8203L14.6387-11.7871L3.04688-0.898438Q2.30469-0.214844 2.25098 0.498047Q2.19727 1.21094 2.8418 1.86523ZM9.25781-16.3281Q8.94531-16.0254 8.90625-15.6348Q8.86719-15.2441 9.04297-14.9512Q9.21875-14.6777 9.55566-14.541Q9.89258-14.4043 10.3809-14.5215Q11.4746-14.7754 12.5977-14.7314Q13.7207-14.6875 14.7949-13.9844L14.209-12.5293Q13.9551-11.9043 14.0674-11.4404Q14.1797-10.9766 14.5801-10.5664L16.875-8.25195Q17.2363-7.88086 17.5781-7.82227Q17.9199-7.76367 18.3398-7.8418L19.4043-8.03711L20.0684-7.36328L20.0293-6.80664Q20-6.43555 20.1221-6.12305Q20.2441-5.81055 20.6055-5.44922L21.3672-4.70703Q21.7285-4.3457 22.1533-4.33105Q22.5781-4.31641 22.9297-4.66797L25.8398-7.58789Q26.1914-7.93945 26.1816-8.35449Q26.1719-8.76953 25.8105-9.13086L25.0391-9.89258Q24.6875-10.2539 24.3799-10.3857Q24.0723-10.5176 23.7109-10.4883L23.1348-10.4395L22.4902-11.0742L22.7344-12.1973Q22.832-12.6172 22.6953-12.9834Q22.5586-13.3496 22.1191-13.7891L19.9219-15.9766Q18.6719-17.2168 17.2607-17.8369Q15.8496-18.457 14.4189-18.4814Q12.9883-18.5059 11.665-17.959Q10.3418-17.4121 9.25781-16.3281ZM10.752-15.957Q11.6602-16.6211 12.7002-16.9043Q13.7402-17.1875 14.8047-17.085Q15.8691-16.9824 16.8701-16.5137Q17.8711-16.0449 18.7012-15.2051L21.1328-12.793Q21.3086-12.6172 21.3525-12.4512Q21.3965-12.2852 21.3379-12.0312L21.0156-10.5469L22.5195-9.0625L23.5059-9.12109Q23.6914-9.13086 23.7891-9.09668Q23.8867-9.0625 24.0332-8.91602L24.6094-8.33984L22.168-5.89844L21.5918-6.47461Q21.4453-6.62109 21.4062-6.71875Q21.3672-6.81641 21.377-7.01172L21.4453-7.98828L19.9512-9.47266L18.4277-9.21875Q18.1836-9.16992 18.042-9.2041Q17.9004-9.23828 17.7148-9.41406L15.7129-11.416Q15.5176-11.5918 15.4932-11.7529Q15.4688-11.9141 15.5859-12.1875L16.4648-14.2773Q15.293-15.3711 13.8281-15.791Q12.3633-16.2109 10.8398-15.7617Q10.7227-15.7324 10.6885-15.8057Q10.6543-15.8789 10.752-15.957Z"/>
  </g>
  <text style="stroke:none;fill:black;font-family:sans-serif;font-size:13;font-weight:bold;" transform="matrix(1 0 0 1 1289 1953)">Exporting</text>
  <text style="stroke:none;fill:black;font-family:sans-serif;font-size:13;" transform="matrix(1 0 0 1 1289 1971)">Symbols should be outlined when exporting to ensure the</text>
  <text style="stroke:none;fill:black;font-family:sans-serif;font-size:13;" transform="matrix(1 0 0 1 1289 1989)">design is preserved when submitting to Xcode.</text>
  <text id="template-version" style="stroke:none;fill:black;font-family:sans-serif;font-size:13;text-anchor:end;" transform="matrix(1 0 0 1 3036 1933)">Template v.3.0</text>
  <text style="stroke:none;fill:black;font-family:sans-serif;font-size:13;text-anchor:end;" transform="matrix(1 0 0 1 3036 1951)">Requires Xcode 13 or greater</text>
  <text id="descriptive-name" style="stroke:none;fill:black;font-family:sans-serif;font-size:13;text-anchor:end;" transform="matrix(1 0 0 1 3036 1969)">Generated from crop</text>
  <text style="stroke:none;fill:black;font-family:sans-serif;font-size:13;text-anchor:end;" transform="matrix(1 0 0 1 3036 1987)">Typeset at 100 points</text>
  <text style="stroke:none;fill:black;font-family:sans-serif;font-size:13;" transform="matrix(1 0 0 1 263 726)">Small</text>
  <text style="stroke:none;fill:black;font-family:sans-serif;font-size:13;" transform="matrix(1 0 0 1 263 1156)">Medium</text>
  <text style="stroke:none;fill:black;font-family:sans-serif;font-size:13;" transform="matrix(1 0 0 1 263 1586)">Large</text>
 </g>
 <g id="Guides">
  <g id="H-reference" style="fill:#27AAE1;stroke:none;" transform="matrix(1 0 0 1 339 696)">
   <path d="M0.993347 0L3.6377 0L29.3282-67.1326L30.0301-67.1326L30.0301-70.459L28.1227-70.459ZM11.6882-24.4797L46.9818-24.4797L46.2311-26.7288L12.4382-26.7288ZM55.1193 0L57.7637 0L30.6381-70.459L29.4327-70.459L29.4327-67.1326Z"/>
  </g>
  <line id="Baseline-S" style="fill:none;stroke:#27AAE1;opacity:1;stroke-width:0.5;" x1="263" x2="3036" y1="696" y2="696"/>
  <line id="Capline-S" style="fill:none;stroke:#27AAE1;opacity:1;stroke-width:0.5;" x1="263" x2="3036" y1="625.541" y2="625.541"/>
  <g id="H-reference" style="fill:#27AAE1;stroke:none;" transform="matrix(1 0 0 1 339 1126)">
   <path d="M0.993347 0L3.6377 0L29.3282-67.1326L30.0301-67.1326L30.0301-70.459L28.1227-70.459ZM11.6882-24.4797L46.9818-24.4797L46.2311-26.7288L12.4382-26.7288ZM55.1193 0L57.7637 0L30.6381-70.459L29.4327-70.459L29.4327-67.1326Z"/>
  </g>
  <line id="Baseline-M" style="fill:none;stroke:#27AAE1;opacity:1;stroke-width:0.5;" x1="263" x2="3036" y1="1126" y2="1126"/>
  <line id="Capline-M" style="fill:none;stroke:#27AAE1;opacity:1;stroke-width:0.5;" x1="263" x2="3036" y1="1055.54" y2="1055.54"/>
  <g id="H-reference" style="fill:#27AAE1;stroke:none;" transform="matrix(1 0 0 1 339 1556)">
   <path d="M0.993347 0L3.6377 0L29.3282-67.1326L30.0301-67.1326L30.0301-70.459L28.1227-70.459ZM11.6882-24.4797L46.9818-24.4797L46.2311-26.7288L12.4382-26.7288ZM55.1193 0L57.7637 0L30.6381-70.459L29.4327-70.459L29.4327-67.1326Z"/>
  </g>
  <line id="Baseline-L" style="fill:none;stroke:#27AAE1;opacity:1;stroke-width:0.5;" x1="263" x2="3036" y1="1556" y2="1556"/>
  <line id="Capline-L" style="fill:none;stroke:#27AAE1;opacity:1;stroke-width:0.5;" x1="263" x2="3036" y1="1485.54" y2="1485.54"/>
  <line id="left-margin-Regular-M" style="fill:none;stroke:#00AEEF;stroke-width:0.5;opacity:1.0;" x1="1383.88" x2="1383.88" y1="1030.79" y2="1150.12"/>
  <line id="right-margin-Regular-M" style="fill:none;stroke:#00AEEF;stroke-width:0.5;opacity:1.0;" x1="1515.81" x2="1515.81" y1="1030.79" y2="1150.12"/>
 </g>
 <g id="Symbols">
  <g id="Black-L" transform="matrix(1 0 0 1 2845.12 1556)">
   <path d="M160.486 1.45279Q160.486-2.67011 157.513-5.55187Q154.541-8.43363 149.874-8.43363L64.9553-8.43363Q63.2696-8.43363 63.2696-10.1401L63.2696-96.0029Q63.2696-100.632 60.1612-103.432Q57.0528-106.232 53.0467-106.232Q48.9626-106.232 45.8341-103.432Q42.7057-100.632 42.7057-96.0029L42.7057 4.62521Q42.7057 7.62712 44.5618 9.48316Q46.4178 11.3392 49.4185 11.3392L149.874 11.3392Q154.541 11.3392 157.513 8.41724Q160.486 5.49526 160.486 1.45279ZM16.084-68.264Q16.084-64.2203 19.0566-61.2989Q22.0292-58.3776 26.6961-58.3776L111.614-58.3776Q113.321-58.3776 113.321-56.6919L113.321 29.1917Q113.321 33.8199 116.419 36.6199Q119.517 39.4199 123.543 39.4199Q127.666 39.4199 130.775 36.6199Q133.885 33.8199 133.885 29.1917L133.885-71.4584Q133.885-74.4967 132.048-76.334Q130.21-78.1712 127.172-78.1712L26.6961-78.1712Q22.0292-78.1712 19.0566-75.268Q16.084-72.3649 16.084-68.264Z"/>
  </g>
  <g id="Heavy-L" transform="matrix(1 0 0 1 2549.25 1556)">
   <path d="M158.801 1.18228Q158.801-2.46687 156.23-4.94193Q153.66-7.417 149.59-7.417L63.2616-7.417Q61.5604-7.417 61.5604-9.14818L61.5604-96.1705Q61.5604-100.226 58.8789-102.688Q56.1974-105.151 52.6375-105.151Q49.0084-105.151 46.3139-102.688Q43.6195-100.226 43.6195-96.1705L43.6195 3.5166Q43.6195 6.33257 45.344 8.05706Q47.0684 9.78155 49.8789 9.78155L149.59 9.78155Q153.66 9.78155 156.23 7.26627Q158.801 4.751 158.801 1.18228ZM16.084-67.9004Q16.084-64.326 18.6545-61.8135Q21.2251-59.3011 25.2949-59.3011L111.624-59.3011Q113.355-59.3011 113.355-57.6L113.355 29.4524Q113.355 33.5021 116.021 35.9646Q118.688 38.427 122.272 38.427Q125.921 38.427 128.609 35.9646Q131.296 33.5021 131.296 29.4524L131.296-70.2704Q131.296-73.0953 129.578-74.8126Q127.861-76.5299 125.036-76.5299L25.2949-76.5299Q21.2251-76.5299 18.6545-74.0218Q16.084-71.5137 16.084-67.9004Z"/>
  </g>
  <g id="Bold-L" transform="matrix(1 0 0 1 2253.66 1556)">
   <path d="M156.547 0.732436Q156.547-2.32519 154.461-4.31184Q152.375-6.29849 149.043-6.29849L61.1341-6.29849Q59.4397-6.29849 59.4397-8.0305L59.4397-96.3258Q59.4397-99.6666 57.2772-101.714Q55.1147-103.761 52.1155-103.761Q49.0623-103.761 46.8908-101.714Q44.7193-99.6666 44.7193-96.3258L44.7193 2.08912Q44.7193 4.65959 46.2712 6.21148Q47.823 7.76337 50.3804 7.76337L149.043 7.76337Q152.375 7.76337 154.461 5.7365Q156.547 3.70964 156.547 0.732436ZM16.084-67.3651Q16.084-64.3746 18.17-62.3544Q20.256-60.3342 23.5881-60.3342L111.497-60.3342Q113.229-60.3342 113.229-58.6401L113.229 29.6932Q113.229 33.0208 115.373 35.0682Q117.517 37.1156 120.541 37.1156Q123.598 37.1156 125.774 35.0682Q127.95 33.0208 127.95 29.6932L127.95-68.7728Q127.95-71.3215 126.394-72.8778Q124.837-74.4341 122.289-74.4341L23.5881-74.4341Q20.256-74.4341 18.17-72.4028Q16.084-70.3715 16.084-67.3651Z"/>
  </g>
  <g id="Semibold-L" transform="matrix(1 0 0 1 1957.73 1556)">
   <path d="M154.993 0.422319Q154.993-2.22751 153.241-3.87746Q151.489-5.52741 148.666-5.52741L59.6674-5.52741Q57.9777-5.52741 57.9777-7.25997L57.9777-96.4329Q57.9777-99.2811 56.173-101.042Q54.3683-102.804 51.7556-102.804Q49.0995-102.804 47.2885-101.042Q45.4775-99.2811 45.4775-96.4329L45.4775 1.10503Q45.4775 3.50624 46.9104 4.93914Q48.3433 6.37204 50.7262 6.37204L148.666 6.37204Q151.489 6.37204 153.241 4.68189Q154.993 2.99173 154.993 0.422319ZM16.084-66.9961Q16.084-64.4081 17.836-62.7272Q19.5879-61.0464 22.4115-61.0464L111.41-61.0464Q113.143-61.0464 113.143-59.357L113.143 29.8591Q113.143 32.689 114.926 34.4503Q116.709 36.2115 119.347 36.2115Q121.997 36.2115 123.82 34.4503Q125.643 32.689 125.643 29.8591L125.643-67.7404Q125.643-70.0986 124.198-71.544Q122.753-72.9894 120.394-72.9894L22.4115-72.9894Q19.5879-72.9894 17.836-71.2867Q16.084-69.5841 16.084-66.9961Z"/>
  </g>
  <g id="Medium-L" transform="matrix(1 0 0 1 1661.61 1556)">
   <path d="M153.815 0.187176Q153.815-2.15345 152.316-3.54809Q150.818-4.94273 148.38-4.94273L58.5553-4.94273Q56.8692-4.94273 56.8692-6.67573L56.8692-96.5141Q56.8692-98.9888 55.3358-100.533Q53.8024-102.077 51.4828-102.077Q49.1277-102.077 47.59-100.533Q46.0523-98.9888 46.0523-96.5141L46.0523 0.358847Q46.0523 2.63173 47.395 3.97441Q48.7377 5.31709 50.9883 5.31709L148.38 5.31709Q150.818 5.31709 152.316 3.88223Q153.815 2.44738 153.815 0.187176ZM16.084-66.7163Q16.084-64.4335 17.5827-63.0099Q19.0814-61.5864 21.5193-61.5864L111.344-61.5864Q113.077-61.5864 113.077-59.9007L113.077 29.985Q113.077 32.4374 114.587 33.9817Q116.097 35.526 118.442 35.526Q120.782 35.526 122.338 33.9817Q123.894 32.4374 123.894 29.985L123.894-66.9575Q123.894-69.1714 122.533-70.5326Q121.172-71.8939 118.958-71.8939L21.5193-71.8939Q19.0814-71.8939 17.5827-70.4405Q16.084-68.987 16.084-66.7163Z"/>
  </g>
  <g id="Regular-L" transform="matrix(1 0 0 1 1365.66 1556)">
   <path d="M152.278-0.119532Q152.278-2.05684 151.11-3.11848Q149.942-4.18012 148.007-4.18012L57.1047-4.18012Q55.4232-4.18012 55.4232-5.91368L55.4232-96.62Q55.4232-98.6076 54.2437-99.8689Q53.0642-101.13 51.1269-101.13Q49.1645-101.13 47.9833-99.8689Q46.8022-98.6076 46.8022-96.62L46.8022-0.614434Q46.8022 1.49105 48.0272 2.71605Q49.2522 3.94105 51.3303 3.94105L148.007 3.94105Q149.942 3.94105 151.11 2.83921Q152.278 1.73736 152.278-0.119532ZM16.084-66.3514Q16.084-64.4666 17.2523-63.3787Q18.4206-62.2908 20.3557-62.2908L111.258-62.2908Q112.992-62.2908 112.992-60.6098L112.992 30.1491Q112.992 32.1092 114.145 33.3706Q115.299 34.6319 117.261 34.6319Q119.198 34.6319 120.406 33.3706Q121.613 32.1092 121.613 30.1491L121.613-65.9364Q121.613-67.962 120.362-69.2135Q119.11-70.465 117.085-70.465L20.3557-70.465Q18.4206-70.465 17.2523-69.3366Q16.084-68.2083 16.084-66.3514Z"/>
  </g>
  <g id="Light-L" transform="matrix(1 0 0 1 1070.27 1556)">
   <path d="M149.644-1.16936Q149.644-2.66769 148.724-3.49076Q147.804-4.31383 146.365-4.31383L55.4443-4.31383Q53.9344-4.31383 53.9344-5.85628L53.9344-96.3911Q53.9344-97.8633 53.0509-98.8574Q52.1673-99.8514 50.669-99.8514Q49.1837-99.8514 48.2697-98.8574Q47.3557-97.8633 47.3557-96.3911L47.3557-1.95029Q47.3557-0.112226 48.3993 0.931444Q49.443 1.97511 51.2347 1.97511L146.365 1.97511Q147.804 1.97511 148.724 1.11183Q149.644 0.248554 149.644-1.16936ZM16.084-65.4353Q16.084-63.9702 17.0041-63.1305Q17.9243-62.2908 19.3632-62.2908L110.285-62.2908Q111.827-62.2908 111.827-60.7816L111.827 29.7864Q111.827 31.2124 112.695 32.2064Q113.562 33.2005 115.047 33.2005Q116.546 33.2005 117.476 32.2064Q118.407 31.2124 118.407 29.7864L118.407-64.734Q118.407-66.4924 117.346-67.5531Q116.285-68.6138 114.527-68.6138L19.3632-68.6138Q17.9243-68.6138 17.0041-67.7335Q16.084-66.8532 16.084-65.4353Z"/>
  </g>
  <g id="Thin-L" transform="matrix(1 0 0 1 775.3 1556)">
   <path d="M146.161-2.55784Q146.161-3.47559 145.569-3.98313Q144.977-4.49068 144.194-4.49068L53.2484-4.49068Q51.9654-4.49068 51.9654-5.78037L51.9654-96.0883Q51.9654-96.879 51.4732-97.5196Q50.9811-98.1601 50.0634-98.1601Q49.2091-98.1601 48.6484-97.5196Q48.0876-96.879 48.0876-96.0883L48.0876-3.71706Q48.0876-2.23269 48.8915-1.42885Q49.6953-0.625001 51.1083-0.625001L144.194-0.625001Q144.977-0.625001 145.569-1.17276Q146.161-1.72051 146.161-2.55784ZM16.084-64.2236Q16.084-63.3137 16.6759-62.8023Q17.2678-62.2908 18.0507-62.2908L108.998-62.2908Q110.287-62.2908 110.287-61.009L110.287 29.3068Q110.287 30.0262 110.776 30.6667Q111.265 31.3073 112.119 31.3073Q113.037 31.3073 113.602 30.6667Q114.166 30.0262 114.166 29.3068L114.166-63.1436Q114.166-64.5488 113.358-65.3572Q112.55-66.1655 111.144-66.1655L18.0507-66.1655Q17.2678-66.1655 16.6759-65.6133Q16.084-65.061 16.084-64.2236Z"/>
  </g>
  <g id="Ultralight-L" transform="matrix(1 0 0 1 479.481 1556)">
   <path d="M144.377-3.26901Q144.377-3.88939 143.953-4.23532Q143.529-4.58126 143.082-4.58126L52.1236-4.58126Q50.9568-4.58126 50.9568-5.74148L50.9568-95.9332Q50.9568-96.3748 50.6652-96.8344Q50.3736-97.2939 49.7532-97.2939Q49.2222-97.2939 48.8424-96.8344Q48.4626-96.3748 48.4626-95.9332L48.4626-4.62199Q48.4626-3.31878 49.1436-2.63778Q49.8246-1.95677 51.0436-1.95677L143.082-1.95677Q143.529-1.95677 143.953-2.34291Q144.377-2.72906 144.377-3.26901ZM16.084-63.603Q16.084-62.9775 16.5077-62.6341Q16.9315-62.2908 17.3784-62.2908L108.338-62.2908Q109.499-62.2908 109.499-61.1254L109.499 29.0611Q109.499 29.4186 109.794 29.8781Q110.089 30.3376 110.62 30.3376Q111.24 30.3376 111.617 29.8781Q111.994 29.4186 111.994 29.0611L111.994-62.3291Q111.994-63.5533 111.315-64.2324Q110.636-64.9115 109.412-64.9115L17.3784-64.9115Q16.9315-64.9115 16.5077-64.5273Q16.084-64.143 16.084-63.603Z"/>
  </g>
  <g id="Black-M" transform="matrix(1 0 0 1 2864.46 1126)">
   <path d="M125.426-6.71994Q125.426-10.2618 122.811-12.8116Q120.196-15.3615 116.134-15.3615L51.5542-15.3615Q50.2848-15.3615 50.2848-16.6364L50.2848-82.1382Q50.2848-86.1484 47.5498-88.5715Q44.8148-90.9946 41.3871-90.9946Q37.8966-90.9946 35.1361-88.5715Q32.3756-86.1484 32.3756-82.1382L32.3756-3.58061Q32.3756-1.13133 33.902 0.39512Q35.4285 1.92157 37.878 1.92157L116.134 1.92157Q120.196 1.92157 122.811-0.659407Q125.426-3.24039 125.426-6.71994ZM12.4609-61.0111Q12.4609-57.5318 15.0758-54.9507Q17.6907-52.3696 21.7525-52.3696L86.3327-52.3696Q87.6076-52.3696 87.6076-51.1001L87.6076 14.4072Q87.6076 18.4176 90.3399 20.8408Q93.0721 23.2639 96.5056 23.2639Q100.047 23.2639 102.782 20.8408Q105.517 18.4176 105.517 14.4072L105.517-64.1556Q105.517-66.6568 104.016-68.1574Q102.516-69.6581 100.014-69.6581L21.7525-69.6581Q17.6907-69.6581 15.0758-67.1029Q12.4609-64.5477 12.4609-61.0111Z"/>
  </g>
  <g id="Heavy-M" transform="matrix(1 0 0 1 2568.45 1126)">
   <path d="M124.022-6.88754Q124.022-10.0068 121.777-12.181Q119.533-14.3553 116.009-14.3553L50.0517-14.3553Q48.7513-14.3553 48.7513-15.672L48.7513-82.3231Q48.7513-85.8196 46.4063-87.9374Q44.0613-90.0553 41.0293-90.0553Q37.9396-90.0553 35.5787-87.9374Q33.2178-85.8196 33.2178-82.3231L33.2178-4.54111Q33.2178-2.24893 34.6324-0.834356Q36.0469 0.580217 38.3369 0.580217L116.009 0.580217Q119.533 0.580217 121.777-1.6252Q124.022-3.83061 124.022-6.88754ZM12.4609-60.7401Q12.4609-57.6809 14.7057-55.4766Q16.9505-53.2724 20.4742-53.2724L86.4314-53.2724Q87.7481-53.2724 87.7481-51.972L87.7481 14.6955Q87.7481 18.1897 90.0849 20.3075Q92.4217 22.4254 95.4679 22.4254Q98.5871 22.4254 100.934 20.3075Q103.282 18.1897 103.282 14.6955L103.282-63.1052Q103.282-65.4224 101.881-66.8233Q100.48-68.2243 98.1626-68.2243L20.4742-68.2243Q16.9505-68.2243 14.7057-66.0325Q12.4609-63.8407 12.4609-60.7401Z"/>
  </g>
  <g id="Bold-M" transform="matrix(1 0 0 1 2272.52 1126)">
   <path d="M122.452-7.07502Q122.452-9.72148 120.621-11.4756Q118.79-13.2298 115.868-13.2298L48.3709-13.2298Q47.0359-13.2298 47.0359-14.5932L47.0359-82.53Q47.0359-85.4518 45.1272-87.2281Q43.2185-89.0044 40.6291-89.0044Q37.9877-89.0044 36.0738-87.2281Q34.1599-85.4518 34.1599-82.53L34.1599-5.61557Q34.1599-3.49912 35.4493-2.2097Q36.7388-0.920282 38.8501-0.920282L115.868-0.920282Q118.79-0.920282 120.621-2.70557Q122.452-4.49086 122.452-7.07502ZM12.4609-60.437Q12.4609-57.8477 14.2917-56.065Q16.1224-54.2823 19.0442-54.2823L86.5418-54.2823Q87.9052-54.2823 87.9052-52.9474L87.9052 15.0179Q87.9052 17.9347 89.7997 19.711Q91.6942 21.4873 94.3071 21.4873Q96.9535 21.4873 98.8674 19.711Q100.781 17.9347 100.781 15.0179L100.781-61.9301Q100.781-64.0415 99.4918-65.3309Q98.2024-66.6204 96.091-66.6204L19.0442-66.6204Q16.1224-66.6204 14.2917-64.8351Q12.4609-63.0497 12.4609-60.437Z"/>
  </g>
  <g id="Semibold-M" transform="matrix(1 0 0 1 1976.35 1126)">
   <path d="M121.369-7.20426Q121.369-9.5248 119.824-10.9893Q118.278-12.4538 115.772-12.4538L47.2122-12.4538Q45.8534-12.4538 45.8534-13.8495L45.8534-82.6726Q45.8534-85.1983 44.2454-86.7391Q42.6374-88.28 40.3532-88.28Q38.0209-88.28 36.4151-86.7391Q34.8094-85.1983 34.8094-82.6726L34.8094-6.35629Q34.8094-4.361 36.0126-3.15786Q37.2157-1.95472 39.2039-1.95472L115.772-1.95472Q118.278-1.95472 119.824-3.45037Q121.369-4.94603 121.369-7.20426ZM12.4609-60.2281Q12.4609-57.9627 14.0062-56.4706Q15.5515-54.9785 18.0584-54.9785L86.6179-54.9785Q88.0135-54.9785 88.0135-53.6198L88.0135 15.2403Q88.0135 17.7589 89.6031 19.2998Q91.1926 20.8406 93.5068 20.8406Q95.8273 20.8406 97.4425 19.2998Q99.0576 17.7589 99.0576 15.2403L99.0576-61.1201Q99.0576-63.0895 97.845-64.3021Q96.6324-65.5147 94.663-65.5147L18.0584-65.5147Q15.5515-65.5147 14.0062-64.0096Q12.4609-62.5045 12.4609-60.2281Z"/>
  </g>
  <g id="Medium-M" transform="matrix(1 0 0 1 1680.05 1126)">
   <path d="M120.548-7.30226Q120.548-9.37567 119.219-10.6206Q117.89-11.8655 115.698-11.8655L46.3336-11.8655Q44.9567-11.8655 44.9567-13.2856L44.9567-82.7807Q44.9567-85.006 43.5767-86.3684Q42.1968-87.7307 40.144-87.7307Q38.046-87.7307 36.6739-86.3684Q35.3019-85.006 35.3019-82.7807L35.3019-6.91794Q35.3019-5.01451 36.4396-3.87679Q37.5773-2.73907 39.4722-2.73907L115.698-2.73907Q117.89-2.73907 119.219-4.01511Q120.548-5.29116 120.548-7.30226ZM12.4609-60.0696Q12.4609-58.0499 13.7898-56.7781Q15.1187-55.5064 17.3109-55.5064L86.6756-55.5064Q88.0957-55.5064 88.0957-54.1297L88.0957 15.4088Q88.0957 17.6256 89.454 18.9879Q90.8123 20.3503 92.9 20.3503Q94.9734 20.3503 96.362 18.9879Q97.7506 17.6256 97.7506 15.4088L97.7506-60.5058Q97.7506-62.3677 96.5963-63.522Q95.4419-64.6763 93.5801-64.6763L17.3109-64.6763Q15.1187-64.6763 13.7898-63.3837Q12.4609-62.091 12.4609-60.0696Z"/>
  </g>
  <g id="Regular-M" transform="matrix(1 0 0 1 1383.88 1126)">
   <path d="M119.477-7.43009Q119.477-9.18116 118.431-10.1396Q117.384-11.098 115.602-11.098L45.1876-11.098Q43.7871-11.098 43.7871-12.55L43.7871-82.9218Q43.7871-84.7553 42.7046-85.8847Q41.6221-87.0142 39.8711-87.0142Q38.0788-87.0142 37.0115-85.8847Q35.9442-84.7553 35.9442-82.9218L35.9442-7.65052Q35.9442-5.86692 36.9966-4.81453Q38.049-3.76214 39.8222-3.76214L115.602-3.76214Q117.384-3.76214 118.431-4.75173Q119.477-5.74133 119.477-7.43009ZM12.4609-59.863Q12.4609-58.1636 13.5075-57.1793Q14.5541-56.195 16.3359-56.195L86.7509-56.195Q88.2028-56.195 88.2028-54.7947L88.2028 15.6287Q88.2028 17.4517 89.2595 18.5812Q90.3163 19.7107 92.1085 19.7107Q93.8596 19.7107 94.9527 18.5812Q96.0458 17.4517 96.0458 15.6287L96.0458-59.7047Q96.0458-61.4261 94.9675-62.5045Q93.8892-63.5828 92.1677-63.5828L16.3359-63.5828Q14.5541-63.5828 13.5075-62.5673Q12.4609-61.5517 12.4609-59.863Z"/>
  </g>
  <g id="Light-M" transform="matrix(1 0 0 1 1088.34 1126)">
   <path d="M117.116-8.37131Q117.116-9.72881 116.292-10.4734Q115.468-11.2179 114.131-11.2179L43.699-11.2179Q42.4523-11.2179 42.4523-12.4985L42.4523-82.7165Q42.4523-84.088 41.6352-84.9779Q40.8181-85.8678 39.4605-85.8678Q38.096-85.8678 37.2682-84.9779Q36.4404-84.088 36.4404-82.7165L36.4404-8.84818Q36.4404-7.30434 37.3303-6.41452Q38.2201-5.5247 39.7365-5.5247L114.131-5.5247Q115.468-5.5247 116.292-6.30041Q117.116-7.07612 117.116-8.37131ZM12.4609-59.0416Q12.4609-57.7185 13.285-56.9568Q14.1091-56.195 15.4462-56.195L85.8783-56.195Q87.159-56.195 87.159-54.9488L87.159 15.3036Q87.159 16.6476 87.9591 17.5375Q88.7593 18.4274 90.1238 18.4274Q91.4813 18.4274 92.3263 17.5375Q93.1713 16.6476 93.1713 15.3036L93.1713-58.6266Q93.1713-60.1086 92.264-61.0159Q91.3568-61.9231 89.8748-61.9231L15.4462-61.9231Q14.1091-61.9231 13.285-61.13Q12.4609-60.3368 12.4609-59.0416Z"/>
  </g>
  <g id="Thin-M" transform="matrix(1 0 0 1 793.195 1126)">
   <path d="M113.993-9.61616Q113.993-10.4531 113.463-10.9148Q112.933-11.3765 112.184-11.3765L41.7302-11.3765Q40.6869-11.3765 40.6869-12.4305L40.6869-82.445Q40.6869-83.2055 40.2208-83.7785Q39.7546-84.3514 38.9176-84.3514Q38.1189-84.3514 37.6078-83.7785Q37.0967-83.2055 37.0967-82.445L37.0967-10.4322Q37.0967-9.20545 37.7715-8.53064Q38.4463-7.85584 39.6232-7.85584L112.184-7.85584Q112.933-7.85584 113.463-8.34866Q113.993-8.84149 113.993-9.61616ZM12.4609-57.9553Q12.4609-57.13 12.9907-56.6625Q13.5205-56.195 14.2694-56.195L84.7244-56.195Q85.7784-56.195 85.7784-55.1526L85.7784 14.8735Q85.7784 15.5842 86.2392 16.1571Q86.7 16.7301 87.4987 16.7301Q88.3357 16.7301 88.8526 16.1571Q89.3694 15.5842 89.3694 14.8735L89.3694-57.2008Q89.3694-58.366 88.6884-59.0471Q88.0074-59.7281 86.8421-59.7281L14.2694-59.7281Q13.5205-59.7281 12.9907-59.2291Q12.4609-58.73 12.4609-57.9553Z"/>
  </g>
  <g id="Ultralight-M" transform="matrix(1 0 0 1 497.284 1126)">
   <path d="M112.393-10.2538Q112.393-10.8241 112.014-11.1409Q111.635-11.4577 111.187-11.4577L40.7218-11.4577Q39.7827-11.4577 39.7827-12.3956L39.7827-82.306Q39.7827-82.7535 39.4963-83.1641Q39.2099-83.5748 38.6395-83.5748Q38.1305-83.5748 37.7817-83.1641Q37.4328-82.7535 37.4328-82.306L37.4328-11.2435Q37.4328-10.1792 37.9975-9.61451Q38.5622-9.04984 39.5652-9.04984L111.187-9.04984Q111.635-9.04984 112.014-9.39777Q112.393-9.7457 112.393-10.2538ZM12.4609-57.3989Q12.4609-56.8285 12.84-56.5118Q13.219-56.195 13.6666-56.195L84.1333-56.195Q85.0712-56.195 85.0712-55.257L85.0712 14.6533Q85.0712 15.0395 85.3582 15.4501Q85.6452 15.8607 86.1542 15.8607Q86.7245 15.8607 87.0734 15.4501Q87.4222 15.0395 87.4222 14.6533L87.4222-56.4705Q87.4222-57.4735 86.857-58.0387Q86.2919-58.6038 85.2888-58.6038L13.6666-58.6038Q13.219-58.6038 12.84-58.2554Q12.4609-57.907 12.4609-57.3989Z"/>
  </g>
  <g id="Black-S" transform="matrix(1 0 0 1 2879.23 696)">
   <path d="M98.584-12.8906Q98.584-15.7715 96.4355-17.8711Q94.2871-19.9707 90.9668-19.9707L40.7715-19.9707Q39.7949-19.9707 39.7949-20.9473L39.7949-71.9238Q39.7949-75.1953 37.5488-77.1729Q35.3027-79.1504 32.5195-79.1504Q29.6875-79.1504 27.417-77.1729Q25.1465-75.1953 25.1465-71.9238L25.1465-10.2051Q25.1465-8.25195 26.3672-7.03125Q27.5879-5.81055 29.541-5.81055L90.9668-5.81055Q94.2871-5.81055 96.4355-7.93457Q98.584-10.0586 98.584-12.8906ZM9.76562-55.4688Q9.76562-52.6367 11.9141-50.5127Q14.0625-48.3887 17.3828-48.3887L67.5781-48.3887Q68.5547-48.3887 68.5547-47.4121L68.5547 3.56445Q68.5547 6.83594 70.8008 8.81348Q73.0469 10.791 75.8301 10.791Q78.7109 10.791 80.957 8.81348Q83.2031 6.83594 83.2031 3.56445L83.2031-58.1543Q83.2031-60.1562 82.0068-61.3525Q80.8105-62.5488 78.8086-62.5488L17.3828-62.5488Q14.0625-62.5488 11.9141-60.4492Q9.76562-58.3496 9.76562-55.4688Z"/>
  </g>
  <g id="Heavy-S" transform="matrix(1 0 0 1 2582.96 696)">
   <path d="M97.6851-12.9137Q97.6851-15.4834 95.8248-17.2891Q93.9644-19.0948 91.0475-19.0948L39.6767-19.0948Q38.654-19.0948 38.654-20.129L38.654-72.1082Q38.654-74.9994 36.7075-76.7464Q34.7611-78.4935 32.266-78.4935Q29.7221-78.4935 27.7627-76.7464Q25.8034-74.9994 25.8034-72.1082L25.8034-10.8735Q25.8034-9.02409 26.9492-7.8783Q28.095-6.7325 29.9444-6.7325L91.0475-6.7325Q93.9644-6.7325 95.8248-8.56265Q97.6851-10.3928 97.6851-12.9137ZM9.76562-55.342Q9.76562-52.8211 11.626-50.991Q13.4863-49.1608 16.4032-49.1608L67.774-49.1608Q68.8082-49.1608 68.8082-48.1382L68.8082 3.85256Q68.8082 6.74374 70.7489 8.49079Q72.6896 10.2378 75.1962 10.2378Q77.7659 10.2378 79.7124 8.49079Q81.6588 6.74374 81.6588 3.85256L81.6588-57.3937Q81.6588-59.2689 80.5259-60.4018Q79.393-61.5347 77.5179-61.5347L16.4032-61.5347Q13.4863-61.5347 11.626-59.7174Q9.76562-57.9002 9.76562-55.342Z"/>
  </g>
  <g id="Bold-S" transform="matrix(1 0 0 1 2286.76 696)">
   <path d="M96.6797-12.9395Q96.6797-15.1611 95.1416-16.6382Q93.6035-18.1152 91.1377-18.1152L38.4521-18.1152Q37.3779-18.1152 37.3779-19.2139L37.3779-72.3145Q37.3779-74.7803 35.7666-76.2695Q34.1553-77.7588 31.9824-77.7588Q29.7607-77.7588 28.1494-76.2695Q26.5381-74.7803 26.5381-72.3145L26.5381-11.6211Q26.5381-9.8877 27.6001-8.82568Q28.6621-7.76367 30.3955-7.76367L91.1377-7.76367Q93.6035-7.76367 95.1416-9.26514Q96.6797-10.7666 96.6797-12.9395ZM9.76562-55.2002Q9.76562-53.0273 11.3037-51.5259Q12.8418-50.0244 15.3076-50.0244L67.9932-50.0244Q69.0918-50.0244 69.0918-48.9502L69.0918 4.1748Q69.0918 6.64062 70.6909 8.12988Q72.29 9.61914 74.4873 9.61914Q76.709 9.61914 78.3203 8.12988Q79.9316 6.64062 79.9316 4.1748L79.9316-56.543Q79.9316-58.2764 78.8696-59.3384Q77.8076-60.4004 76.0742-60.4004L15.3076-60.4004Q12.8418-60.4004 11.3037-58.8989Q9.76562-57.3975 9.76562-55.2002Z"/>
  </g>
  <g id="Semibold-S" transform="matrix(1 0 0 1 1990.39 696)">
   <path d="M95.9865-12.9572Q95.9865-14.939 94.6706-16.1894Q93.3547-17.4398 91.1999-17.4398L37.6079-17.4398Q36.4981-17.4398 36.4981-18.5829L36.4981-72.4566Q36.4981-74.6292 35.1179-75.9407Q33.7376-77.2522 31.7869-77.2522Q29.7874-77.2522 28.416-75.9407Q27.0446-74.6292 27.0446-72.4566L27.0446-12.1365Q27.0446-10.4831 28.0489-9.47886Q29.0531-8.47461 30.7065-8.47461L91.1999-8.47461Q93.3547-8.47461 94.6706-9.74946Q95.9865-11.0243 95.9865-12.9572ZM9.76562-55.1024Q9.76562-53.1695 11.0815-51.8947Q12.3975-50.6198 14.5522-50.6198L68.1442-50.6198Q69.2873-50.6198 69.2873-49.5101L69.2873 4.39697Q69.2873 6.56953 70.6509 7.88105Q72.0146 9.19258 73.9985 9.19258Q75.9803 9.19258 77.3605 7.88105Q78.7408 6.56953 78.7408 4.39697L78.7408-55.9564Q78.7408-57.5921 77.7277-58.6052Q76.7146-59.6184 75.0789-59.6184L14.5522-59.6184Q12.3975-59.6184 11.0815-58.3346Q9.76562-57.0509 9.76562-55.1024Z"/>
  </g>
  <g id="Medium-S" transform="matrix(1 0 0 1 1693.94 696)">
   <path d="M95.4609-12.9707Q95.4609-14.7705 94.3135-15.8491Q93.166-16.9277 91.2471-16.9277L36.9678-16.9277Q35.8311-16.9277 35.8311-18.1045L35.8311-72.5645Q35.8311-74.5146 34.626-75.6914Q33.4209-76.8682 31.6387-76.8682Q29.8076-76.8682 28.6182-75.6914Q27.4287-74.5146 27.4287-72.5645L27.4287-12.5273Q27.4287-10.9346 28.3892-9.97412Q29.3496-9.01367 30.9424-9.01367L91.2471-9.01367Q93.166-9.01367 94.3135-10.1167Q95.4609-11.2197 95.4609-12.9707ZM9.76562-55.0283Q9.76562-53.2773 10.9131-52.1743Q12.0605-51.0713 13.9795-51.0713L68.2588-51.0713Q69.4355-51.0713 69.4355-49.9346L69.4355 4.56543Q69.4355 6.51562 70.6206 7.69238Q71.8057 8.86914 73.6279 8.86914Q75.4277 8.86914 76.6328 7.69238Q77.8379 6.51562 77.8379 4.56543L77.8379-55.5117Q77.8379-57.0732 76.8618-58.0493Q75.8857-59.0254 74.3242-59.0254L13.9795-59.0254Q12.0605-59.0254 10.9131-57.9067Q9.76562-56.7881 9.76562-55.0283Z"/>
  </g>
  <g id="Regular-S" transform="matrix(1 0 0 1 1397.57 696)">
   <path d="M94.7754-12.9883Q94.7754-14.5508 93.8477-15.4053Q92.9199-16.2598 91.3086-16.2598L36.1328-16.2598Q34.9609-16.2598 34.9609-17.4805L34.9609-72.7051Q34.9609-74.3652 33.9844-75.3662Q33.0078-76.3672 31.4453-76.3672Q29.834-76.3672 28.8818-75.3662Q27.9297-74.3652 27.9297-72.7051L27.9297-13.0371Q27.9297-11.5234 28.833-10.6201Q29.7363-9.7168 31.25-9.7168L91.3086-9.7168Q92.9199-9.7168 93.8477-10.5957Q94.7754-11.4746 94.7754-12.9883ZM9.76562-54.9316Q9.76562-53.418 10.6934-52.5391Q11.6211-51.6602 13.2324-51.6602L68.4082-51.6602Q69.6289-51.6602 69.6289-50.4883L69.6289 4.78516Q69.6289 6.44531 70.5811 7.44629Q71.5332 8.44727 73.1445 8.44727Q74.707 8.44727 75.6836 7.44629Q76.6602 6.44531 76.6602 4.78516L76.6602-54.9316Q76.6602-56.3965 75.7324-57.3242Q74.8047-58.252 73.3398-58.252L13.2324-58.252Q11.6211-58.252 10.6934-57.3486Q9.76562-56.4453 9.76562-54.9316Z"/>
  </g>
  <g id="Light-S" transform="matrix(1 0 0 1 1101.91 696)">
   <path d="M92.6865-13.8209Q92.6865-15.0352 91.9556-15.7005Q91.2247-16.3658 90.0068-16.3658L34.816-16.3658Q33.7802-16.3658 33.7802-17.4349L33.7802-72.5235Q33.7802-73.775 33.0383-74.564Q32.2965-75.353 31.0822-75.353Q29.8492-75.353 29.1089-74.564Q28.3686-73.775 28.3686-72.5235L28.3686-14.0966Q28.3686-12.795 29.1281-12.0355Q29.8876-11.276 31.1742-11.276L90.0068-11.276Q91.2247-11.276 91.9556-11.9657Q92.6865-12.6554 92.6865-13.8209ZM9.76562-54.2051Q9.76562-53.0243 10.4965-52.3422Q11.2274-51.6602 12.4453-51.6602L67.6364-51.6602Q68.7055-51.6602 68.7055-50.6246L68.7055 4.49753Q68.7055 5.734 69.4307 6.52301Q70.1558 7.31201 71.3888 7.31201Q72.6031 7.31201 73.3602 6.52301Q74.1173 5.734 74.1173 4.49753L74.1173-53.978Q74.1173-55.231 73.3409-56.0074Q72.5644-56.7838 71.3114-56.7838L12.4453-56.7838Q11.2274-56.7838 10.4965-56.0772Q9.76562-55.3706 9.76562-54.2051Z"/>
  </g>
  <g id="Thin-S" transform="matrix(1 0 0 1 806.577 696)">
   <path d="M89.9237-14.9221Q89.9237-15.676 89.4531-16.091Q88.9826-16.5061 88.285-16.5061L33.0744-16.5061Q32.2185-16.5061 32.2185-17.3747L32.2185-72.2833Q32.2185-72.9943 31.7871-73.503Q31.3557-74.0116 30.6018-74.0116Q29.8694-74.0116 29.4093-73.503Q28.9492-72.9943 28.9492-72.2833L28.9492-15.4978Q28.9492-14.4768 29.5185-13.9075Q30.0878-13.3382 31.074-13.3382L88.285-13.3382Q88.9826-13.3382 89.4531-13.7776Q89.9237-14.2171 89.9237-14.9221ZM9.76562-53.2441Q9.76562-52.5036 10.2362-52.0819Q10.7067-51.6602 11.4043-51.6602L66.6155-51.6602Q67.4842-51.6602 67.4842-50.8049L67.4842 4.11712Q67.4842 4.79323 67.9092 5.30189Q68.3342 5.81055 69.0666 5.81055Q69.8205 5.81055 70.2873 5.30189Q70.7541 4.79323 70.7541 4.11712L70.7541-52.7167Q70.7541-53.6895 70.1778-54.2658Q69.6015-54.8421 68.6287-54.8421L11.4043-54.8421Q10.7067-54.8421 10.2362-54.3956Q9.76562-53.9492 9.76562-53.2441Z"/>
  </g>
  <g id="Ultralight-S" transform="matrix(1 0 0 1 510.574 696)">
   <path d="M88.5086-15.4861Q88.5086-16.0042 88.1714-16.291Q87.8342-16.5779 87.4031-16.5779L32.1823-16.5779Q31.4186-16.5779 31.4186-17.3439L31.4186-72.1603Q31.4186-72.5945 31.1462-72.9595Q30.8739-73.3246 30.3558-73.3246Q29.8798-73.3246 29.5631-72.9595Q29.2465-72.5945 29.2465-72.1603L29.2465-16.2155Q29.2465-15.3381 29.7184-14.8663Q30.1903-14.3944 31.0226-14.3944L87.4031-14.3944Q87.8342-14.3944 88.1714-14.7057Q88.5086-15.0169 88.5086-15.4861ZM9.76562-52.7519Q9.76562-52.2369 10.1028-51.9485Q10.4401-51.6602 10.8711-51.6602L66.0927-51.6602Q66.8587-51.6602 66.8587-50.8972L66.8587 3.92227Q66.8587 4.31137 67.1299 4.67644Q67.4011 5.0415 67.8772 5.0415Q68.3952 5.0415 68.7134 4.67644Q69.0315 4.31137 69.0315 3.92227L69.0315-52.0706Q69.0315-52.8999 68.5577-53.3737Q68.084-53.8475 67.2546-53.8475L10.8711-53.8475Q10.4401-53.8475 10.1028-53.5343Q9.76562-53.2211 9.76562-52.7519Z"/>
  </g>
 </g>
</svg>
