<?xml version="1.0" encoding="UTF-8"?>
<!--Generator: Apple Native CoreSVG 175-->
<!DOCTYPE svg
PUBLIC "-//W3C//DTD SVG 1.1//EN"
       "http://www.w3.org/Graphics/SVG/1.1/DTD/svg11.dtd">
<svg version="1.1" xmlns="http://www.w3.org/2000/svg" xmlns:xlink="http://www.w3.org/1999/xlink" width="3300" height="2200">
 <!--glyph: "uni100480.medium", point size: 100.0, font version: "17.3d3e1", template writer version: "65.1"-->
 <g id="Notes">
  <rect height="2200" id="artboard" style="fill:white;opacity:1" width="3300" x="0" y="0"/>
  <line style="fill:none;stroke:black;opacity:1;stroke-width:0.5;" x1="263" x2="3036" y1="292" y2="292"/>
  <text style="stroke:none;fill:black;font-family:sans-serif;font-size:13;font-weight:bold;" transform="matrix(1 0 0 1 263 322)">Weight/Scale Variations</text>
  <text style="stroke:none;fill:black;font-family:sans-serif;font-size:13;text-anchor:middle;" transform="matrix(1 0 0 1 559.711 322)">Ultralight</text>
  <text style="stroke:none;fill:black;font-family:sans-serif;font-size:13;text-anchor:middle;" transform="matrix(1 0 0 1 856.422 322)">Thin</text>
  <text style="stroke:none;fill:black;font-family:sans-serif;font-size:13;text-anchor:middle;" transform="matrix(1 0 0 1 1153.13 322)">Light</text>
  <text style="stroke:none;fill:black;font-family:sans-serif;font-size:13;text-anchor:middle;" transform="matrix(1 0 0 1 1449.84 322)">Regular</text>
  <text style="stroke:none;fill:black;font-family:sans-serif;font-size:13;text-anchor:middle;" transform="matrix(1 0 0 1 1746.56 322)">Medium</text>
  <text style="stroke:none;fill:black;font-family:sans-serif;font-size:13;text-anchor:middle;" transform="matrix(1 0 0 1 2043.27 322)">Semibold</text>
  <text style="stroke:none;fill:black;font-family:sans-serif;font-size:13;text-anchor:middle;" transform="matrix(1 0 0 1 2339.98 322)">Bold</text>
  <text style="stroke:none;fill:black;font-family:sans-serif;font-size:13;text-anchor:middle;" transform="matrix(1 0 0 1 2636.69 322)">Heavy</text>
  <text style="stroke:none;fill:black;font-family:sans-serif;font-size:13;text-anchor:middle;" transform="matrix(1 0 0 1 2933.4 322)">Black</text>
  <line style="fill:none;stroke:black;opacity:1;stroke-width:0.5;" x1="263" x2="3036" y1="1903" y2="1903"/>
  <g transform="matrix(1 0 0 1 263 1933)">
   <path d="M9.24805 0.830078Q10.8691 0.830078 12.2949 0.214844Q13.7207-0.400391 14.8096-1.49414Q15.8984-2.58789 16.5186-4.01367Q17.1387-5.43945 17.1387-7.05078Q17.1387-8.66211 16.5186-10.0879Q15.8984-11.5137 14.8047-12.6074Q13.7109-13.7012 12.2852-14.3164Q10.8594-14.9316 9.23828-14.9316Q7.62695-14.9316 6.20117-14.3164Q4.77539-13.7012 3.69141-12.6074Q2.60742-11.5137 1.9873-10.0879Q1.36719-8.66211 1.36719-7.05078Q1.36719-5.43945 1.9873-4.01367Q2.60742-2.58789 3.69629-1.49414Q4.78516-0.400391 6.21094 0.214844Q7.63672 0.830078 9.24805 0.830078ZM9.24805-0.654297Q7.91992-0.654297 6.7627-1.14746Q5.60547-1.64062 4.73145-2.51953Q3.85742-3.39844 3.36426-4.56055Q2.87109-5.72266 2.87109-7.05078Q2.87109-8.37891 3.35938-9.54102Q3.84766-10.7031 4.72168-11.582Q5.5957-12.4609 6.75293-12.9541Q7.91016-13.4473 9.23828-13.4473Q10.5762-13.4473 11.7334-12.9541Q12.8906-12.4609 13.7695-11.582Q14.6484-10.7031 15.1465-9.54102Q15.6445-8.37891 15.6445-7.05078Q15.6445-5.72266 15.1514-4.56055Q14.6582-3.39844 13.7842-2.51953Q12.9102-1.64062 11.748-1.14746Q10.5859-0.654297 9.24805-0.654297ZM5.6543-7.05078Q5.6543-6.72852 5.85938-6.52832Q6.06445-6.32812 6.40625-6.32812L8.51562-6.32812L8.51562-4.20898Q8.51562-3.88672 8.71094-3.67676Q8.90625-3.4668 9.23828-3.4668Q9.56055-3.4668 9.77051-3.67676Q9.98047-3.88672 9.98047-4.20898L9.98047-6.32812L12.0898-6.32812Q12.4219-6.32812 12.627-6.52832Q12.832-6.72852 12.832-7.05078Q12.832-7.38281 12.627-7.58789Q12.4219-7.79297 12.0898-7.79297L9.98047-7.79297L9.98047-9.90234Q9.98047-10.2344 9.77051-10.4443Q9.56055-10.6543 9.23828-10.6543Q8.90625-10.6543 8.71094-10.4443Q8.51562-10.2344 8.51562-9.90234L8.51562-7.79297L6.40625-7.79297Q6.06445-7.79297 5.85938-7.58789Q5.6543-7.38281 5.6543-7.05078Z"/>
  </g>
  <g transform="matrix(1 0 0 1 281.867 1933)">
   <path d="M11.709 2.91016Q13.75 2.91016 15.5518 2.12891Q17.3535 1.34766 18.7305-0.0292969Q20.1074-1.40625 20.8887-3.20801Q21.6699-5.00977 21.6699-7.05078Q21.6699-9.0918 20.8887-10.8936Q20.1074-12.6953 18.7305-14.0723Q17.3535-15.4492 15.5469-16.2305Q13.7402-17.0117 11.6992-17.0117Q9.6582-17.0117 7.85645-16.2305Q6.05469-15.4492 4.68262-14.0723Q3.31055-12.6953 2.5293-10.8936Q1.74805-9.0918 1.74805-7.05078Q1.74805-5.00977 2.5293-3.20801Q3.31055-1.40625 4.6875-0.0292969Q6.06445 1.34766 7.86621 2.12891Q9.66797 2.91016 11.709 2.91016ZM11.709 1.25Q9.98047 1.25 8.47656 0.605469Q6.97266-0.0390625 5.83496-1.17676Q4.69727-2.31445 4.05762-3.81836Q3.41797-5.32227 3.41797-7.05078Q3.41797-8.7793 4.05762-10.2832Q4.69727-11.7871 5.83008-12.9297Q6.96289-14.0723 8.4668-14.7119Q9.9707-15.3516 11.6992-15.3516Q13.4277-15.3516 14.9316-14.7119Q16.4355-14.0723 17.5781-12.9297Q18.7207-11.7871 19.3652-10.2832Q20.0098-8.7793 20.0098-7.05078Q20.0098-5.32227 19.3701-3.81836Q18.7305-2.31445 17.5928-1.17676Q16.4551-0.0390625 14.9463 0.605469Q13.4375 1.25 11.709 1.25ZM7.17773-7.05078Q7.17773-6.69922 7.41211-6.47461Q7.64648-6.25 8.01758-6.25L10.8887-6.25L10.8887-3.36914Q10.8887-2.99805 11.1133-2.76855Q11.3379-2.53906 11.6895-2.53906Q12.0605-2.53906 12.29-2.76855Q12.5195-2.99805 12.5195-3.36914L12.5195-6.25L15.4004-6.25Q15.7715-6.25 16.001-6.47461Q16.2305-6.69922 16.2305-7.05078Q16.2305-7.42188 16.001-7.65137Q15.7715-7.88086 15.4004-7.88086L12.5195-7.88086L12.5195-10.752Q12.5195-11.1328 12.29-11.3623Q12.0605-11.5918 11.6895-11.5918Q11.3379-11.5918 11.1133-11.3574Q10.8887-11.123 10.8887-10.752L10.8887-7.88086L8.01758-7.88086Q7.63672-7.88086 7.40723-7.65137Q7.17773-7.42188 7.17773-7.05078Z"/>
  </g>
  <g transform="matrix(1 0 0 1 305.646 1933)">
   <path d="M14.9707 5.66406Q17.0605 5.66406 18.96 5.01465Q20.8594 4.36523 22.4512 3.19336Q24.043 2.02148 25.2197 0.429688Q26.3965-1.16211 27.0459-3.06641Q27.6953-4.9707 27.6953-7.05078Q27.6953-9.14062 27.0459-11.04Q26.3965-12.9395 25.2197-14.5312Q24.043-16.123 22.4512-17.2998Q20.8594-18.4766 18.9551-19.126Q17.0508-19.7754 14.9609-19.7754Q12.8711-19.7754 10.9717-19.126Q9.07227-18.4766 7.48535-17.2998Q5.89844-16.123 4.72168-14.5312Q3.54492-12.9395 2.90039-11.04Q2.25586-9.14062 2.25586-7.05078Q2.25586-4.9707 2.90527-3.06641Q3.55469-1.16211 4.72656 0.429688Q5.89844 2.02148 7.49023 3.19336Q9.08203 4.36523 10.9814 5.01465Q12.8809 5.66406 14.9707 5.66406ZM14.9707 3.84766Q13.1641 3.84766 11.5283 3.2959Q9.89258 2.74414 8.53516 1.74805Q7.17773 0.751953 6.17676-0.610352Q5.17578-1.97266 4.62891-3.6084Q4.08203-5.24414 4.08203-7.05078Q4.08203-8.86719 4.62891-10.5029Q5.17578-12.1387 6.17188-13.501Q7.16797-14.8633 8.52539-15.8594Q9.88281-16.8555 11.5186-17.4023Q13.1543-17.9492 14.9609-17.9492Q16.7773-17.9492 18.4131-17.4023Q20.0488-16.8555 21.4111-15.8594Q22.7734-14.8633 23.7695-13.501Q24.7656-12.1387 25.3174-10.5029Q25.8691-8.86719 25.8691-7.05078Q25.8789-5.24414 25.332-3.6084Q24.7852-1.97266 23.7842-0.610352Q22.7832 0.751953 21.4209 1.74805Q20.0586 2.74414 18.4229 3.2959Q16.7871 3.84766 14.9707 3.84766ZM9.19922-7.05078Q9.19922-6.66992 9.45801-6.4209Q9.7168-6.17188 10.1172-6.17188L14.0625-6.17188L14.0625-2.2168Q14.0625-1.81641 14.3115-1.55762Q14.5605-1.29883 14.9512-1.29883Q15.3516-1.29883 15.6104-1.55273Q15.8691-1.80664 15.8691-2.2168L15.8691-6.17188L19.8242-6.17188Q20.2246-6.17188 20.4785-6.4209Q20.7324-6.66992 20.7324-7.05078Q20.7324-7.46094 20.4785-7.71484Q20.2246-7.96875 19.8242-7.96875L15.8691-7.96875L15.8691-11.9141Q15.8691-12.3242 15.6104-12.583Q15.3516-12.8418 14.9512-12.8418Q14.5605-12.8418 14.3115-12.583Q14.0625-12.3242 14.0625-11.9141L14.0625-7.96875L10.1172-7.96875Q9.70703-7.96875 9.45312-7.71484Q9.19922-7.46094 9.19922-7.05078Z"/>
  </g>
  <text style="stroke:none;fill:black;font-family:sans-serif;font-size:13;font-weight:bold;" transform="matrix(1 0 0 1 263 1953)">Design Variations</text>
  <text style="stroke:none;fill:black;font-family:sans-serif;font-size:13;" transform="matrix(1 0 0 1 263 1971)">Symbols are supported in up to nine weights and three scales.</text>
  <text style="stroke:none;fill:black;font-family:sans-serif;font-size:13;" transform="matrix(1 0 0 1 263 1989)">For optimal layout with text and other symbols, vertically align</text>
  <text style="stroke:none;fill:black;font-family:sans-serif;font-size:13;" transform="matrix(1 0 0 1 263 2007)">symbols with the adjacent text.</text>
  <line style="fill:none;stroke:#00AEEF;stroke-width:0.5;opacity:1.0;" x1="776" x2="776" y1="1919" y2="1933"/>
  <g transform="matrix(1 0 0 1 776 1933)">
   <path d="M3.31055 0.15625Q3.70117 0.15625 3.91602-0.00976562Q4.13086-0.175781 4.26758-0.585938L5.52734-4.0332L11.2891-4.0332L12.5488-0.585938Q12.6855-0.175781 12.9004-0.00976562Q13.1152 0.15625 13.4961 0.15625Q13.8867 0.15625 14.1162-0.0585938Q14.3457-0.273438 14.3457-0.644531Q14.3457-0.869141 14.2383-1.17188L9.6582-13.3691Q9.48242-13.8184 9.17969-14.043Q8.87695-14.2676 8.4082-14.2676Q7.5-14.2676 7.17773-13.3789L2.59766-1.16211Q2.49023-0.859375 2.49023-0.634766Q2.49023-0.263672 2.70996-0.0537109Q2.92969 0.15625 3.31055 0.15625ZM6.00586-5.51758L8.37891-12.0898L8.42773-12.0898L10.8008-5.51758Z"/>
  </g>
  <line style="fill:none;stroke:#00AEEF;stroke-width:0.5;opacity:1.0;" x1="793.197" x2="793.197" y1="1919" y2="1933"/>
  <text style="stroke:none;fill:black;font-family:sans-serif;font-size:13;font-weight:bold;" transform="matrix(1 0 0 1 776 1953)">Margins</text>
  <text style="stroke:none;fill:black;font-family:sans-serif;font-size:13;" transform="matrix(1 0 0 1 776 1971)">Leading and trailing margins on the left and right side of each symbol</text>
  <text style="stroke:none;fill:black;font-family:sans-serif;font-size:13;" transform="matrix(1 0 0 1 776 1989)">can be adjusted by modifying the x-location of the margin guidelines.</text>
  <text style="stroke:none;fill:black;font-family:sans-serif;font-size:13;" transform="matrix(1 0 0 1 776 2007)">Modifications are automatically applied proportionally to all</text>
  <text style="stroke:none;fill:black;font-family:sans-serif;font-size:13;" transform="matrix(1 0 0 1 776 2025)">scales and weights.</text>
  <g transform="matrix(1 0 0 1 1289 1933)">
   <path d="M2.8418 1.86523L4.54102 3.57422Q5.18555 4.22852 5.90332 4.17969Q6.62109 4.13086 7.31445 3.35938L18.0078-8.42773L17.041-9.4043L6.42578 2.27539Q6.16211 2.57812 5.89355 2.61719Q5.625 2.65625 5.27344 2.30469L4.10156 1.14258Q3.75 0.791016 3.79395 0.522461Q3.83789 0.253906 4.14062-0.0195312L15.6152-10.8203L14.6387-11.7871L3.04688-0.898438Q2.30469-0.214844 2.25098 0.498047Q2.19727 1.21094 2.8418 1.86523ZM9.25781-16.3281Q8.94531-16.0254 8.90625-15.6348Q8.86719-15.2441 9.04297-14.9512Q9.21875-14.6777 9.55566-14.541Q9.89258-14.4043 10.3809-14.5215Q11.4746-14.7754 12.5977-14.7314Q13.7207-14.6875 14.7949-13.9844L14.209-12.5293Q13.9551-11.9043 14.0674-11.4404Q14.1797-10.9766 14.5801-10.5664L16.875-8.25195Q17.2363-7.88086 17.5781-7.82227Q17.9199-7.76367 18.3398-7.8418L19.4043-8.03711L20.0684-7.36328L20.0293-6.80664Q20-6.43555 20.1221-6.12305Q20.2441-5.81055 20.6055-5.44922L21.3672-4.70703Q21.7285-4.3457 22.1533-4.33105Q22.5781-4.31641 22.9297-4.66797L25.8398-7.58789Q26.1914-7.93945 26.1816-8.35449Q26.1719-8.76953 25.8105-9.13086L25.0391-9.89258Q24.6875-10.2539 24.3799-10.3857Q24.0723-10.5176 23.7109-10.4883L23.1348-10.4395L22.4902-11.0742L22.7344-12.1973Q22.832-12.6172 22.6953-12.9834Q22.5586-13.3496 22.1191-13.7891L19.9219-15.9766Q18.6719-17.2168 17.2607-17.8369Q15.8496-18.457 14.4189-18.4814Q12.9883-18.5059 11.665-17.959Q10.3418-17.4121 9.25781-16.3281ZM10.752-15.957Q11.6602-16.6211 12.7002-16.9043Q13.7402-17.1875 14.8047-17.085Q15.8691-16.9824 16.8701-16.5137Q17.8711-16.0449 18.7012-15.2051L21.1328-12.793Q21.3086-12.6172 21.3525-12.4512Q21.3965-12.2852 21.3379-12.0312L21.0156-10.5469L22.5195-9.0625L23.5059-9.12109Q23.6914-9.13086 23.7891-9.09668Q23.8867-9.0625 24.0332-8.91602L24.6094-8.33984L22.168-5.89844L21.5918-6.47461Q21.4453-6.62109 21.4062-6.71875Q21.3672-6.81641 21.377-7.01172L21.4453-7.98828L19.9512-9.47266L18.4277-9.21875Q18.1836-9.16992 18.042-9.2041Q17.9004-9.23828 17.7148-9.41406L15.7129-11.416Q15.5176-11.5918 15.4932-11.7529Q15.4688-11.9141 15.5859-12.1875L16.4648-14.2773Q15.293-15.3711 13.8281-15.791Q12.3633-16.2109 10.8398-15.7617Q10.7227-15.7324 10.6885-15.8057Q10.6543-15.8789 10.752-15.957Z"/>
  </g>
  <text style="stroke:none;fill:black;font-family:sans-serif;font-size:13;font-weight:bold;" transform="matrix(1 0 0 1 1289 1953)">Exporting</text>
  <text style="stroke:none;fill:black;font-family:sans-serif;font-size:13;" transform="matrix(1 0 0 1 1289 1971)">Symbols should be outlined when exporting to ensure the</text>
  <text style="stroke:none;fill:black;font-family:sans-serif;font-size:13;" transform="matrix(1 0 0 1 1289 1989)">design is preserved when submitting to Xcode.</text>
  <text id="template-version" style="stroke:none;fill:black;font-family:sans-serif;font-size:13;text-anchor:end;" transform="matrix(1 0 0 1 3036 1933)">Template v.3.0</text>
  <text style="stroke:none;fill:black;font-family:sans-serif;font-size:13;text-anchor:end;" transform="matrix(1 0 0 1 3036 1951)">Requires Xcode 13 or greater</text>
  <text id="descriptive-name" style="stroke:none;fill:black;font-family:sans-serif;font-size:13;text-anchor:end;" transform="matrix(1 0 0 1 3036 1969)">Generated from arrow.left.and.right.square</text>
  <text style="stroke:none;fill:black;font-family:sans-serif;font-size:13;text-anchor:end;" transform="matrix(1 0 0 1 3036 1987)">Typeset at 100 points</text>
  <text style="stroke:none;fill:black;font-family:sans-serif;font-size:13;" transform="matrix(1 0 0 1 263 726)">Small</text>
  <text style="stroke:none;fill:black;font-family:sans-serif;font-size:13;" transform="matrix(1 0 0 1 263 1156)">Medium</text>
  <text style="stroke:none;fill:black;font-family:sans-serif;font-size:13;" transform="matrix(1 0 0 1 263 1586)">Large</text>
 </g>
 <g id="Guides">
  <g id="H-reference" style="fill:#27AAE1;stroke:none;" transform="matrix(1 0 0 1 339 696)">
   <path d="M0.993347 0L3.6377 0L29.3282-67.1326L30.0301-67.1326L30.0301-70.459L28.1227-70.459ZM11.6882-24.4797L46.9818-24.4797L46.2311-26.7288L12.4382-26.7288ZM55.1193 0L57.7637 0L30.6381-70.459L29.4327-70.459L29.4327-67.1326Z"/>
  </g>
  <line id="Baseline-S" style="fill:none;stroke:#27AAE1;opacity:1;stroke-width:0.5;" x1="263" x2="3036" y1="696" y2="696"/>
  <line id="Capline-S" style="fill:none;stroke:#27AAE1;opacity:1;stroke-width:0.5;" x1="263" x2="3036" y1="625.541" y2="625.541"/>
  <g id="H-reference" style="fill:#27AAE1;stroke:none;" transform="matrix(1 0 0 1 339 1126)">
   <path d="M0.993347 0L3.6377 0L29.3282-67.1326L30.0301-67.1326L30.0301-70.459L28.1227-70.459ZM11.6882-24.4797L46.9818-24.4797L46.2311-26.7288L12.4382-26.7288ZM55.1193 0L57.7637 0L30.6381-70.459L29.4327-70.459L29.4327-67.1326Z"/>
  </g>
  <line id="Baseline-M" style="fill:none;stroke:#27AAE1;opacity:1;stroke-width:0.5;" x1="263" x2="3036" y1="1126" y2="1126"/>
  <line id="Capline-M" style="fill:none;stroke:#27AAE1;opacity:1;stroke-width:0.5;" x1="263" x2="3036" y1="1055.54" y2="1055.54"/>
  <g id="H-reference" style="fill:#27AAE1;stroke:none;" transform="matrix(1 0 0 1 339 1556)">
   <path d="M0.993347 0L3.6377 0L29.3282-67.1326L30.0301-67.1326L30.0301-70.459L28.1227-70.459ZM11.6882-24.4797L46.9818-24.4797L46.2311-26.7288L12.4382-26.7288ZM55.1193 0L57.7637 0L30.6381-70.459L29.4327-70.459L29.4327-67.1326Z"/>
  </g>
  <line id="Baseline-L" style="fill:none;stroke:#27AAE1;opacity:1;stroke-width:0.5;" x1="263" x2="3036" y1="1556" y2="1556"/>
  <line id="Capline-L" style="fill:none;stroke:#27AAE1;opacity:1;stroke-width:0.5;" x1="263" x2="3036" y1="1485.54" y2="1485.54"/>
  <line id="left-margin-Regular-M" style="fill:none;stroke:#00AEEF;stroke-width:0.5;opacity:1.0;" x1="1392.45" x2="1392.45" y1="1030.79" y2="1150.12"/>
  <line id="right-margin-Regular-M" style="fill:none;stroke:#00AEEF;stroke-width:0.5;opacity:1.0;" x1="1507.24" x2="1507.24" y1="1030.79" y2="1150.12"/>
 </g>
 <g id="Symbols">
  <g id="Black-L" transform="matrix(1 0 0 1 2855.72 1556)">
   <path d="M39.8559 26.4225L115.512 26.4225Q126.881 26.4225 133.083 20.23Q139.284 14.0375 139.284 2.71277L139.284-73.0901Q139.284-84.4148 133.083-90.6066Q126.881-96.7985 115.512-96.7985L39.8559-96.7985Q28.5079-96.7985 22.2959-90.6073Q16.084-84.4161 16.084-73.0901L16.084 2.71277Q16.084 14.0401 22.2959 20.2313Q28.5079 26.4225 39.8559 26.4225ZM42.5866 6.42133Q39.3787 6.42133 37.7216 4.87256Q36.0645 3.3238 36.0645-0.121591L36.0645-70.2544Q36.0645-73.7375 37.7216-75.2674Q39.3787-76.7973 42.5866-76.7973L112.782-76.7973Q116.045-76.7973 117.675-75.2674Q119.304-73.7375 119.304-70.2544L119.304-0.121591Q119.304 3.3238 117.675 4.87256Q116.045 6.42133 112.782 6.42133ZM114.818-35.2503Q114.818-38.8002 112.167-41.2755L96.8242-55.9162Q95.7187-57.0411 94.531-57.4691Q93.3433-57.8972 92.1109-57.8972Q89.5538-57.8972 87.9368-56.1816Q86.3197-54.4659 86.3197-51.7129Q86.3197-48.3564 88.8849-46.862L90.1861-45.6619L95.6325-41.7762L84.6189-42.4885L70.7701-42.4885L59.7358-41.7762L65.1822-45.6619L66.4821-46.862Q69.0486-48.3564 69.0486-51.7129Q69.0486-54.4659 67.4607-56.1816Q65.8729-57.8972 63.2574-57.8972Q62.025-57.8972 60.8665-57.4691Q59.708-57.0411 58.5441-55.9162L43.2013-41.2755Q40.5508-38.8002 40.5508-35.2503Q40.5508-31.7418 43.2013-29.2457L58.5441-14.5844Q59.708-13.4595 60.8665-13.0417Q62.025-12.624 63.2574-12.624Q65.8729-12.624 67.4607-14.3293Q69.0486-16.0346 69.0486-18.7876Q69.0486-22.1611 66.4821-23.6385L65.1822-24.8593L59.7578-28.7243L70.7701-28.012L84.6189-28.012L95.6118-28.7243L90.1861-24.8593L88.8849-23.6385Q86.3197-22.1611 86.3197-18.7876Q86.3197-16.0346 87.9368-14.3293Q89.5538-12.624 92.1109-12.624Q93.3433-12.624 94.531-13.0417Q95.7187-13.4595 96.8242-14.5844L112.167-29.2457Q114.818-31.7418 114.818-35.2503Z"/>
  </g>
  <g id="Heavy-L" transform="matrix(1 0 0 1 2559.92 1556)">
   <path d="M38.8328 25.5158L114.704 25.5158Q125.682 25.5158 131.567 19.6396Q137.452 13.7633 137.452 2.85629L137.452-73.2288Q137.452-84.1358 131.567-90.0091Q125.682-95.8823 114.704-95.8823L38.8328-95.8823Q27.8839-95.8823 21.984-90.0121Q16.084-84.1419 16.084-73.2288L16.084 2.85629Q16.084 13.7754 21.984 19.6456Q27.8839 25.5158 38.8328 25.5158ZM40.957 7.98818Q37.3499 7.98818 35.4659 6.20086Q33.5818 4.41354 33.5818 0.583243L33.5818-70.9497Q33.5818-74.7949 35.4659-76.5748Q37.3499-78.3547 40.957-78.3547L112.579-78.3547Q116.219-78.3547 118.087-76.5748Q119.954-74.7949 119.954-70.9497L119.954 0.583243Q119.954 4.41354 118.087 6.20086Q116.219 7.98818 112.579 7.98818ZM114.277-35.246Q114.277-38.3796 111.855-40.6682L95.8207-56.1606Q94.8445-57.1605 93.7523-57.5698Q92.6601-57.9791 91.4932-57.9791Q89.1182-57.9791 87.5973-56.3734Q86.0765-54.7677 86.0765-52.229Q86.0765-49.2204 88.3413-47.7825L90.5459-45.6881L96.5175-41.1684L85.0734-41.8113L68.4927-41.8113L57.0188-41.1684L62.9904-45.6881L65.189-47.7825Q67.4598-49.2204 67.4598-52.229Q67.4598-54.7677 65.9613-56.3734Q64.4627-57.9791 62.043-57.9791Q60.8762-57.9791 59.8063-57.5698Q58.7364-57.1605 57.7156-56.1606L41.6817-40.6682Q39.2592-38.3796 39.2592-35.246Q39.2592-32.1719 41.6817-29.8535L57.7156-14.3314Q58.7364-13.3315 59.8063-12.937Q60.8762-12.5426 62.043-12.5426Q64.4627-12.5426 65.9613-14.1334Q67.4598-15.7242 67.4598-18.2629Q67.4598-21.2566 65.189-22.7094L62.9904-24.8336L57.0546-29.3235L68.4927-28.6806L85.0734-28.6806L96.4877-29.3235L90.5459-24.8336L88.3413-22.7094Q86.0765-21.2566 86.0765-18.2629Q86.0765-15.7242 87.5973-14.1334Q89.1182-12.5426 91.4932-12.5426Q92.6601-12.5426 93.7523-12.937Q94.8445-13.3315 95.8207-14.3314L111.855-29.8535Q114.277-32.1719 114.277-35.246Z"/>
  </g>
  <g id="Bold-L" transform="matrix(1 0 0 1 2264.35 1556)">
   <path d="M37.5443 24.3864L113.709 24.3864Q124.174 24.3864 129.672 18.8927Q135.17 13.3991 135.17 3.03698L135.17-73.4013Q135.17-83.7634 129.672-89.2499Q124.174-94.7365 113.709-94.7365L37.5443-94.7365Q27.1168-94.7365 21.6004-89.257Q16.084-83.7776 16.084-73.4013L16.084 3.03698Q16.084 13.4275 21.6004 18.9069Q27.1168 24.3864 37.5443 24.3864ZM38.9901 9.91361Q34.8616 9.91361 32.6907 7.82346Q30.5198 5.73331 30.5198 1.40624L30.5198-71.7564Q30.5198-76.0756 32.6907-78.1697Q34.8616-80.2637 38.9901-80.2637L112.264-80.2637Q116.393-80.2637 118.564-78.1697Q120.734-76.0756 120.734-71.7564L120.734 1.40624Q120.734 5.73331 118.564 7.82346Q116.393 9.91361 112.264 9.91361ZM113.362-35.2469Q113.362-37.8631 111.249-39.8881L94.4076-56.3649Q93.5875-57.2077 92.6265-57.5889Q91.6656-57.97 90.5951-57.97Q88.4754-57.97 87.0996-56.5248Q85.7238-55.0795 85.7238-52.8352Q85.7238-50.2761 87.6209-48.9274L90.9742-45.6915L97.5592-40.3792L85.8322-40.9358L65.4586-40.9358L53.6946-40.3792L60.2796-45.6915L63.6187-48.9274Q65.5301-50.2761 65.5301-52.8352Q65.5301-55.0795 64.1688-56.5248Q62.8076-57.97 60.6587-57.97Q59.5882-57.97 58.6419-57.5889Q57.6956-57.2077 56.8463-56.3649L40.0048-39.8881Q37.8922-37.8631 37.8922-35.2469Q37.8922-32.7048 40.0048-30.6427L56.8463-14.129Q57.6956-13.2861 58.6419-12.9235Q59.5882-12.5609 60.6587-12.5609Q62.8076-12.5609 64.1688-13.9876Q65.5301-15.4144 65.5301-17.6587Q65.5301-20.173 63.6187-21.5665L60.2796-24.8394L53.7458-30.1147L65.4586-29.558L85.8322-29.558L97.5222-30.1147L90.9742-24.8394L87.6209-21.5665Q85.7238-20.173 85.7238-17.6587Q85.7238-15.4144 87.0996-13.9876Q88.4754-12.5609 90.5951-12.5609Q91.6656-12.5609 92.6265-12.9235Q93.5875-13.2861 94.4076-14.129L111.249-30.6427Q113.362-32.7048 113.362-35.2469Z"/>
  </g>
  <g id="Semibold-L" transform="matrix(1 0 0 1 1968.43 1556)">
   <path d="M36.6561 23.6077L113.024 23.6077Q123.134 23.6077 128.365 18.3778Q133.596 13.1479 133.596 3.16154L133.596-73.5202Q133.596-83.5066 128.365-88.7266Q123.134-93.9466 113.024-93.9466L36.6561-93.9466Q26.588-93.9466 21.336-88.7365Q16.084-83.5265 16.084-73.5202L16.084 3.16154Q16.084 13.1877 21.336 18.3977Q26.588 23.6077 36.6561 23.6077ZM37.6342 11.241Q33.1463 11.241 30.7775 8.94207Q28.4088 6.64315 28.4088 1.97361L28.4088-72.3124Q28.4088-76.9586 30.7775-79.2692Q33.1463-81.5798 37.6342-81.5798L112.046-81.5798Q116.513-81.5798 118.892-79.2692Q121.272-76.9586 121.272-72.3124L121.272 1.97361Q121.272 6.64315 118.892 8.94207Q116.513 11.241 112.046 11.241ZM112.731-35.2476Q112.731-37.507 110.831-39.3503L93.4333-56.5058Q92.7209-57.2403 91.8504-57.602Q90.98-57.9637 89.976-57.9637Q88.0323-57.9637 86.7565-56.6291Q85.4806-55.2944 85.4806-53.2531Q85.4806-51.0039 87.1243-49.7166L91.2695-45.6938L98.2774-39.8351L86.3554-40.3323L63.3669-40.3323L51.4029-39.8351L58.4108-45.6938L62.5361-49.7166Q64.1997-51.0039 64.1997-53.2531Q64.1997-55.2944 62.9331-56.6291Q61.6665-57.9637 59.7043-57.9637Q58.7003-57.9637 57.8391-57.602Q56.978-57.2403 56.247-56.5058L38.8488-39.3503Q36.9498-37.507 36.9498-35.2476Q36.9498-33.0722 38.8488-31.1868L56.247-13.9894Q56.978-13.2549 57.8391-12.9142Q58.7003-12.5735 59.7043-12.5735Q61.6665-12.5735 62.9331-13.8871Q64.1997-15.2008 64.1997-17.2421Q64.1997-19.4259 62.5361-20.7786L58.4108-24.8433L51.4648-30.6601L63.3669-30.1629L86.3554-30.1629L98.2354-30.6601L91.2695-24.8433L87.1243-20.7786Q85.4806-19.4259 85.4806-17.2421Q85.4806-15.2008 86.7565-13.8871Q88.0323-12.5735 89.976-12.5735Q90.98-12.5735 91.8504-12.9142Q92.7209-13.2549 93.4333-13.9894L110.831-31.1868Q112.731-33.0722 112.731-35.2476Z"/>
  </g>
  <g id="Medium-L" transform="matrix(1 0 0 1 1672.31 1556)">
   <path d="M35.9826 23.0174L112.505 23.0174Q122.346 23.0174 127.375 17.9874Q132.403 12.9575 132.403 3.25599L132.403-73.6104Q132.403-83.3119 127.375-88.3298Q122.346-93.3476 112.505-93.3476L35.9826-93.3476Q26.187-93.3476 21.1355-88.3419Q16.084-83.3361 16.084-73.6104L16.084 3.25599Q16.084 13.0058 21.1355 18.0116Q26.187 23.0174 35.9826 23.0174ZM36.606 12.2475Q31.8456 12.2475 29.3269 9.79025Q26.8081 7.33303 26.8081 2.40381L26.8081-72.7341Q26.8081-77.628 29.3269-80.1029Q31.8456-82.5777 36.606-82.5777L111.881-82.5777Q116.604-82.5777 119.141-80.1029Q121.679-77.628 121.679-72.7341L121.679 2.40381Q121.679 7.33303 119.141 9.79025Q116.604 12.2475 111.881 12.2475ZM112.252-35.2481Q112.252-37.237 110.515-38.9426L92.6946-56.6126Q92.0638-57.265 91.262-57.612Q90.4602-57.9589 89.5065-57.9589Q87.6964-57.9589 86.4963-56.7082Q85.2963-55.4574 85.2963-53.57Q85.2963-51.5558 86.7478-50.3151L91.4935-45.6956L98.8219-39.4225L86.752-39.8746L61.7809-39.8746L49.6653-39.4225L56.9937-45.6956L61.7153-50.3151Q63.1909-51.5558 63.1909-53.57Q63.1909-55.4574 61.9961-56.7082Q60.8013-57.9589 58.9807-57.9589Q58.027-57.9589 57.2305-57.612Q56.434-57.265 55.7926-56.6126L37.9723-38.9426Q36.2352-37.237 36.2352-35.2481Q36.2352-33.3507 37.9723-31.5994L55.7926-13.8836Q56.434-13.2312 57.2305-12.9071Q58.027-12.583 58.9807-12.583Q60.8013-12.583 61.9961-13.8109Q63.1909-15.0388 63.1909-16.9263Q63.1909-18.8594 61.7153-20.1811L56.9937-24.8464L49.7352-31.0737L61.7809-30.6216L86.752-30.6216L98.7762-31.0737L91.4935-24.8464L86.7478-20.1811Q85.2963-18.8594 85.2963-16.9263Q85.2963-15.0388 86.4963-13.8109Q87.6964-12.583 89.5065-12.583Q90.4602-12.583 91.262-12.9071Q92.0638-13.2312 92.6946-13.8836L110.515-31.5994Q112.252-33.3507 112.252-35.2481Z"/>
  </g>
  <g id="Regular-L" transform="matrix(1 0 0 1 1376.38 1556)">
   <path d="M35.1041 22.2473L111.827 22.2473Q121.318 22.2473 126.082 17.4782Q130.847 12.7092 130.847 3.37919L130.847-73.728Q130.847-83.058 126.082-87.8122Q121.318-92.5664 111.827-92.5664L35.1041-92.5664Q25.664-92.5664 20.874-87.8271Q16.084-83.0877 16.084-73.728L16.084 3.37919Q16.084 12.7686 20.874 17.508Q25.664 22.2473 35.1041 22.2473ZM35.265 13.5603Q30.1491 13.5603 27.4347 10.8966Q24.7203 8.23287 24.7203 2.96494L24.7203-73.284Q24.7203-78.5013 27.4347-81.1903Q30.1491-83.8794 35.265-83.8794L111.666-83.8794Q116.722-83.8794 119.467-81.1903Q122.211-78.5013 122.211-73.284L122.211 2.96494Q122.211 8.23287 119.467 10.8966Q116.722 13.5603 111.666 13.5603ZM111.628-35.2488Q111.628-36.8848 110.102-38.4107L91.7311-56.7519Q91.2067-57.2972 90.4944-57.625Q89.7821-57.9527 88.8942-57.9527Q87.2581-57.9527 86.157-56.8114Q85.0558-55.67 85.0558-53.9833Q85.0558-52.2756 86.2567-51.0957L91.7855-45.6979L99.5322-38.8844L87.2694-39.2777L59.7122-39.2777L47.3988-38.8844L55.1455-45.6979L60.6446-51.0957Q61.8752-52.2756 61.8752-53.9833Q61.8752-55.67 60.774-56.8114Q59.6728-57.9527 58.0368-57.9527Q57.1488-57.9527 56.4366-57.625Q55.7243-57.2972 55.1999-56.7519L36.829-38.4107Q35.3031-36.8848 35.3031-35.2488Q35.3031-33.7141 36.829-32.1375L55.1999-13.7456Q55.7243-13.2003 56.4366-12.8979Q57.1488-12.5955 58.0368-12.5955Q59.6728-12.5955 60.774-13.7115Q61.8752-14.8275 61.8752-16.5143Q61.8752-18.1206 60.6446-19.4018L55.1455-24.8503L47.4792-31.6131L59.7122-31.2198L87.2694-31.2198L99.4815-31.6131L91.7855-24.8503L86.2567-19.4018Q85.0558-18.1206 85.0558-16.5143Q85.0558-14.8275 86.157-13.7115Q87.2581-12.5955 88.8942-12.5955Q89.7821-12.5955 90.4944-12.8979Q91.2067-13.2003 91.7311-13.7456L110.102-32.1375Q111.628-33.7141 111.628-35.2488Z"/>
  </g>
  <g id="Light-L" transform="matrix(1 0 0 1 1080.5 1556)">
   <path d="M34.078 21.4264L111.191 21.4264Q120.127 21.4264 124.656 16.8626Q129.185 12.2987 129.185 3.52284L129.185-73.8511Q129.185-82.627 124.656-87.1657Q120.127-91.7045 111.191-91.7045L34.078-91.7045Q25.1715-91.7045 20.6277-87.1909Q16.084-82.6773 16.084-73.8511L16.084 3.52284Q16.084 12.3992 20.6277 16.9128Q25.1715 21.4264 34.078 21.4264ZM34.2389 14.7916Q28.5894 14.7916 25.639 11.8714Q22.6887 8.95114 22.6887 3.21121L22.6887-73.4893Q22.6887-79.199 25.639-82.1343Q28.5894-85.0696 34.2389-85.0696L111.03-85.0696Q116.579-85.0696 119.579-82.1343Q122.58-79.199 122.58-73.4893L122.58 3.21121Q122.58 8.95114 119.579 11.8714Q116.579 14.7916 111.03 14.7916ZM109.412-35.2898Q109.412-36.5565 108.276-37.6924L89.6584-56.2593Q89.216-56.6816 88.6782-56.958Q88.1404-57.2345 87.4166-57.2345Q86.1499-57.2345 85.3156-56.3599Q84.4812-55.4853 84.4812-54.1885Q84.4812-52.9118 85.4563-51.9166L91.9702-45.5132L99.9016-38.1046L89.0548-38.4363L56.244-38.4363L45.3671-38.1046L53.2985-45.5132L59.7621-51.9166Q60.7875-52.9118 60.7875-54.1885Q60.7875-55.4853 59.9531-56.3599Q59.1187-57.2345 57.8521-57.2345Q57.1283-57.2345 56.5905-56.958Q56.0527-56.6816 55.6103-56.2593L36.9931-37.6924Q35.8572-36.5565 35.8572-35.2898Q35.8572-34.0835 36.9931-32.9173L55.6103-14.3203Q56.0527-13.898 56.5905-13.6367Q57.1283-13.3753 57.8521-13.3753Q59.1187-13.3753 59.9531-14.2348Q60.7875-15.0943 60.7875-16.3911Q60.7875-17.6075 59.7621-18.6631L53.2985-25.0966L45.4475-32.475L56.244-32.1433L89.0548-32.1433L99.8715-32.475L91.9702-25.0966L85.4563-18.6631Q84.4812-17.6075 84.4812-16.3911Q84.4812-15.0943 85.3156-14.2348Q86.1499-13.3753 87.4166-13.3753Q88.1404-13.3753 88.6782-13.6367Q89.216-13.898 89.6584-14.3203L108.276-32.9173Q109.412-34.0835 109.412-35.2898Z"/>
  </g>
  <g id="Thin-L" transform="matrix(1 0 0 1 784.884 1556)">
   <path d="M32.7209 20.3407L110.349 20.3407Q118.553 20.3407 122.77 16.0483Q126.986 11.7559 126.986 3.71284L126.986-74.014Q126.986-82.057 122.77-86.3108Q118.553-90.5645 110.349-90.5645L32.7209-90.5645Q24.5201-90.5645 20.302-86.3495Q16.084-82.1344 16.084-74.014L16.084 3.71284Q16.084 11.9107 20.302 16.1257Q24.5201 20.3407 32.7209 20.3407ZM32.8818 16.4201Q26.5266 16.4201 23.2641 13.1606Q20.0016 9.9011 20.0016 3.53691L20.0016-73.7607Q20.0016-80.1218 23.2641-83.3829Q26.5266-86.6439 32.8818-86.6439L110.188-86.6439Q116.389-86.6439 119.729-83.3829Q123.069-80.1218 123.069-73.7607L123.069 3.53691Q123.069 9.9011 119.729 13.1606Q116.389 16.4201 110.188 16.4201ZM106.48-35.3441Q106.48-36.1222 105.86-36.7425L86.917-55.6079Q86.5833-55.8673 86.2761-56.0759Q85.969-56.2845 85.4624-56.2845Q84.6843-56.2845 84.2027-55.7627Q83.7212-55.241 83.7212-54.4599Q83.7212-53.7532 84.3978-53.0022L92.2145-45.2689L100.39-37.0732L91.4162-37.3235L51.657-37.3235L42.68-37.0732L50.8557-45.2689L58.595-53.0022Q59.349-53.7532 59.349-54.4599Q59.349-55.241 58.8674-55.7627Q58.3859-56.2845 57.6078-56.2845Q57.1012-56.2845 56.794-56.0759Q56.4869-55.8673 56.1532-55.6079L37.2103-36.7425Q36.59-36.1222 36.59-35.3441Q36.59-34.572 37.2103-33.9487L56.1532-15.0802Q56.4869-14.8209 56.794-14.6138Q57.1012-14.4067 57.6078-14.4067Q58.3859-14.4067 58.8674-14.9269Q59.349-15.4472 59.349-16.2283Q59.349-16.929 58.595-17.6859L50.8557-25.4223L42.7604-33.615L51.657-33.3647L91.4162-33.3647L100.387-33.615L92.2145-25.4223L84.3978-17.6859Q83.7212-16.929 83.7212-16.2283Q83.7212-15.4472 84.2027-14.9269Q84.6843-14.4067 85.4624-14.4067Q85.969-14.4067 86.2761-14.6138Q86.5833-14.8209 86.917-15.0802L105.86-33.9487Q106.48-34.572 106.48-35.3441Z"/>
  </g>
  <g id="Ultralight-L" transform="matrix(1 0 0 1 488.735 1556)">
   <path d="M32.0258 19.7847L109.918 19.7847Q117.747 19.7847 121.803 15.6313Q125.86 11.4778 125.86 3.81015L125.86-74.0974Q125.86-81.7651 121.803-85.8729Q117.747-89.9806 109.918-89.9806L32.0258-89.9806Q24.1864-89.9806 20.1352-85.9185Q16.084-81.8564 16.084-74.0974L16.084 3.81015Q16.084 11.6604 20.1352 15.7226Q24.1864 19.7847 32.0258 19.7847ZM32.1867 17.2542Q25.4701 17.2542 22.0477 13.8209Q18.6253 10.3877 18.6253 3.70373L18.6253-73.8997Q18.6253-80.5945 22.0477-84.0223Q25.4701-87.4502 32.1867-87.4502L109.757-87.4502Q116.291-87.4502 119.805-84.0223Q123.319-80.5945 123.319-73.8997L123.319 3.70373Q123.319 10.3877 119.805 13.8209Q116.291 17.2542 109.757 17.2542ZM104.979-35.3719Q104.979-35.8997 104.623-36.2559L85.5129-55.2743Q85.2348-55.4502 85.0458-55.6241Q84.8569-55.7979 84.4614-55.7979Q83.9336-55.7979 83.6328-55.4569Q83.332-55.1159 83.332-54.5989Q83.332-54.1841 83.8556-53.5583L92.3396-45.1438L100.64-36.5449L92.6257-36.7535L49.3076-36.7535L41.3037-36.5449L49.6045-45.1438L57.9972-53.5583Q58.6122-54.1841 58.6122-54.5989Q58.6122-55.1159 58.3114-55.4569Q58.0106-55.7979 57.4827-55.7979Q57.0873-55.7979 56.8983-55.6241Q56.7094-55.4502 56.4312-55.2743L37.3215-36.2559Q36.9654-35.8997 36.9654-35.3719Q36.9654-34.8223 37.3215-34.477L56.4312-15.4695Q56.7094-15.2935 56.8983-15.1143Q57.0873-14.935 57.4827-14.935Q58.0106-14.935 58.3114-15.2814Q58.6122-15.6279 58.6122-16.1449Q58.6122-16.5814 57.9972-17.1855L49.6045-25.5891L41.3841-34.1989L49.3076-33.9903L92.6257-33.9903L100.651-34.1989L92.3396-25.5891L83.8556-17.1855Q83.332-16.5814 83.332-16.1449Q83.332-15.6279 83.6328-15.2814Q83.9336-14.935 84.4614-14.935Q84.8569-14.935 85.0458-15.1143Q85.2348-15.2935 85.5129-15.4695L104.623-34.477Q104.979-34.8223 104.979-35.3719Z"/>
  </g>
  <g id="Black-M" transform="matrix(1 0 0 1 2872.54 1126)">
   <path d="M31.6183 13.203L90.1012 13.203Q99.1693 13.203 104.214 8.16134Q109.259 3.11973 109.259-5.93791L109.259-64.4591Q109.259-73.5167 104.214-78.5585Q99.1693-83.6003 90.1012-83.6003L31.6183-83.6003Q22.5558-83.6003 17.5084-78.5583Q12.4609-73.5164 12.4609-64.4591L12.4609-5.93791Q12.4609 3.11912 17.5084 8.16104Q22.5558 13.203 31.6183 13.203ZM34.2552-4.14063Q32.0406-4.14063 30.9198-5.17025Q29.799-6.19988 29.799-8.60232L29.799-61.795Q29.799-64.249 30.9198-65.2528Q32.0406-66.2567 34.2552-66.2567L87.4644-66.2567Q89.7367-66.2567 90.8286-65.2528Q91.9206-64.249 91.9206-61.795L91.9206-8.60232Q91.9206-6.19988 90.8286-5.17025Q89.7367-4.14063 87.4644-4.14063ZM89.1182-35.2548Q89.1182-38.3128 86.9215-40.3382L75.5953-50.9795Q74.6389-51.9418 73.6603-52.2826Q72.6816-52.6234 71.6927-52.6234Q69.6054-52.6234 68.306-51.2359Q67.0067-49.8483 67.0067-47.5841Q67.0067-44.7431 69.2216-43.5618L69.5868-43.2644L73.38-40.7182L65.4091-41.3213L56.316-41.3213L48.3396-40.7182L52.1328-43.2644L52.4983-43.5618Q54.7129-44.7431 54.7129-47.5841Q54.7129-49.8483 53.4421-51.2359Q52.1713-52.6234 50.0268-52.6234Q49.0379-52.6234 48.0879-52.2826Q47.1378-51.9418 46.1243-50.9795L34.7981-40.3382Q32.6014-38.3128 32.6014-35.2548Q32.6014-32.2078 34.7981-30.1769L46.1243-19.5301Q47.1378-18.5679 48.0879-18.2298Q49.0379-17.8917 50.0268-17.8917Q52.1713-17.8917 53.4421-19.2765Q54.7129-20.6614 54.7129-22.9256Q54.7129-25.8126 52.4983-26.9478L52.1328-27.2507L48.3448-29.7915L56.316-29.1884L65.4091-29.1884L73.3745-29.7915L69.5868-27.2507L69.2216-26.9478Q67.0067-25.8126 67.0067-22.9256Q67.0067-20.6614 68.306-19.2765Q69.6054-17.8917 71.6927-17.8917Q72.6816-17.8917 73.6603-18.2298Q74.6389-18.5679 75.5953-19.5301L86.9215-30.1769Q89.1182-32.2078 89.1182-35.2548Z"/>
  </g>
  <g id="Heavy-M" transform="matrix(1 0 0 1 2576.65 1126)">
   <path d="M30.7128 12.3923L89.3692 12.3923Q98.107 12.3923 102.864 7.64094Q107.621 2.88957 107.621-5.81086L107.621-64.5834Q107.621-73.2838 102.864-78.0339Q98.107-82.7841 89.3692-82.7841L30.7128-82.7841Q21.9913-82.7841 17.2261-78.0352Q12.4609-73.2862 12.4609-64.5834L12.4609-5.81086Q12.4609 2.89446 17.2261 7.64338Q21.9913 12.3923 30.7128 12.3923ZM32.7568-2.72252Q30.2012-2.72252 28.8804-3.96168Q27.5595-5.20084 27.5595-7.93601L27.5595-62.4558Q27.5595-65.2183 28.8804-66.4438Q30.2012-67.6693 32.7568-67.6693L87.3253-67.6693Q89.9196-67.6693 91.221-66.4438Q92.5225-65.2183 92.5225-62.4558L92.5225-7.93601Q92.5225-5.20084 91.221-3.96168Q89.9196-2.72252 87.3253-2.72252ZM88.7943-35.2469Q88.7943-37.932 86.7846-39.8108L74.8056-51.2639Q73.968-52.1153 73.0666-52.4425Q72.1653-52.7698 71.2253-52.7698Q69.2817-52.7698 68.0518-51.4651Q66.8219-50.1604 66.8219-48.0697Q66.8219-45.5291 68.764-44.386L69.9214-43.3071L74.211-40.196L65.6887-40.737L54.4096-40.737L45.871-40.196L50.1606-43.3071L51.3156-44.386Q53.2601-45.5291 53.2601-48.0697Q53.2601-50.1604 52.052-51.4651Q50.8439-52.7698 48.8567-52.7698Q47.9168-52.7698 47.0372-52.4425Q46.1577-52.1153 45.2764-51.2639L33.2974-39.8108Q31.2878-37.932 31.2878-35.2469Q31.2878-32.5942 33.2974-30.6991L45.2764-19.2298Q46.1577-18.3784 47.0372-18.0593Q47.9168-17.7402 48.8567-17.7402Q50.8439-17.7402 52.052-19.0367Q53.2601-20.3333 53.2601-22.424Q53.2601-24.9758 51.3156-26.1078L50.1606-27.2029L45.8897-30.2977L54.4096-29.7567L65.6887-29.7567L74.1948-30.2977L69.9214-27.2029L68.764-26.1078Q66.8219-24.9758 66.8219-22.424Q66.8219-20.3333 68.0518-19.0367Q69.2817-17.7402 71.2253-17.7402Q72.1653-17.7402 73.0666-18.0593Q73.968-18.3784 74.8056-19.2298L86.7846-30.6991Q88.7943-32.5942 88.7943-35.2469Z"/>
  </g>
  <g id="Bold-M" transform="matrix(1 0 0 1 2280.85 1126)">
   <path d="M29.6999 11.4855L88.5504 11.4855Q96.9187 11.4855 101.354 7.05878Q105.789 2.6321 105.789-5.66875L105.789-64.7224Q105.789-73.0233 101.354-77.4472Q96.9187-81.8711 88.5504-81.8711L29.6999-81.8711Q21.3597-81.8711 16.9103-77.4499Q12.4609-73.0288 12.4609-64.7224L12.4609-5.66875Q12.4609 2.64314 16.9103 7.0643Q21.3597 11.4855 29.6999 11.4855ZM31.0806-1.13616Q28.1436-1.13616 26.5989-2.60972Q25.0543-4.08328 25.0543-7.19066L25.0543-63.195Q25.0543-66.3027 26.5989-67.7761Q28.1436-69.2495 31.0806-69.2495L87.1696-69.2495Q90.1241-69.2495 91.66-67.7761Q93.1959-66.3027 93.1959-63.195L93.1959-7.19066Q93.1959-4.08328 91.66-2.60972Q90.1241-1.13616 87.1696-1.13616ZM88.432-35.2379Q88.432-37.5059 86.6315-39.2208L73.9222-51.582Q73.2174-52.3095 72.4025-52.6214Q71.5876-52.9334 70.7024-52.9334Q68.9197-52.9334 67.7675-51.7215Q66.6152-50.5096 66.6152-48.613Q66.6152-46.4082 68.2521-45.3079L70.2958-43.3547L75.1406-39.6118L66.0015-40.0833L52.277-40.0833L43.1096-39.6118L47.9544-43.3547L49.9925-45.3079Q51.635-46.4082 51.635-48.613Q51.635-50.5096 50.497-51.7215Q49.3591-52.9334 47.5478-52.9334Q46.6626-52.9334 45.862-52.6214Q45.0613-52.3095 44.328-51.582L31.6187-39.2208Q29.8182-37.5059 29.8182-35.2379Q29.8182-33.0264 31.6187-31.2833L44.328-18.8939Q45.0613-18.1664 45.862-17.8685Q46.6626-17.5706 47.5478-17.5706Q49.3591-17.5706 50.497-18.7685Q51.635-19.9663 51.635-21.8629Q51.635-24.0397 49.9925-25.168L47.9544-27.1494L43.1433-30.864L52.277-30.3926L66.0015-30.3926L75.1124-30.864L70.2958-27.1494L68.2521-25.168Q66.6152-24.0397 66.6152-21.8629Q66.6152-19.9663 67.7675-18.7685Q68.9197-17.5706 70.7024-17.5706Q71.5876-17.5706 72.4025-17.8685Q73.2174-18.1664 73.9222-18.8939L86.6315-31.2833Q88.432-33.0264 88.432-35.2379Z"/>
  </g>
  <g id="Semibold-M" transform="matrix(1 0 0 1 1984.77 1126)">
   <path d="M29.0015 10.8603L87.9858 10.8603Q96.0995 10.8603 100.313 6.65745Q104.526 2.45461 104.526-5.57077L104.526-64.8183Q104.526-72.8436 100.313-77.0427Q96.0995-81.2417 87.9858-81.2417L29.0015-81.2417Q20.9244-81.2417 16.6926-77.0465Q12.4609-72.8513 12.4609-64.8183L12.4609-5.57077Q12.4609 2.46989 16.6926 6.66509Q20.9244 10.8603 29.0015 10.8603ZM29.925-0.0425279Q26.725-0.0425279 25.0262-1.67768Q23.3273-3.31284 23.3273-6.67681L23.3273-63.7046Q23.3273-67.0502 25.0262-68.6945Q26.725-70.3389 29.925-70.3389L87.0623-70.3389Q90.2652-70.3389 91.9626-68.6945Q93.6601-67.0502 93.6601-63.7046L93.6601-6.67681Q93.6601-3.31284 91.9626-1.67768Q90.2652-0.0425279 87.0623-0.0425279ZM88.1822-35.2318Q88.1822-37.2122 86.5259-38.8141L73.3132-51.8013Q72.7-52.4433 71.9447-52.7448Q71.1894-53.0463 70.3419-53.0463Q68.6701-53.0463 67.5714-51.8983Q66.4727-50.7503 66.4727-48.9875Q66.4727-47.0143 67.8993-45.9434L70.5539-43.3876L75.7815-39.2091L66.2171-39.6327L50.8068-39.6327L41.2058-39.2091L46.4335-43.3876L49.0804-45.9434Q50.5146-47.0143 50.5146-48.9875Q50.5146-50.7503 49.425-51.8983Q48.3354-53.0463 46.6454-53.0463Q45.798-53.0463 45.0517-52.7448Q44.3055-52.4433 43.6742-51.8013L30.4615-38.8141Q28.8051-37.2122 28.8051-35.2318Q28.8051-33.3243 30.4615-31.686L43.6742-18.6623Q44.3055-18.0203 45.0517-17.737Q45.798-17.4538 46.6454-17.4538Q48.3354-17.4538 49.425-18.5835Q50.5146-19.7133 50.5146-21.4761Q50.5146-23.3944 49.0804-24.5201L46.4335-27.1124L41.25-31.2544L50.8068-30.8309L66.2171-30.8309L75.745-31.2544L70.5539-27.1124L67.8993-24.5201Q66.4727-23.3944 66.4727-21.4761Q66.4727-19.7133 67.5714-18.5835Q68.6701-17.4538 70.3419-17.4538Q71.1894-17.4538 71.9447-17.737Q72.7-18.0203 73.3132-18.6623L86.5259-31.686Q88.1822-33.3243 88.1822-35.2318Z"/>
  </g>
  <g id="Medium-M" transform="matrix(1 0 0 1 1688.54 1126)">
   <path d="M28.472 10.3863L87.5578 10.3863Q95.4783 10.3863 99.5236 6.35315Q103.569 2.32003 103.569-5.49648L103.569-64.8909Q103.569-72.7075 99.5236-76.736Q95.4783-80.7644 87.5578-80.7644L28.472-80.7644Q20.5942-80.7644 16.5276-76.7406Q12.4609-72.7167 12.4609-64.8909L12.4609-5.49648Q12.4609 2.33852 16.5276 6.36239Q20.5942 10.3863 28.472 10.3863ZM29.0488 0.786706Q25.6495 0.786706 23.8336-0.970977Q22.0177-2.72866 22.0177-6.28719L22.0177-64.091Q22.0177-67.617 23.8336-69.391Q25.6495-71.1649 29.0488-71.1649L86.981-71.1649Q90.3721-71.1649 92.1921-69.391Q94.0121-67.617 94.0121-64.091L94.0121-6.28719Q94.0121-2.72866 92.1921-0.970977Q90.3721 0.786706 86.981 0.786706ZM87.9928-35.2271Q87.9928-36.9895 86.4458-38.5057L72.8514-51.9676Q72.3077-52.5448 71.5976-52.8383Q70.8874-53.1318 70.0686-53.1318Q68.4809-53.1318 67.4228-52.0323Q66.3647-50.9328 66.3647-49.2715Q66.3647-47.4739 67.6317-46.4253L70.7496-43.4125L76.2675-38.9038L66.3806-39.291L49.692-39.291L39.7624-38.9038L45.2802-43.4125L48.3888-46.4253Q49.6651-47.4739 49.6651-49.2715Q49.6651-50.9328 48.6122-52.0323Q47.5592-53.1318 45.9612-53.1318Q45.1424-53.1318 44.4374-52.8383Q43.7324-52.5448 43.1784-51.9676L29.584-38.5057Q28.037-36.9895 28.037-35.2271Q28.037-33.5503 29.584-31.9913L43.1784-18.4867Q43.7324-17.9095 44.4374-17.6373Q45.1424-17.3652 45.9612-17.3652Q47.5592-17.3652 48.6122-18.4433Q49.6651-19.5214 49.6651-21.1828Q49.6651-22.9051 48.3888-24.0289L45.2802-27.0845L39.8144-31.5504L49.692-31.1633L66.3806-31.1633L76.2247-31.5504L70.7496-27.0845L67.6317-24.0289Q66.3647-22.9051 66.3647-21.1828Q66.3647-19.5214 67.4228-18.4433Q68.4809-17.3652 70.0686-17.3652Q70.8874-17.3652 71.5976-17.6373Q72.3077-17.9095 72.8514-18.4867L86.4458-31.9913Q87.9928-33.5503 87.9928-35.2271Z"/>
  </g>
  <g id="Regular-M" transform="matrix(1 0 0 1 1392.45 1126)">
   <path d="M27.7814 9.76797L86.9995 9.76797Q94.6681 9.76797 98.494 5.95622Q102.32 2.14448 102.32-5.39959L102.32-64.9857Q102.32-72.5298 98.494-76.3359Q94.6681-80.142 86.9995-80.142L27.7814-80.142Q20.1637-80.142 16.3123-76.3416Q12.4609-72.5412 12.4609-64.9857L12.4609-5.39959Q12.4609 2.16717 16.3123 5.96757Q20.1637 9.76797 27.7814 9.76797ZM27.906 1.86832Q24.2465 1.86832 22.2781-0.0491846Q20.3096-1.96668 20.3096-5.77899L20.3096-64.595Q20.3096-68.3563 22.2781-70.2993Q24.2465-72.2423 27.906-72.2423L86.8749-72.2423Q90.5116-72.2423 92.4914-70.2993Q94.4712-68.3563 94.4712-64.595L94.4712-5.77899Q94.4712-1.96668 92.4914-0.0491846Q90.5116 1.86832 86.8749 1.86832ZM87.7458-35.221Q87.7458-36.699 86.3414-38.1034L72.249-52.1845Q71.796-52.6771 71.1448-52.9603Q70.4935-53.2434 69.712-53.2434Q68.234-53.2434 67.2289-52.2071Q66.2237-51.1708 66.2237-49.6419Q66.2237-48.0733 67.2827-47.0539L71.0048-43.4451L76.9013-38.5055L66.5939-38.8453L48.2379-38.8453L37.8796-38.5055L43.776-43.4451L47.4868-47.0539Q48.5571-48.0733 48.5571-49.6419Q48.5571-51.1708 47.552-52.2071Q46.5468-53.2434 45.0688-53.2434Q44.2873-53.2434 43.6361-52.9603Q42.9848-52.6771 42.5318-52.1845L28.4394-38.1034Q27.035-36.699 27.035-35.221Q27.035-33.8449 28.4394-32.3896L42.5318-18.2576Q42.9848-17.7649 43.6361-17.5073Q44.2873-17.2496 45.0688-17.2496Q46.5468-17.2496 47.552-18.2604Q48.5571-19.2712 48.5571-20.8002Q48.5571-22.2669 47.4868-23.3882L43.776-27.048L37.9419-31.9366L48.2379-31.5968L66.5939-31.5968L76.8503-31.9366L71.0048-27.048L67.2827-23.3882Q66.2237-22.2669 66.2237-20.8002Q66.2237-19.2712 67.2289-18.2604Q68.234-17.2496 69.712-17.2496Q70.4935-17.2496 71.1448-17.5073Q71.796-17.7649 72.249-18.2576L86.3414-32.3896Q87.7458-33.8449 87.7458-35.221Z"/>
  </g>
  <g id="Light-M" transform="matrix(1 0 0 1 1096.49 1126)">
   <path d="M26.8614 9.03201L86.4291 9.03201Q93.601 9.03201 97.2153 5.40425Q100.83 1.7765 100.83-5.27079L100.83-65.0961Q100.83-72.1434 97.2153-75.7563Q93.601-79.3692 86.4291-79.3692L26.8614-79.3692Q19.7221-79.3692 16.0915-75.7712Q12.4609-72.1732 12.4609-65.0961L12.4609-5.27079Q12.4609 1.83599 16.0915 5.434Q19.7221 9.03201 26.8614 9.03201ZM26.986 2.97226Q22.8482 2.97226 20.6682 0.824768Q18.4881-1.32272 18.4881-5.55821L18.4881-64.779Q18.4881-68.9819 20.6682-71.1457Q22.8482-73.3094 26.986-73.3094L86.3045-73.3094Q90.3828-73.3094 92.5926-71.1457Q94.8024-68.9819 94.8024-64.779L94.8024-5.55821Q94.8024-1.32272 92.5926 0.824768Q90.3828 2.97226 86.3045 2.97226ZM85.7587-35.2578Q85.7587-36.4047 84.7039-37.4594L70.3907-51.7429Q70.0113-52.1252 69.5165-52.3623Q69.0216-52.5995 68.3873-52.5995Q67.2405-52.5995 66.4745-51.8024Q65.7086-51.0053 65.7086-49.8259Q65.7086-48.6437 66.5652-47.7899L71.1704-43.2795L77.2325-37.8063L68.1946-38.0909L45.1285-38.0909L36.058-37.8063L42.1201-43.2795L46.6956-47.7899Q47.582-48.6437 47.582-49.8259Q47.582-51.0053 46.816-51.8024Q46.05-52.5995 44.9032-52.5995Q44.2689-52.5995 43.7741-52.3623Q43.2792-52.1252 42.8998-51.7429L28.5866-37.4594Q27.5318-36.4047 27.5318-35.2578Q27.5318-34.1761 28.5866-33.0888L42.8998-18.7728Q43.2792-18.3905 43.7741-18.1696Q44.2689-17.9487 44.9032-17.9487Q46.05-17.9487 46.816-18.7296Q47.582-19.5104 47.582-20.6898Q47.582-21.8069 46.6956-22.7258L42.1201-27.2687L36.1204-32.7093L45.1285-32.4247L68.1946-32.4247L77.1999-32.7093L71.1704-27.2687L66.5652-22.7258Q65.7086-21.8069 65.7086-20.6898Q65.7086-19.5104 66.4745-18.7296Q67.2405-17.9487 68.3873-17.9487Q69.0216-17.9487 69.5165-18.1696Q70.0113-18.3905 70.3907-18.7728L84.7039-33.0888Q85.7587-34.1761 85.7587-35.2578Z"/>
  </g>
  <g id="Thin-M" transform="matrix(1 0 0 1 800.76 1126)">
   <path d="M25.6447 8.05864L85.6747 8.05864Q92.1896 8.05864 95.5241 4.67423Q98.8585 1.28982 98.8585-5.10045L98.8585-65.2421Q98.8585-71.6324 95.5241-74.9898Q92.1896-78.3472 85.6747-78.3472L25.6447-78.3472Q19.1381-78.3472 15.7995-75.0168Q12.4609-71.6865 12.4609-65.2421L12.4609-5.10045Q12.4609 1.39797 15.7995 4.72831Q19.1381 8.05864 25.6447 8.05864ZM25.7693 4.43231Q20.9988 4.43231 18.5389 1.98064Q16.079-0.471023 16.079-5.2662L16.079-65.0223Q16.079-69.8093 18.5389-72.2651Q20.9988-74.7208 25.7693-74.7208L85.5501-74.7208Q90.2125-74.7208 92.7264-72.2651Q95.2404-69.8093 95.2404-65.0223L95.2404-5.2662Q95.2404-0.471023 92.7264 1.98064Q90.2125 4.43231 85.5501 4.43231ZM83.1306-35.3065Q83.1306-36.0153 82.5382-36.6077L67.933-51.1589Q67.6509-51.3951 67.3629-51.5715Q67.0749-51.7478 66.6353-51.7478Q65.9264-51.7478 65.4768-51.267Q65.0272-50.7862 65.0272-50.0692Q65.0272-49.398 65.6161-48.7632L71.3894-43.0605L77.6705-36.8816L70.3117-37.0932L41.016-37.0932L33.649-36.8816L39.93-43.0605L45.6492-48.7632Q46.2922-49.398 46.2922-50.0692Q46.2922-50.7862 45.8426-51.267Q45.393-51.7478 44.6842-51.7478Q44.2446-51.7478 43.9566-51.5715Q43.6686-51.3951 43.3865-51.1589L28.7813-36.6077Q28.1888-36.0153 28.1888-35.3065Q28.1888-34.6141 28.7813-34.0135L43.3865-19.4541Q43.6686-19.2179 43.9566-19.0457Q44.2446-18.8734 44.6842-18.8734Q45.393-18.8734 45.8426-19.3501Q46.2922-19.8268 46.2922-20.5438Q46.2922-21.1985 45.6492-21.8498L39.93-27.5608L33.7113-33.7314L41.016-33.5198L70.3117-33.5198L77.6623-33.7314L71.3894-27.5608L65.6161-21.8498Q65.0272-21.1985 65.0272-20.5438Q65.0272-19.8268 65.4768-19.3501Q65.9264-18.8734 66.6353-18.8734Q67.0749-18.8734 67.3629-19.0457Q67.6509-19.2179 67.933-19.4541L82.5382-34.0135Q83.1306-34.6141 83.1306-35.3065Z"/>
  </g>
  <g id="Ultralight-M" transform="matrix(1 0 0 1 504.553 1126)">
   <path d="M25.0215 7.56009L85.2884 7.56009Q91.4667 7.56009 94.6578 4.30031Q97.8489 1.04054 97.8489-5.01321L97.8489-65.3169Q97.8489-71.3707 94.6578-74.5972Q91.4667-77.8237 85.2884-77.8237L25.0215-77.8237Q18.8389-77.8237 15.6499-74.6305Q12.4609-71.4372 12.4609-65.3169L12.4609-5.01321Q12.4609 1.17363 15.6499 4.36686Q18.8389 7.56009 25.0215 7.56009ZM25.1461 5.18014Q20.0516 5.18014 17.4483 2.57267Q14.8451-0.034789 14.8451-5.11663L14.8451-65.147Q14.8451-70.233 17.4483-72.8384Q20.0516-75.4437 25.1461-75.4437L85.1638-75.4437Q90.1252-75.4437 92.795-72.8384Q95.4648-70.233 95.4648-65.147L95.4648-5.11663Q95.4648-0.034789 92.795 2.57267Q90.1252 5.18014 85.1638 5.18014ZM81.7845-35.3314Q81.7845-35.8159 81.4289-36.1715L66.6741-50.8597Q66.4419-51.0212 66.2598-51.1664Q66.0778-51.3115 65.7379-51.3115Q65.2534-51.3115 64.9658-50.9928Q64.6782-50.6741 64.6782-50.1938Q64.6782-49.7844 65.13-49.2618L71.5016-42.9483L77.8948-36.408L71.396-36.5822L38.9096-36.5822L32.415-36.408L38.8083-42.9483L45.1133-49.2618Q45.6317-49.7844 45.6317-50.1938Q45.6317-50.6741 45.3441-50.9928Q45.0565-51.3115 44.572-51.3115Q44.2321-51.3115 44.05-51.1664Q43.868-51.0212 43.6357-50.8597L28.881-36.1715Q28.5254-35.8159 28.5254-35.3314Q28.5254-34.8385 28.881-34.4871L43.6357-19.8031Q43.868-19.6416 44.05-19.4944Q44.2321-19.3471 44.572-19.3471Q45.0565-19.3471 45.3441-19.6679Q45.6317-19.9888 45.6317-20.469Q45.6317-20.8869 45.1133-21.4011L38.8083-27.7103L32.4774-34.2548L38.9096-34.0806L71.396-34.0806L77.8991-34.2548L71.5016-27.7103L65.13-21.4011Q64.6782-20.8869 64.6782-20.469Q64.6782-19.9888 64.9658-19.6679Q65.2534-19.3471 65.7379-19.3471Q66.0778-19.3471 66.2598-19.4944Q66.4419-19.6416 66.6741-19.8031L81.4289-34.4871Q81.7845-34.8385 81.7845-35.3314Z"/>
  </g>
  <g id="Black-S" transform="matrix(1 0 0 1 2885.5 696)">
   <path d="M25 2.92969L70.8008 2.92969Q77.9785 2.92969 82.0068-1.09863Q86.0352-5.12695 86.0352-12.3047L86.0352-58.1055Q86.0352-65.2832 82.0068-69.3115Q77.9785-73.3398 70.8008-73.3398L25-73.3398Q17.8223-73.3398 13.7939-69.3115Q9.76562-65.2832 9.76562-58.1055L9.76562-12.3047Q9.76562-5.12695 13.7939-1.09863Q17.8223 2.92969 25 2.92969ZM27.2461-11.2305Q25.5859-11.2305 24.7559-11.9873Q23.9258-12.7441 23.9258-14.5508L23.9258-55.8594Q23.9258-57.7148 24.7559-58.4473Q25.5859-59.1797 27.2461-59.1797L68.5547-59.1797Q70.2637-59.1797 71.0693-58.4473Q71.875-57.7148 71.875-55.8594L71.875-14.5508Q71.875-12.7441 71.0693-11.9873Q70.2637-11.2305 68.5547-11.2305ZM69.8242-35.2539Q69.8242-37.7441 68.0664-39.3555L59.375-47.4609Q58.5938-48.2422 57.8125-48.5107Q57.0312-48.7793 56.25-48.7793Q54.5898-48.7793 53.5645-47.6807Q52.5391-46.582 52.5391-44.7754Q52.5391-42.4805 54.3457-41.5527L54.4434-41.5039L57.2754-39.6484L51.2695-40.1367L44.5312-40.1367L38.5254-39.6484L41.3574-41.5039L41.4551-41.5527Q43.2617-42.4805 43.2617-44.7754Q43.2617-46.582 42.2607-47.6807Q41.2598-48.7793 39.5508-48.7793Q38.7695-48.7793 38.0127-48.5107Q37.2559-48.2422 36.4258-47.4609L27.7344-39.3555Q25.9766-37.7441 25.9766-35.2539Q25.9766-32.7637 27.7344-31.1523L36.4258-23.0469Q37.2559-22.2656 38.0127-21.9971Q38.7695-21.7285 39.5508-21.7285Q41.2598-21.7285 42.2607-22.8271Q43.2617-23.9258 43.2617-25.7324Q43.2617-28.0762 41.4551-28.9551L41.3574-29.0039L38.5254-30.8594L44.5312-30.3711L51.2695-30.3711L57.2754-30.8594L54.4434-29.0039L54.3457-28.9551Q52.5391-28.0762 52.5391-25.7324Q52.5391-23.9258 53.5645-22.8271Q54.5898-21.7285 56.25-21.7285Q57.0312-21.7285 57.8125-21.9971Q58.5938-22.2656 59.375-23.0469L68.0664-31.1523Q69.8242-32.7637 69.8242-35.2539Z"/>
  </g>
  <g id="Heavy-S" transform="matrix(1 0 0 1 2589.39 696)">
   <path d="M24.3431 2.33042L70.2476 2.33042Q77.2064 2.33042 81.0157-1.47318Q84.8251-5.27677 84.8251-12.2125L84.8251-58.1977Q84.8251-65.1334 81.0157-68.937Q77.2064-72.7406 70.2476-72.7406L24.3431-72.7406Q17.3959-72.7406 13.5807-68.937Q9.76562-65.1334 9.76562-58.1977L9.76562-12.2125Q9.76562-5.27677 13.5807-1.47318Q17.3959 2.33042 24.3431 2.33042ZM26.0821-10.1587Q24.1915-10.1587 23.2173-11.0653Q22.2432-11.972 22.2432-14.0091L22.2432-56.401Q22.2432-58.4639 23.2173-59.3577Q24.1915-60.2515 26.0821-60.2515L68.5086-60.2515Q70.4365-60.2515 71.392-59.3577Q72.3475-58.4639 72.3475-56.401L72.3475-14.0091Q72.3475-11.972 71.392-11.0653Q70.4365-10.1587 68.5086-10.1587ZM69.8012-35.2424Q69.8012-37.456 68.1586-38.9867L58.9371-47.7606Q58.248-48.4612 57.5129-48.7239Q56.7777-48.9867 56.0195-48.9867Q54.44-48.9867 53.4434-47.9284Q52.4469-46.8701 52.4469-45.1672Q52.4469-43.0797 54.0461-42.1635L54.7084-41.5615L57.9438-39.2912L51.3041-39.7334L43.2981-39.7334L36.6469-39.2912L39.8823-41.5615L40.5446-42.1635Q42.1438-43.0797 42.1438-45.1672Q42.1438-46.8701 41.1659-47.9284Q40.188-48.9867 38.5712-48.9867Q37.813-48.9867 37.0965-48.7239Q36.38-48.4612 35.6536-47.7606L26.4321-38.9867Q24.7895-37.456 24.7895-35.2424Q24.7895-33.0518 26.4321-31.5096L35.6536-22.7242Q36.38-22.0236 37.0965-21.7666Q37.813-21.5096 38.5712-21.5096Q40.188-21.5096 41.1659-22.5621Q42.1438-23.6146 42.1438-25.3175Q42.1438-27.4193 40.5446-28.3212L39.8823-28.9348L36.6584-31.1936L43.2981-30.7514L51.3041-30.7514L57.9323-31.1936L54.7084-28.9348L54.0461-28.3212Q52.4469-27.4193 52.4469-25.3175Q52.4469-23.6146 53.4434-22.5621Q54.44-21.5096 56.0195-21.5096Q56.7777-21.5096 57.5129-21.7666Q58.248-22.0236 58.9371-22.7242L68.1586-31.5096Q69.8012-33.0518 69.8012-35.2424Z"/>
  </g>
  <g id="Bold-S" transform="matrix(1 0 0 1 2293.36 696)">
   <path d="M23.6084 1.66016L69.6289 1.66016Q76.3428 1.66016 79.9072-1.89209Q83.4717-5.44434 83.4717-12.1094L83.4717-58.3008Q83.4717-64.9658 79.9072-68.5181Q76.3428-72.0703 69.6289-72.0703L23.6084-72.0703Q16.9189-72.0703 13.3423-68.5181Q9.76562-64.9658 9.76562-58.3008L9.76562-12.1094Q9.76562-5.44434 13.3423-1.89209Q16.9189 1.66016 23.6084 1.66016ZM24.7803-8.95996Q22.6318-8.95996 21.4966-10.0342Q20.3613-11.1084 20.3613-13.4033L20.3613-57.0068Q20.3613-59.3018 21.4966-60.376Q22.6318-61.4502 24.7803-61.4502L68.457-61.4502Q70.6299-61.4502 71.7529-60.376Q72.876-59.3018 72.876-57.0068L72.876-13.4033Q72.876-11.1084 71.7529-10.0342Q70.6299-8.95996 68.457-8.95996ZM69.7754-35.2295Q69.7754-37.1338 68.2617-38.5742L58.4473-48.0957Q57.8613-48.7061 57.1777-48.9624Q56.4941-49.2188 55.7617-49.2188Q54.2725-49.2188 53.3081-48.2056Q52.3438-47.1924 52.3438-45.6055Q52.3438-43.75 53.7109-42.8467L55.0049-41.626L58.6914-38.8916L51.3428-39.2822L41.9189-39.2822L34.5459-38.8916L38.2324-41.626L39.5264-42.8467Q40.8936-43.75 40.8936-45.6055Q40.8936-47.1924 39.9414-48.2056Q38.9893-49.2188 37.4756-49.2188Q36.7432-49.2188 36.0718-48.9624Q35.4004-48.7061 34.79-48.0957L24.9756-38.5742Q23.4619-37.1338 23.4619-35.2295Q23.4619-33.374 24.9756-31.9092L34.79-22.3633Q35.4004-21.7529 36.0718-21.5088Q36.7432-21.2646 37.4756-21.2646Q38.9893-21.2646 39.9414-22.2656Q40.8936-23.2666 40.8936-24.8535Q40.8936-26.6846 39.5264-27.6123L38.2324-28.8574L34.5703-31.5674L41.9189-31.1768L51.3428-31.1768L58.667-31.5674L55.0049-28.8574L53.7109-27.6123Q52.3438-26.6846 52.3438-24.8535Q52.3438-23.2666 53.3081-22.2656Q54.2725-21.2646 55.7617-21.2646Q56.4941-21.2646 57.1777-21.5088Q57.8613-21.7529 58.4473-22.3633L68.2617-31.9092Q69.7754-33.374 69.7754-35.2295Z"/>
  </g>
  <g id="Semibold-S" transform="matrix(1 0 0 1 1997.11 696)">
   <path d="M23.1019 1.19805L69.2023 1.19805Q75.7474 1.19805 79.143-2.18091Q82.5386-5.55986 82.5386-12.0383L82.5386-58.3719Q82.5386-64.8503 79.143-68.2292Q75.7474-71.6082 69.2023-71.6082L23.1019-71.6082Q16.5901-71.6082 13.1779-68.2292Q9.76562-64.8503 9.76562-58.3719L9.76562-12.0383Q9.76562-5.55986 13.1779-2.18091Q16.5901 1.19805 23.1019 1.19805ZM23.8827-8.1335Q21.5565-8.1335 20.3102-9.32324Q19.0639-10.513 19.0639-12.9856L19.0639-57.4245Q19.0639-59.8794 20.3102-61.078Q21.5565-62.2767 23.8827-62.2767L68.4215-62.2767Q70.7632-62.2767 72.0018-61.078Q73.2403-59.8794 73.2403-57.4245L73.2403-12.9856Q73.2403-10.513 72.0018-9.32324Q70.7632-8.1335 68.4215-8.1335ZM69.7576-35.2206Q69.7576-36.9116 68.3328-38.2898L58.1096-48.3268Q57.5947-48.8749 56.9467-49.1268Q56.2986-49.3787 55.584-49.3787Q54.1569-49.3787 53.2148-48.3966Q52.2727-47.4146 52.2727-45.9076Q52.2727-44.2121 53.4799-43.3177L55.2093-41.6704L59.2068-38.6161L51.3694-38.9712L40.9681-38.9712L33.0974-38.6161L37.0949-41.6704L38.8243-43.3177Q40.0315-44.2121 40.0315-45.9076Q40.0315-47.4146 39.0972-48.3966Q38.1628-49.3787 36.7202-49.3787Q36.0056-49.3787 35.3653-49.1268Q34.725-48.8749 34.1946-48.3268L23.9714-38.2898Q22.5466-36.9116 22.5466-35.2206Q22.5466-33.5962 23.9714-32.1847L34.1946-22.1145Q34.725-21.5663 35.3653-21.3311Q36.0056-21.0958 36.7202-21.0958Q38.1628-21.0958 39.0972-22.0612Q40.0315-23.0267 40.0315-24.5336Q40.0315-26.178 38.8243-27.1235L37.0949-28.8041L33.1307-31.8251L40.9681-31.47L51.3694-31.47L59.1735-31.8251L55.2093-28.8041L53.4799-27.1235Q52.2727-26.178 52.2727-24.5336Q52.2727-23.0267 53.2148-22.0612Q54.1569-21.0958 55.584-21.0958Q56.2986-21.0958 56.9467-21.3311Q57.5947-21.5663 58.1096-22.1145L68.3328-32.1847Q69.7576-33.5962 69.7576-35.2206Z"/>
  </g>
  <g id="Medium-S" transform="matrix(1 0 0 1 1700.76 696)">
   <path d="M22.7178 0.847656L68.8789 0.847656Q75.2959 0.847656 78.5635-2.3999Q81.8311-5.64746 81.8311-11.9844L81.8311-58.4258Q81.8311-64.7627 78.5635-68.0103Q75.2959-71.2578 68.8789-71.2578L22.7178-71.2578Q16.3408-71.2578 13.0532-68.0103Q9.76562-64.7627 9.76562-58.4258L9.76562-11.9844Q9.76562-5.64746 13.0532-2.3999Q16.3408 0.847656 22.7178 0.847656ZM23.2021-7.50684Q20.7412-7.50684 19.4106-8.78418Q18.0801-10.0615 18.0801-12.6689L18.0801-57.7412Q18.0801-60.3174 19.4106-61.6104Q20.7412-62.9033 23.2021-62.9033L68.3945-62.9033Q70.8643-62.9033 72.1904-61.6104Q73.5166-60.3174 73.5166-57.7412L73.5166-12.6689Q73.5166-10.0615 72.1904-8.78418Q70.8643-7.50684 68.3945-7.50684ZM69.7441-35.2139Q69.7441-36.7432 68.3867-38.0742L57.8535-48.502Q57.3926-49.0029 56.7715-49.2515Q56.1504-49.5 55.4492-49.5Q54.0693-49.5 53.144-48.5415Q52.2188-47.583 52.2188-46.1367Q52.2188-44.5625 53.3047-43.6748L55.3643-41.7041L59.5977-38.4072L51.3896-38.7354L40.2471-38.7354L31.999-38.4072L36.2324-41.7041L38.292-43.6748Q39.3779-44.5625 39.3779-46.1367Q39.3779-47.583 38.457-48.5415Q37.5361-49.5 36.1475-49.5Q35.4463-49.5 34.8296-49.2515Q34.2129-49.0029 33.7432-48.502L23.21-38.0742Q21.8525-36.7432 21.8525-35.2139Q21.8525-33.7646 23.21-32.3936L33.7432-21.9258Q34.2129-21.4248 34.8296-21.1963Q35.4463-20.9678 36.1475-20.9678Q37.5361-20.9678 38.457-21.9062Q39.3779-22.8447 39.3779-24.291Q39.3779-25.7939 38.292-26.7529L36.2324-28.7637L32.0391-32.0205L40.2471-31.6924L51.3896-31.6924L59.5576-32.0205L55.3643-28.7637L53.3047-26.7529Q52.2188-25.7939 52.2188-24.291Q52.2188-22.8447 53.144-21.9062Q54.0693-20.9678 55.4492-20.9678Q56.1504-20.9678 56.7715-21.1963Q57.3926-21.4248 57.8535-21.9258L68.3867-32.3936Q69.7441-33.7646 69.7441-35.2139Z"/>
  </g>
  <g id="Regular-S" transform="matrix(1 0 0 1 1404.51 696)">
   <path d="M22.2168 0.390625L68.457 0.390625Q74.707 0.390625 77.8076-2.68555Q80.9082-5.76172 80.9082-11.9141L80.9082-58.4961Q80.9082-64.6484 77.8076-67.7246Q74.707-70.8008 68.457-70.8008L22.2168-70.8008Q16.0156-70.8008 12.8906-67.7246Q9.76562-64.6484 9.76562-58.4961L9.76562-11.9141Q9.76562-5.76172 12.8906-2.68555Q16.0156 0.390625 22.2168 0.390625ZM22.3145-6.68945Q19.6777-6.68945 18.2373-8.08105Q16.7969-9.47266 16.7969-12.2559L16.7969-58.1543Q16.7969-60.8887 18.2373-62.3047Q19.6777-63.7207 22.3145-63.7207L68.3594-63.7207Q70.9961-63.7207 72.4365-62.3047Q73.877-60.8887 73.877-58.1543L73.877-12.2559Q73.877-9.47266 72.4365-8.08105Q70.9961-6.68945 68.3594-6.68945ZM69.7266-35.2051Q69.7266-36.5234 68.457-37.793L57.5195-48.7305Q57.1289-49.1699 56.543-49.4141Q55.957-49.6582 55.2734-49.6582Q53.9551-49.6582 53.0518-48.7305Q52.1484-47.8027 52.1484-46.4355Q52.1484-45.0195 53.0762-44.1406L55.5664-41.748L60.1074-38.1348L51.416-38.4277L39.3066-38.4277L30.5664-38.1348L35.1074-41.748L37.5977-44.1406Q38.5254-45.0195 38.5254-46.4355Q38.5254-47.8027 37.6221-48.7305Q36.7188-49.6582 35.4004-49.6582Q34.7168-49.6582 34.1309-49.4141Q33.5449-49.1699 33.1543-48.7305L22.2168-37.793Q20.9473-36.5234 20.9473-35.2051Q20.9473-33.9844 22.2168-32.666L33.1543-21.6797Q33.5449-21.2402 34.1309-21.0205Q34.7168-20.8008 35.4004-20.8008Q36.7188-20.8008 37.6221-21.7041Q38.5254-22.6074 38.5254-23.9746Q38.5254-25.293 37.5977-26.2695L35.1074-28.7109L30.6152-32.2754L39.3066-31.9824L51.416-31.9824L60.0586-32.2754L55.5664-28.7109L53.0762-26.2695Q52.1484-25.293 52.1484-23.9746Q52.1484-22.6074 53.0518-21.7041Q53.9551-20.8008 55.2734-20.8008Q55.957-20.8008 56.543-21.0205Q57.1289-21.2402 57.5195-21.6797L68.457-32.666Q69.7266-33.9844 69.7266-35.2051Z"/>
  </g>
  <g id="Light-S" transform="matrix(1 0 0 1 1108.45 696)">
   <path d="M21.403-0.260417L67.9525-0.260417Q73.763-0.260417 76.6764-3.17383Q79.5898-6.08724 79.5898-11.8001L79.5898-58.5938Q79.5898-64.3066 76.6764-67.2119Q73.763-70.1172 67.9525-70.1172L21.403-70.1172Q15.625-70.1172 12.6953-67.2201Q9.76562-64.3229 9.76562-58.5938L9.76562-11.8001Q9.76562-6.05469 12.6953-3.15755Q15.625-0.260417 21.403-0.260417ZM21.5007-5.71289Q18.4408-5.71289 16.8132-7.30794Q15.1855-8.90299 15.1855-12.0605L15.1855-58.3171Q15.1855-61.4421 16.8132-63.0534Q18.4408-64.6647 21.5007-64.6647L67.8548-64.6647Q70.8822-64.6647 72.526-63.0534Q74.1699-61.4421 74.1699-58.3171L74.1699-12.0605Q74.1699-8.90299 72.526-7.30794Q70.8822-5.71289 67.8548-5.71289ZM67.9688-35.2376Q67.9688-36.263 67.0085-37.2233L55.8757-48.3398Q55.5501-48.6816 55.1025-48.8851Q54.6549-49.0885 54.1016-49.0885Q53.0762-49.0885 52.3844-48.3724Q51.6927-47.6562 51.6927-46.5983Q51.6927-45.5241 52.4414-44.7917L55.7129-41.6016L60.4004-37.5163L52.832-37.7604L36.556-37.7604L28.9551-37.5163L33.6426-41.6016L36.8978-44.7917Q37.6628-45.5241 37.6628-46.5983Q37.6628-47.6562 36.971-48.3724Q36.2793-49.0885 35.2539-49.0885Q34.7005-49.0885 34.2529-48.8851Q33.8053-48.6816 33.4798-48.3398L22.347-37.2233Q21.3867-36.263 21.3867-35.2376Q21.3867-34.2773 22.347-33.2845L33.4798-22.1354Q33.8053-21.7936 34.2529-21.6064Q34.7005-21.4193 35.2539-21.4193Q36.2793-21.4193 36.971-22.1191Q37.6628-22.819 37.6628-23.877Q37.6628-24.8861 36.8978-25.6836L33.6426-28.9062L29.0039-32.959L36.556-32.7148L52.832-32.7148L60.3678-32.959L55.7129-28.9062L52.4414-25.6836Q51.6927-24.8861 51.6927-23.877Q51.6927-22.819 52.3844-22.1191Q53.0762-21.4193 54.1016-21.4193Q54.6549-21.4193 55.1025-21.6064Q55.5501-21.7936 55.8757-22.1354L67.0085-33.2845Q67.9688-34.2773 67.9688-35.2376Z"/>
  </g>
  <g id="Thin-S" transform="matrix(1 0 0 1 812.615 696)">
   <path d="M20.3267-1.12147L67.2852-1.12147Q72.5145-1.12147 75.1803-3.81962Q77.8462-6.51777 77.8462-11.6494L77.8462-58.7229Q77.8462-63.8546 75.1803-66.5338Q72.5145-69.2131 67.2852-69.2131L20.3267-69.2131Q15.1084-69.2131 12.437-66.5527Q9.76562-63.8924 9.76562-58.7229L9.76562-11.6494Q9.76562-6.44216 12.437-3.78182Q15.1084-1.12147 20.3267-1.12147ZM20.4243-4.42131Q16.8048-4.42131 14.9296-6.28544Q13.0544-8.14957 13.0544-11.8022L13.0544-58.5323Q13.0544-62.174 14.9296-64.0436Q16.8048-65.9132 20.4243-65.9132L67.1875-65.9132Q70.7315-65.9132 72.6444-64.0436Q74.5574-62.174 74.5574-58.5323L74.5574-11.8022Q74.5574-8.14957 72.6444-6.28544Q70.7315-4.42131 67.1875-4.42131ZM65.6439-35.2807Q65.6439-35.9186 65.0926-36.4699L53.7015-47.8232Q53.4621-48.0358 53.1975-48.1855Q52.9328-48.3351 52.5517-48.3351Q51.9137-48.3351 51.5019-47.8988Q51.09-47.4625 51.09-46.8136Q51.09-46.1914 51.6019-45.6527L55.9066-41.4078L60.7879-36.6983L54.7048-36.8778L32.918-36.8778L26.824-36.6983L31.7052-41.4078L35.9722-45.6527Q36.5219-46.1914 36.5219-46.8136Q36.5219-47.4625 36.11-47.8988Q35.6981-48.3351 35.0602-48.3351Q34.679-48.3351 34.4144-48.1855Q34.1498-48.0358 33.9103-47.8232L22.5192-36.4699Q21.9679-35.9186 21.9679-35.2807Q21.9679-34.6648 22.5192-34.1025L33.9103-22.7382Q34.1498-22.5255 34.4144-22.3814Q34.679-22.2373 35.0602-22.2373Q35.6981-22.2373 36.11-22.6681Q36.5219-23.0989 36.5219-23.7478Q36.5219-24.3479 35.9722-24.9086L31.7052-29.1646L26.8728-33.8631L32.918-33.6835L54.7048-33.6835L60.7768-33.8631L55.9066-29.1646L51.6019-24.9086Q51.09-24.3479 51.09-23.7478Q51.09-23.0989 51.5019-22.6681Q51.9137-22.2373 52.5517-22.2373Q52.9328-22.2373 53.1975-22.3814Q53.4621-22.5255 53.7015-22.7382L65.0926-34.1025Q65.6439-34.6648 65.6439-35.2807Z"/>
  </g>
  <g id="Ultralight-S" transform="matrix(1 0 0 1 516.35 696)">
   <path d="M19.7754-1.5625L66.9434-1.5625Q71.875-1.5625 74.4141-4.15039Q76.9531-6.73828 76.9531-11.5723L76.9531-58.7891Q76.9531-63.623 74.4141-66.1865Q71.875-68.75 66.9434-68.75L19.7754-68.75Q14.8438-68.75 12.3047-66.2109Q9.76562-63.6719 9.76562-58.7891L9.76562-11.5723Q9.76562-6.64062 12.3047-4.10156Q14.8438-1.5625 19.7754-1.5625ZM19.873-3.75977Q15.9668-3.75977 13.9648-5.76172Q11.9629-7.76367 11.9629-11.6699L11.9629-58.6426Q11.9629-62.5488 13.9648-64.5508Q15.9668-66.5527 19.873-66.5527L66.8457-66.5527Q70.6543-66.5527 72.7051-64.5508Q74.7559-62.5488 74.7559-58.6426L74.7559-11.6699Q74.7559-7.76367 72.7051-5.76172Q70.6543-3.75977 66.8457-3.75977ZM64.4531-35.3027Q64.4531-35.7422 64.1113-36.084L52.5879-47.5586Q52.3926-47.7051 52.2217-47.8271Q52.0508-47.9492 51.7578-47.9492Q51.3184-47.9492 51.0498-47.6562Q50.7812-47.3633 50.7812-46.9238Q50.7812-46.5332 51.1719-46.0938L56.0059-41.3086L60.9863-36.2793L55.6641-36.4258L31.0547-36.4258L25.7324-36.2793L30.7129-41.3086L35.498-46.0938Q35.9375-46.5332 35.9375-46.9238Q35.9375-47.3633 35.6689-47.6562Q35.4004-47.9492 34.9609-47.9492Q34.668-47.9492 34.4971-47.8271Q34.3262-47.7051 34.1309-47.5586L22.6074-36.084Q22.2656-35.7422 22.2656-35.3027Q22.2656-34.8633 22.6074-34.5215L34.1309-23.0469Q34.3262-22.9004 34.4971-22.7783Q34.668-22.6562 34.9609-22.6562Q35.4004-22.6562 35.6689-22.9492Q35.9375-23.2422 35.9375-23.6816Q35.9375-24.0723 35.498-24.5117L30.7129-29.2969L25.7812-34.3262L31.0547-34.1797L55.6641-34.1797L60.9863-34.3262L56.0059-29.2969L51.1719-24.5117Q50.7812-24.0723 50.7812-23.6816Q50.7812-23.2422 51.0498-22.9492Q51.3184-22.6562 51.7578-22.6562Q52.0508-22.6562 52.2217-22.7783Q52.3926-22.9004 52.5879-23.0469L64.1113-34.5215Q64.4531-34.8633 64.4531-35.3027Z"/>
  </g>
 </g>
</svg>
