<?xml version="1.0" encoding="UTF-8"?>
<!--Generator: Apple Native CoreSVG 175-->
<!DOCTYPE svg
PUBLIC "-//W3C//DTD SVG 1.1//EN"
       "http://www.w3.org/Graphics/SVG/1.1/DTD/svg11.dtd">
<svg version="1.1" xmlns="http://www.w3.org/2000/svg" xmlns:xlink="http://www.w3.org/1999/xlink" width="3300" height="2200">
 <!--glyph: "uni100211.medium", point size: 100.0, font version: "17.3d3e1", template writer version: "65.1"-->
 <g id="Notes">
  <rect height="2200" id="artboard" style="fill:white;opacity:1" width="3300" x="0" y="0"/>
  <line style="fill:none;stroke:black;opacity:1;stroke-width:0.5;" x1="263" x2="3036" y1="292" y2="292"/>
  <text style="stroke:none;fill:black;font-family:sans-serif;font-size:13;font-weight:bold;" transform="matrix(1 0 0 1 263 322)">Weight/Scale Variations</text>
  <text style="stroke:none;fill:black;font-family:sans-serif;font-size:13;text-anchor:middle;" transform="matrix(1 0 0 1 559.711 322)">Ultralight</text>
  <text style="stroke:none;fill:black;font-family:sans-serif;font-size:13;text-anchor:middle;" transform="matrix(1 0 0 1 856.422 322)">Thin</text>
  <text style="stroke:none;fill:black;font-family:sans-serif;font-size:13;text-anchor:middle;" transform="matrix(1 0 0 1 1153.13 322)">Light</text>
  <text style="stroke:none;fill:black;font-family:sans-serif;font-size:13;text-anchor:middle;" transform="matrix(1 0 0 1 1449.84 322)">Regular</text>
  <text style="stroke:none;fill:black;font-family:sans-serif;font-size:13;text-anchor:middle;" transform="matrix(1 0 0 1 1746.56 322)">Medium</text>
  <text style="stroke:none;fill:black;font-family:sans-serif;font-size:13;text-anchor:middle;" transform="matrix(1 0 0 1 2043.27 322)">Semibold</text>
  <text style="stroke:none;fill:black;font-family:sans-serif;font-size:13;text-anchor:middle;" transform="matrix(1 0 0 1 2339.98 322)">Bold</text>
  <text style="stroke:none;fill:black;font-family:sans-serif;font-size:13;text-anchor:middle;" transform="matrix(1 0 0 1 2636.69 322)">Heavy</text>
  <text style="stroke:none;fill:black;font-family:sans-serif;font-size:13;text-anchor:middle;" transform="matrix(1 0 0 1 2933.4 322)">Black</text>
  <line style="fill:none;stroke:black;opacity:1;stroke-width:0.5;" x1="263" x2="3036" y1="1903" y2="1903"/>
  <g transform="matrix(1 0 0 1 263 1933)">
   <path d="M9.24805 0.830078Q10.8691 0.830078 12.2949 0.214844Q13.7207-0.400391 14.8096-1.49414Q15.8984-2.58789 16.5186-4.01367Q17.1387-5.43945 17.1387-7.05078Q17.1387-8.66211 16.5186-10.0879Q15.8984-11.5137 14.8047-12.6074Q13.7109-13.7012 12.2852-14.3164Q10.8594-14.9316 9.23828-14.9316Q7.62695-14.9316 6.20117-14.3164Q4.77539-13.7012 3.69141-12.6074Q2.60742-11.5137 1.9873-10.0879Q1.36719-8.66211 1.36719-7.05078Q1.36719-5.43945 1.9873-4.01367Q2.60742-2.58789 3.69629-1.49414Q4.78516-0.400391 6.21094 0.214844Q7.63672 0.830078 9.24805 0.830078ZM9.24805-0.654297Q7.91992-0.654297 6.7627-1.14746Q5.60547-1.64062 4.73145-2.51953Q3.85742-3.39844 3.36426-4.56055Q2.87109-5.72266 2.87109-7.05078Q2.87109-8.37891 3.35938-9.54102Q3.84766-10.7031 4.72168-11.582Q5.5957-12.4609 6.75293-12.9541Q7.91016-13.4473 9.23828-13.4473Q10.5762-13.4473 11.7334-12.9541Q12.8906-12.4609 13.7695-11.582Q14.6484-10.7031 15.1465-9.54102Q15.6445-8.37891 15.6445-7.05078Q15.6445-5.72266 15.1514-4.56055Q14.6582-3.39844 13.7842-2.51953Q12.9102-1.64062 11.748-1.14746Q10.5859-0.654297 9.24805-0.654297ZM5.6543-7.05078Q5.6543-6.72852 5.85938-6.52832Q6.06445-6.32812 6.40625-6.32812L8.51562-6.32812L8.51562-4.20898Q8.51562-3.88672 8.71094-3.67676Q8.90625-3.4668 9.23828-3.4668Q9.56055-3.4668 9.77051-3.67676Q9.98047-3.88672 9.98047-4.20898L9.98047-6.32812L12.0898-6.32812Q12.4219-6.32812 12.627-6.52832Q12.832-6.72852 12.832-7.05078Q12.832-7.38281 12.627-7.58789Q12.4219-7.79297 12.0898-7.79297L9.98047-7.79297L9.98047-9.90234Q9.98047-10.2344 9.77051-10.4443Q9.56055-10.6543 9.23828-10.6543Q8.90625-10.6543 8.71094-10.4443Q8.51562-10.2344 8.51562-9.90234L8.51562-7.79297L6.40625-7.79297Q6.06445-7.79297 5.85938-7.58789Q5.6543-7.38281 5.6543-7.05078Z"/>
  </g>
  <g transform="matrix(1 0 0 1 281.867 1933)">
   <path d="M11.709 2.91016Q13.75 2.91016 15.5518 2.12891Q17.3535 1.34766 18.7305-0.0292969Q20.1074-1.40625 20.8887-3.20801Q21.6699-5.00977 21.6699-7.05078Q21.6699-9.0918 20.8887-10.8936Q20.1074-12.6953 18.7305-14.0723Q17.3535-15.4492 15.5469-16.2305Q13.7402-17.0117 11.6992-17.0117Q9.6582-17.0117 7.85645-16.2305Q6.05469-15.4492 4.68262-14.0723Q3.31055-12.6953 2.5293-10.8936Q1.74805-9.0918 1.74805-7.05078Q1.74805-5.00977 2.5293-3.20801Q3.31055-1.40625 4.6875-0.0292969Q6.06445 1.34766 7.86621 2.12891Q9.66797 2.91016 11.709 2.91016ZM11.709 1.25Q9.98047 1.25 8.47656 0.605469Q6.97266-0.0390625 5.83496-1.17676Q4.69727-2.31445 4.05762-3.81836Q3.41797-5.32227 3.41797-7.05078Q3.41797-8.7793 4.05762-10.2832Q4.69727-11.7871 5.83008-12.9297Q6.96289-14.0723 8.4668-14.7119Q9.9707-15.3516 11.6992-15.3516Q13.4277-15.3516 14.9316-14.7119Q16.4355-14.0723 17.5781-12.9297Q18.7207-11.7871 19.3652-10.2832Q20.0098-8.7793 20.0098-7.05078Q20.0098-5.32227 19.3701-3.81836Q18.7305-2.31445 17.5928-1.17676Q16.4551-0.0390625 14.9463 0.605469Q13.4375 1.25 11.709 1.25ZM7.17773-7.05078Q7.17773-6.69922 7.41211-6.47461Q7.64648-6.25 8.01758-6.25L10.8887-6.25L10.8887-3.36914Q10.8887-2.99805 11.1133-2.76855Q11.3379-2.53906 11.6895-2.53906Q12.0605-2.53906 12.29-2.76855Q12.5195-2.99805 12.5195-3.36914L12.5195-6.25L15.4004-6.25Q15.7715-6.25 16.001-6.47461Q16.2305-6.69922 16.2305-7.05078Q16.2305-7.42188 16.001-7.65137Q15.7715-7.88086 15.4004-7.88086L12.5195-7.88086L12.5195-10.752Q12.5195-11.1328 12.29-11.3623Q12.0605-11.5918 11.6895-11.5918Q11.3379-11.5918 11.1133-11.3574Q10.8887-11.123 10.8887-10.752L10.8887-7.88086L8.01758-7.88086Q7.63672-7.88086 7.40723-7.65137Q7.17773-7.42188 7.17773-7.05078Z"/>
  </g>
  <g transform="matrix(1 0 0 1 305.646 1933)">
   <path d="M14.9707 5.66406Q17.0605 5.66406 18.96 5.01465Q20.8594 4.36523 22.4512 3.19336Q24.043 2.02148 25.2197 0.429688Q26.3965-1.16211 27.0459-3.06641Q27.6953-4.9707 27.6953-7.05078Q27.6953-9.14062 27.0459-11.04Q26.3965-12.9395 25.2197-14.5312Q24.043-16.123 22.4512-17.2998Q20.8594-18.4766 18.9551-19.126Q17.0508-19.7754 14.9609-19.7754Q12.8711-19.7754 10.9717-19.126Q9.07227-18.4766 7.48535-17.2998Q5.89844-16.123 4.72168-14.5312Q3.54492-12.9395 2.90039-11.04Q2.25586-9.14062 2.25586-7.05078Q2.25586-4.9707 2.90527-3.06641Q3.55469-1.16211 4.72656 0.429688Q5.89844 2.02148 7.49023 3.19336Q9.08203 4.36523 10.9814 5.01465Q12.8809 5.66406 14.9707 5.66406ZM14.9707 3.84766Q13.1641 3.84766 11.5283 3.2959Q9.89258 2.74414 8.53516 1.74805Q7.17773 0.751953 6.17676-0.610352Q5.17578-1.97266 4.62891-3.6084Q4.08203-5.24414 4.08203-7.05078Q4.08203-8.86719 4.62891-10.5029Q5.17578-12.1387 6.17188-13.501Q7.16797-14.8633 8.52539-15.8594Q9.88281-16.8555 11.5186-17.4023Q13.1543-17.9492 14.9609-17.9492Q16.7773-17.9492 18.4131-17.4023Q20.0488-16.8555 21.4111-15.8594Q22.7734-14.8633 23.7695-13.501Q24.7656-12.1387 25.3174-10.5029Q25.8691-8.86719 25.8691-7.05078Q25.8789-5.24414 25.332-3.6084Q24.7852-1.97266 23.7842-0.610352Q22.7832 0.751953 21.4209 1.74805Q20.0586 2.74414 18.4229 3.2959Q16.7871 3.84766 14.9707 3.84766ZM9.19922-7.05078Q9.19922-6.66992 9.45801-6.4209Q9.7168-6.17188 10.1172-6.17188L14.0625-6.17188L14.0625-2.2168Q14.0625-1.81641 14.3115-1.55762Q14.5605-1.29883 14.9512-1.29883Q15.3516-1.29883 15.6104-1.55273Q15.8691-1.80664 15.8691-2.2168L15.8691-6.17188L19.8242-6.17188Q20.2246-6.17188 20.4785-6.4209Q20.7324-6.66992 20.7324-7.05078Q20.7324-7.46094 20.4785-7.71484Q20.2246-7.96875 19.8242-7.96875L15.8691-7.96875L15.8691-11.9141Q15.8691-12.3242 15.6104-12.583Q15.3516-12.8418 14.9512-12.8418Q14.5605-12.8418 14.3115-12.583Q14.0625-12.3242 14.0625-11.9141L14.0625-7.96875L10.1172-7.96875Q9.70703-7.96875 9.45312-7.71484Q9.19922-7.46094 9.19922-7.05078Z"/>
  </g>
  <text style="stroke:none;fill:black;font-family:sans-serif;font-size:13;font-weight:bold;" transform="matrix(1 0 0 1 263 1953)">Design Variations</text>
  <text style="stroke:none;fill:black;font-family:sans-serif;font-size:13;" transform="matrix(1 0 0 1 263 1971)">Symbols are supported in up to nine weights and three scales.</text>
  <text style="stroke:none;fill:black;font-family:sans-serif;font-size:13;" transform="matrix(1 0 0 1 263 1989)">For optimal layout with text and other symbols, vertically align</text>
  <text style="stroke:none;fill:black;font-family:sans-serif;font-size:13;" transform="matrix(1 0 0 1 263 2007)">symbols with the adjacent text.</text>
  <line style="fill:none;stroke:#00AEEF;stroke-width:0.5;opacity:1.0;" x1="776" x2="776" y1="1919" y2="1933"/>
  <g transform="matrix(1 0 0 1 776 1933)">
   <path d="M3.31055 0.15625Q3.70117 0.15625 3.91602-0.00976562Q4.13086-0.175781 4.26758-0.585938L5.52734-4.0332L11.2891-4.0332L12.5488-0.585938Q12.6855-0.175781 12.9004-0.00976562Q13.1152 0.15625 13.4961 0.15625Q13.8867 0.15625 14.1162-0.0585938Q14.3457-0.273438 14.3457-0.644531Q14.3457-0.869141 14.2383-1.17188L9.6582-13.3691Q9.48242-13.8184 9.17969-14.043Q8.87695-14.2676 8.4082-14.2676Q7.5-14.2676 7.17773-13.3789L2.59766-1.16211Q2.49023-0.859375 2.49023-0.634766Q2.49023-0.263672 2.70996-0.0537109Q2.92969 0.15625 3.31055 0.15625ZM6.00586-5.51758L8.37891-12.0898L8.42773-12.0898L10.8008-5.51758Z"/>
  </g>
  <line style="fill:none;stroke:#00AEEF;stroke-width:0.5;opacity:1.0;" x1="793.197" x2="793.197" y1="1919" y2="1933"/>
  <text style="stroke:none;fill:black;font-family:sans-serif;font-size:13;font-weight:bold;" transform="matrix(1 0 0 1 776 1953)">Margins</text>
  <text style="stroke:none;fill:black;font-family:sans-serif;font-size:13;" transform="matrix(1 0 0 1 776 1971)">Leading and trailing margins on the left and right side of each symbol</text>
  <text style="stroke:none;fill:black;font-family:sans-serif;font-size:13;" transform="matrix(1 0 0 1 776 1989)">can be adjusted by modifying the x-location of the margin guidelines.</text>
  <text style="stroke:none;fill:black;font-family:sans-serif;font-size:13;" transform="matrix(1 0 0 1 776 2007)">Modifications are automatically applied proportionally to all</text>
  <text style="stroke:none;fill:black;font-family:sans-serif;font-size:13;" transform="matrix(1 0 0 1 776 2025)">scales and weights.</text>
  <g transform="matrix(1 0 0 1 1289 1933)">
   <path d="M2.8418 1.86523L4.54102 3.57422Q5.18555 4.22852 5.90332 4.17969Q6.62109 4.13086 7.31445 3.35938L18.0078-8.42773L17.041-9.4043L6.42578 2.27539Q6.16211 2.57812 5.89355 2.61719Q5.625 2.65625 5.27344 2.30469L4.10156 1.14258Q3.75 0.791016 3.79395 0.522461Q3.83789 0.253906 4.14062-0.0195312L15.6152-10.8203L14.6387-11.7871L3.04688-0.898438Q2.30469-0.214844 2.25098 0.498047Q2.19727 1.21094 2.8418 1.86523ZM9.25781-16.3281Q8.94531-16.0254 8.90625-15.6348Q8.86719-15.2441 9.04297-14.9512Q9.21875-14.6777 9.55566-14.541Q9.89258-14.4043 10.3809-14.5215Q11.4746-14.7754 12.5977-14.7314Q13.7207-14.6875 14.7949-13.9844L14.209-12.5293Q13.9551-11.9043 14.0674-11.4404Q14.1797-10.9766 14.5801-10.5664L16.875-8.25195Q17.2363-7.88086 17.5781-7.82227Q17.9199-7.76367 18.3398-7.8418L19.4043-8.03711L20.0684-7.36328L20.0293-6.80664Q20-6.43555 20.1221-6.12305Q20.2441-5.81055 20.6055-5.44922L21.3672-4.70703Q21.7285-4.3457 22.1533-4.33105Q22.5781-4.31641 22.9297-4.66797L25.8398-7.58789Q26.1914-7.93945 26.1816-8.35449Q26.1719-8.76953 25.8105-9.13086L25.0391-9.89258Q24.6875-10.2539 24.3799-10.3857Q24.0723-10.5176 23.7109-10.4883L23.1348-10.4395L22.4902-11.0742L22.7344-12.1973Q22.832-12.6172 22.6953-12.9834Q22.5586-13.3496 22.1191-13.7891L19.9219-15.9766Q18.6719-17.2168 17.2607-17.8369Q15.8496-18.457 14.4189-18.4814Q12.9883-18.5059 11.665-17.959Q10.3418-17.4121 9.25781-16.3281ZM10.752-15.957Q11.6602-16.6211 12.7002-16.9043Q13.7402-17.1875 14.8047-17.085Q15.8691-16.9824 16.8701-16.5137Q17.8711-16.0449 18.7012-15.2051L21.1328-12.793Q21.3086-12.6172 21.3525-12.4512Q21.3965-12.2852 21.3379-12.0312L21.0156-10.5469L22.5195-9.0625L23.5059-9.12109Q23.6914-9.13086 23.7891-9.09668Q23.8867-9.0625 24.0332-8.91602L24.6094-8.33984L22.168-5.89844L21.5918-6.47461Q21.4453-6.62109 21.4062-6.71875Q21.3672-6.81641 21.377-7.01172L21.4453-7.98828L19.9512-9.47266L18.4277-9.21875Q18.1836-9.16992 18.042-9.2041Q17.9004-9.23828 17.7148-9.41406L15.7129-11.416Q15.5176-11.5918 15.4932-11.7529Q15.4688-11.9141 15.5859-12.1875L16.4648-14.2773Q15.293-15.3711 13.8281-15.791Q12.3633-16.2109 10.8398-15.7617Q10.7227-15.7324 10.6885-15.8057Q10.6543-15.8789 10.752-15.957Z"/>
  </g>
  <text style="stroke:none;fill:black;font-family:sans-serif;font-size:13;font-weight:bold;" transform="matrix(1 0 0 1 1289 1953)">Exporting</text>
  <text style="stroke:none;fill:black;font-family:sans-serif;font-size:13;" transform="matrix(1 0 0 1 1289 1971)">Symbols should be outlined when exporting to ensure the</text>
  <text style="stroke:none;fill:black;font-family:sans-serif;font-size:13;" transform="matrix(1 0 0 1 1289 1989)">design is preserved when submitting to Xcode.</text>
  <text id="template-version" style="stroke:none;fill:black;font-family:sans-serif;font-size:13;text-anchor:end;" transform="matrix(1 0 0 1 3036 1933)">Template v.3.0</text>
  <text style="stroke:none;fill:black;font-family:sans-serif;font-size:13;text-anchor:end;" transform="matrix(1 0 0 1 3036 1951)">Requires Xcode 13 or greater</text>
  <text id="descriptive-name" style="stroke:none;fill:black;font-family:sans-serif;font-size:13;text-anchor:end;" transform="matrix(1 0 0 1 3036 1969)">Generated from trash</text>
  <text style="stroke:none;fill:black;font-family:sans-serif;font-size:13;text-anchor:end;" transform="matrix(1 0 0 1 3036 1987)">Typeset at 100 points</text>
  <text style="stroke:none;fill:black;font-family:sans-serif;font-size:13;" transform="matrix(1 0 0 1 263 726)">Small</text>
  <text style="stroke:none;fill:black;font-family:sans-serif;font-size:13;" transform="matrix(1 0 0 1 263 1156)">Medium</text>
  <text style="stroke:none;fill:black;font-family:sans-serif;font-size:13;" transform="matrix(1 0 0 1 263 1586)">Large</text>
 </g>
 <g id="Guides">
  <g id="H-reference" style="fill:#27AAE1;stroke:none;" transform="matrix(1 0 0 1 339 696)">
   <path d="M0.993347 0L3.6377 0L29.3282-67.1326L30.0301-67.1326L30.0301-70.459L28.1227-70.459ZM11.6882-24.4797L46.9818-24.4797L46.2311-26.7288L12.4382-26.7288ZM55.1193 0L57.7637 0L30.6381-70.459L29.4327-70.459L29.4327-67.1326Z"/>
  </g>
  <line id="Baseline-S" style="fill:none;stroke:#27AAE1;opacity:1;stroke-width:0.5;" x1="263" x2="3036" y1="696" y2="696"/>
  <line id="Capline-S" style="fill:none;stroke:#27AAE1;opacity:1;stroke-width:0.5;" x1="263" x2="3036" y1="625.541" y2="625.541"/>
  <g id="H-reference" style="fill:#27AAE1;stroke:none;" transform="matrix(1 0 0 1 339 1126)">
   <path d="M0.993347 0L3.6377 0L29.3282-67.1326L30.0301-67.1326L30.0301-70.459L28.1227-70.459ZM11.6882-24.4797L46.9818-24.4797L46.2311-26.7288L12.4382-26.7288ZM55.1193 0L57.7637 0L30.6381-70.459L29.4327-70.459L29.4327-67.1326Z"/>
  </g>
  <line id="Baseline-M" style="fill:none;stroke:#27AAE1;opacity:1;stroke-width:0.5;" x1="263" x2="3036" y1="1126" y2="1126"/>
  <line id="Capline-M" style="fill:none;stroke:#27AAE1;opacity:1;stroke-width:0.5;" x1="263" x2="3036" y1="1055.54" y2="1055.54"/>
  <g id="H-reference" style="fill:#27AAE1;stroke:none;" transform="matrix(1 0 0 1 339 1556)">
   <path d="M0.993347 0L3.6377 0L29.3282-67.1326L30.0301-67.1326L30.0301-70.459L28.1227-70.459ZM11.6882-24.4797L46.9818-24.4797L46.2311-26.7288L12.4382-26.7288ZM55.1193 0L57.7637 0L30.6381-70.459L29.4327-70.459L29.4327-67.1326Z"/>
  </g>
  <line id="Baseline-L" style="fill:none;stroke:#27AAE1;opacity:1;stroke-width:0.5;" x1="263" x2="3036" y1="1556" y2="1556"/>
  <line id="Capline-L" style="fill:none;stroke:#27AAE1;opacity:1;stroke-width:0.5;" x1="263" x2="3036" y1="1485.54" y2="1485.54"/>
  <line id="left-margin-Regular-M" style="fill:none;stroke:#00AEEF;stroke-width:0.5;opacity:1.0;" x1="1395.12" x2="1395.12" y1="1030.79" y2="1150.12"/>
  <line id="right-margin-Regular-M" style="fill:none;stroke:#00AEEF;stroke-width:0.5;opacity:1.0;" x1="1504.57" x2="1504.57" y1="1030.79" y2="1150.12"/>
 </g>
 <g id="Symbols">
  <g id="Black-L" transform="matrix(1 0 0 1 2857.79 1556)">
   <path d="M46.4174 32.4327L104.818 32.4327Q113.692 32.4327 118.753 27.913Q123.814 23.3933 124.213 14.4428L128.156-73.3257L133.041-73.3257Q136.708-73.3257 139.136-75.6474Q141.563-77.9691 141.563-81.6351Q141.563-85.2451 139.135-87.5364Q136.707-89.8277 133.041-89.8277L18.1738-89.8277Q14.5275-89.8277 12.0889-87.5358Q9.65039-85.2439 9.65039-81.6351Q9.65039-77.9679 12.0889-75.6468Q14.5275-73.3257 18.1738-73.3257L23.0586-73.3257L27.0236 14.4636Q27.4025 23.4141 32.4523 27.9234Q37.5021 32.4327 46.4174 32.4327ZM48.9063 15.5802Q46.5741 15.5802 45.3096 14.0838Q44.0451 12.5875 43.8842 9.80485L40.0957-73.3257L111.054-73.3257L107.329 9.80485Q107.248 12.5875 105.954 14.0838Q104.66 15.5802 102.285 15.5802ZM57.3725 7.51977Q60.0647 7.51977 61.6193 5.9264Q63.1739 4.33304 63.0947 1.80164L61.2366-59.4802Q61.1782-62.0324 59.5641-63.5557Q57.9499-65.0791 55.3393-65.0791Q52.765-65.0791 51.2495-63.5161Q49.7339-61.9532 49.7923-59.4194L51.6503 1.91966Q51.7296 4.41346 53.3029 5.96661Q54.8763 7.51977 57.3725 7.51977ZM75.6074 7.51977Q78.2025 7.51977 79.7577 5.9854Q81.3129 4.45104 81.3129 1.97686L81.3129-59.5362Q81.3129-62.0688 79.7577-63.5739Q78.2025-65.0791 75.6074-65.0791Q73.0916-65.0791 71.4968-63.5739Q69.902-62.0688 69.902-59.5362L69.902 1.97686Q69.902 4.45104 71.4968 5.9854Q73.0916 7.51977 75.6074 7.51977ZM93.862 7.52216Q96.3374 7.52216 97.9218 5.9684Q99.5062 4.41465 99.5854 1.92084L101.423-59.4182Q101.502-61.952 99.9752-63.5149Q98.4487-65.0779 95.8756-65.0779Q93.2638-65.0779 91.66-63.5546Q90.0563-62.0312 89.977-59.479L88.1398 1.80284Q88.0606 4.33423 89.6054 5.92819Q91.1501 7.52216 93.862 7.52216ZM43.6659-86.4493L60.9186-86.4493L60.9186-98.1433Q60.9186-99.7817 61.9737-100.667Q63.0288-101.552 64.9277-101.552L86.2652-101.552Q88.1433-101.552 89.199-100.667Q90.2546-99.7817 90.2546-98.1433L90.2546-86.4493L107.528-86.4493L107.528-98.5851Q107.528-107.118 102.402-111.641Q97.2761-116.165 87.5807-116.165L63.5914-116.165Q53.8972-116.165 48.7815-111.641Q43.6659-107.118 43.6659-98.5851Z"/>
  </g>
  <g id="Heavy-L" transform="matrix(1 0 0 1 2562.31 1556)">
   <path d="M45.2997 31.6768L103.504 31.6768Q111.831 31.6768 116.676 27.2861Q121.52 22.8955 121.911 14.5042L125.957-74.3339L131.574-74.3339Q134.799-74.3339 136.958-76.4215Q139.117-78.5092 139.117-81.7284Q139.117-84.9143 136.955-86.9739Q134.794-89.0336 131.574-89.0336L17.1988-89.0336Q14.004-89.0336 11.8272-86.9711Q9.65039-84.9086 9.65039-81.7284Q9.65039-78.5035 11.8272-76.4187Q14.004-74.3339 17.1988-74.3339L22.8161-74.3339L26.8981 14.5344Q27.2588 22.9256 32.0852 27.3012Q36.9117 31.6768 45.2997 31.6768ZM47.3821 16.7093Q44.9556 16.7093 43.5369 15.1205Q42.1182 13.5317 41.9574 10.7325L38.0149-74.3339L110.656-74.3339L106.81 10.7325Q106.724 13.5317 105.283 15.1205Q103.842 16.7093 101.35 16.7093ZM56.038 7.90636Q58.4942 7.90636 59.9243 6.45615Q61.3545 5.00594 61.2797 2.71059L59.3907-60.1697Q59.3461-62.4951 57.8657-63.8801Q56.3853-65.265 54.0152-65.265Q51.6538-65.265 50.2583-63.8427Q48.8627-62.4204 48.9073-60.1138L50.7962 2.80549Q50.8711 5.08636 52.3085 6.49636Q53.7459 7.90636 56.038 7.90636ZM74.3866 7.90636Q76.7781 7.90636 78.2111 6.50356Q79.6441 5.10075 79.6441 2.84446L79.6441-60.2031Q79.6441-62.504 78.2111-63.8845Q76.7781-65.265 74.3866-65.265Q72.0699-65.265 70.5995-63.8845Q69.1291-62.504 69.1291-60.2031L69.1291 2.84446Q69.1291 5.10075 70.5995 6.50356Q72.0699 7.90636 74.3866 7.90636ZM92.7596 7.91759Q95.0216 7.91759 96.4769 6.50476Q97.9322 5.09193 98.0071 2.81106L99.8658-60.1082Q99.9406-62.4147 98.5271-63.8371Q97.1136-65.2594 94.7579-65.2594Q92.3821-65.2594 90.9168-63.8745Q89.4515-62.4896 89.3767-60.164L87.518 2.71625Q87.4431 5.01151 88.861 6.46455Q90.279 7.91759 92.7596 7.91759ZM43.5098-85.4636L58.8972-85.4636L58.8972-97.5628Q58.8972-99.4875 60.1228-100.557Q61.3483-101.627 63.5098-101.627L85.2275-101.627Q87.3588-101.627 88.5871-100.557Q89.8154-99.4875 89.8154-97.5628L89.8154-85.4636L105.233-85.4636L105.233-98.043Q105.233-106.148 100.346-110.508Q95.4586-114.869 86.366-114.869L62.3412-114.869Q53.2541-114.869 48.382-110.508Q43.5098-106.148 43.5098-98.043Z"/>
  </g>
  <g id="Bold-L" transform="matrix(1 0 0 1 2267.05 1556)">
   <path d="M43.9985 30.799L101.904 30.799Q109.541 30.799 114.116 26.5809Q118.692 22.3627 119.067 14.6854L123.266-75.6384L129.88-75.6384Q132.559-75.6384 134.38-77.4267Q136.201-79.215 136.201-81.8809Q136.201-84.5442 134.374-86.3046Q132.546-88.0649 129.88-88.0649L15.9849-88.0649Q13.3435-88.0649 11.497-86.2979Q9.65039-84.5309 9.65039-81.8809Q9.65039-79.2016 11.497-77.42Q13.3435-75.6384 15.9849-75.6384L22.5984-75.6384L26.8488 14.7233Q27.1863 22.4006 31.7362 26.5998Q36.286 30.799 43.9985 30.799ZM45.5888 18.1973Q43.0247 18.1973 41.4028 16.4783Q39.7808 14.7593 39.62 11.9148L35.4705-75.6384L110.254-75.6384L106.232 11.9148Q106.138 14.7593 104.502 16.4783Q102.865 18.1973 100.212 18.1973ZM54.438 8.39769Q56.5874 8.39769 57.8489 7.13172Q59.1104 5.86575 59.0433 3.87727L57.101-61.0748Q57.0718-63.1011 55.7678-64.3057Q54.4639-65.5103 52.4083-65.5103Q50.3305-65.5103 49.0959-64.2722Q47.8614-63.0341 47.8906-61.0191L49.8327 3.94901Q49.9 5.94617 51.1572 7.17193Q52.4144 8.39769 54.438 8.39769ZM72.9325 8.39769Q75.0482 8.39769 76.3164 7.16748Q77.5846 5.93727 77.5846 3.96488L77.5846-61.0775Q77.5846-63.0791 76.3164-64.2947Q75.0482-65.5103 72.9325-65.5103Q70.8841-65.5103 69.5823-64.2947Q68.2804-63.0791 68.2804-61.0775L68.2804 3.96488Q68.2804 5.93727 69.5823 7.16748Q70.8841 8.39769 72.9325 8.39769ZM91.4515 8.42415Q93.4373 8.42415 94.7201 7.19172Q96.0029 5.95929 96.0702 3.96213L97.9744-61.0058Q98.0415-63.0207 96.7813-64.259Q95.5212-65.4972 93.4567-65.4972Q91.3878-65.4972 90.1028-64.2926Q88.8178-63.088 88.7507-61.0614L86.8464 3.89061Q86.7791 5.87887 88.0284 7.15151Q89.2777 8.42415 91.4515 8.42415ZM43.3326-84.3983L56.355-84.3983L56.355-96.9375Q56.355-99.2305 57.7993-100.531Q59.2436-101.831 61.7578-101.831L84.056-101.831Q86.5321-101.831 87.983-100.531Q89.4338-99.2305 89.4338-96.9375L89.4338-84.3983L102.494-84.3983L102.494-97.434Q102.494-105.001 97.9104-109.143Q93.3265-113.285 84.9644-113.285L60.8116-113.285Q52.4625-113.285 47.8975-109.143Q43.3326-105.001 43.3326-97.434Z"/>
  </g>
  <g id="Semibold-L" transform="matrix(1 0 0 1 1971.35 1556)">
   <path d="M43.1014 30.1939L100.802 30.1939Q107.962 30.1939 112.352 26.0947Q116.742 21.9955 117.107 14.8103L121.412-76.5377L128.712-76.5377Q131.015-76.5377 132.603-78.1196Q134.191-79.7016 134.191-81.986Q134.191-84.2891 132.594-85.8431Q130.997-87.3971 128.712-87.3971L15.148-87.3971Q12.8882-87.3971 11.2693-85.8338Q9.65039-84.2705 9.65039-81.986Q9.65039-79.6829 11.2693-78.1103Q12.8882-76.5377 15.148-76.5377L22.4482-76.5377L26.8147 14.8535Q27.1364 22.0387 31.4955 26.1163Q35.8547 30.1939 43.1014 30.1939ZM44.3526 19.2231Q41.6936 19.2231 39.9315 17.4144Q38.1694 15.6056 38.0086 12.7299L33.7164-76.5377L109.977-76.5377L105.833 12.7299Q105.734 15.6056 103.963 17.4144Q102.192 19.2231 99.4271 19.2231ZM53.335 8.73641Q55.2728 8.73641 56.4181 7.59746Q57.5634 6.4585 57.5016 4.68157L55.5224-61.6988Q55.5039-63.5189 54.3215-64.5992Q53.1392-65.6795 51.3005-65.6795Q49.4182-65.6795 48.2946-64.5683Q47.1711-63.4571 47.1897-61.6432L49.1685 4.73735Q49.2306 6.53892 50.3636 7.63767Q51.4965 8.73641 53.335 8.73641ZM71.9301 8.73641Q73.8556 8.73641 75.0102 7.62519Q76.1648 6.51397 76.1648 4.73729L76.1648-61.6804Q76.1648-63.4756 75.0102-64.5776Q73.8556-65.6795 71.9301-65.6795Q70.0667-65.6795 68.881-64.5776Q67.6954-63.4756 67.6954-61.6804L67.6954 4.73729Q67.6954 6.51397 68.881 7.62519Q70.0667 8.73641 71.9301 8.73641ZM90.5497 8.77336Q92.345 8.77336 93.5089 7.6653Q94.6728 6.55724 94.7349 4.75567L96.6705-61.6246Q96.7323-63.4385 95.5778-64.5498Q94.4234-65.6612 92.5597-65.6612Q90.7023-65.6612 89.5416-64.5809Q88.3809-63.5006 88.3191-61.6801L86.3835 4.7002Q86.3214 6.47682 87.4544 7.62509Q88.5874 8.77336 90.5497 8.77336ZM43.2103-83.6639L54.6024-83.6639L54.6024-96.5065Q54.6024-99.0534 56.1975-100.512Q57.7926-101.971 60.5499-101.971L83.2484-101.971Q85.9622-101.971 87.5665-100.512Q89.1707-99.0534 89.1707-96.5065L89.1707-83.6639L100.606-83.6639L100.606-97.0142Q100.606-104.211 96.2315-108.202Q91.8566-112.193 83.9981-112.193L59.757-112.193Q51.9168-112.193 47.5636-108.202Q43.2103-104.211 43.2103-97.0142Z"/>
  </g>
  <g id="Medium-L" transform="matrix(1 0 0 1 1675.4 1556)">
   <path d="M42.4213 29.735L99.966 29.735Q106.765 29.735 111.014 25.726Q115.264 21.717 115.621 14.905L120.005-77.2196L127.827-77.2196Q129.844-77.2196 131.256-78.6451Q132.667-80.0705 132.667-82.0657Q132.667-84.0957 131.244-85.4932Q129.822-86.8907 127.827-86.8907L14.5135-86.8907Q12.5429-86.8907 11.0967-85.4819Q9.65039-84.073 9.65039-82.0657Q9.65039-80.0479 11.0967-78.6337Q12.5429-77.2196 14.5135-77.2196L22.3344-77.2196L26.7889 14.9523Q27.0985 21.7642 31.3131 25.7496Q35.5276 29.735 42.4213 29.735ZM43.4152 20.0009Q40.6842 20.0009 38.8159 18.1241Q36.9476 16.2473 36.7868 13.3479L32.3864-77.2196L109.766-77.2196L105.531 13.3479Q105.428 16.2473 103.554 18.1241Q101.681 20.0009 98.8323 20.0009ZM52.4987 8.99324Q54.2761 8.99324 55.3332 7.9506Q56.3903 6.90795 56.3326 5.29143L54.3255-62.1719Q54.315-63.8357 53.2249-64.8217Q52.1348-65.8078 50.4605-65.8078Q48.7264-65.8078 47.6871-64.7928Q46.6477-63.7779 46.6582-62.1165L48.6649 5.3351Q48.723 6.98837 49.7618 7.99081Q50.8005 8.99324 52.4987 8.99324ZM71.17 8.99324Q72.9513 8.99324 74.0198 7.97224Q75.0882 6.95124 75.0882 5.32297L75.0882-62.1375Q75.0882-63.7763 74.0198-64.792Q72.9513-65.8078 71.17-65.8078Q69.4468-65.8078 68.3493-64.792Q67.2518-63.7763 67.2518-62.1375L67.2518 5.32297Q67.2518 6.95124 68.3493 7.97224Q69.4468 8.99324 71.17 8.99324ZM89.8659 9.03816Q91.5169 9.03816 92.5906 8.0244Q93.6643 7.01064 93.7224 5.35736L95.6818-62.0938Q95.7396-63.7553 94.6653-64.7704Q93.5909-65.7855 91.8795-65.7855Q90.1826-65.7855 89.1161-64.7995Q88.0496-63.8134 87.9919-62.1492L86.0325 5.31407Q85.9743 6.93022 87.0191 7.98419Q88.0639 9.03816 89.8659 9.03816ZM43.1177-83.1071L53.2735-83.1071L53.2735-96.1796Q53.2735-98.9191 54.9829-100.499Q56.6924-102.078 59.6341-102.078L82.6361-102.078Q85.5301-102.078 87.2507-100.499Q88.9713-98.9191 88.9713-96.1796L88.9713-83.1071L99.1747-83.1071L99.1747-96.6958Q99.1747-103.611 94.9584-107.488Q90.7421-111.365 83.2654-111.365L58.9575-111.365Q51.503-111.365 47.3103-107.488Q43.1177-103.611 43.1177-96.6958Z"/>
  </g>
  <g id="Regular-L" transform="matrix(1 0 0 1 1379.68 1556)">
   <path d="M41.5341 29.1366L98.8757 29.1366Q105.203 29.1366 109.269 25.2451Q113.336 21.3537 113.682 15.0285L118.171-78.1091L126.671-78.1091Q128.317-78.1091 129.498-79.3304Q130.679-80.5517 130.679-82.1697Q130.679-83.8433 129.484-85.0368Q128.289-86.2302 126.671-86.2302L13.6859-86.2302Q12.0926-86.2302 10.8715-85.0228Q9.65039-83.8155 9.65039-82.1697Q9.65039-80.5239 10.8715-79.3165Q12.0926-78.1091 13.6859-78.1091L22.1859-78.1091L26.7553 15.0811Q27.0491 21.4063 31.0751 25.2714Q35.1011 29.1366 41.5341 29.1366ZM42.1925 21.0154Q39.3677 21.0154 37.3608 19.0499Q35.3539 17.0843 35.1931 14.154L30.6516-78.1091L109.492-78.1091L105.137 14.154Q105.028 17.0843 103.022 19.0499Q101.015 21.0154 98.0564 21.0154ZM51.4078 9.32824Q52.976 9.32824 53.9181 8.41121Q54.8603 7.49419 54.8077 6.08689L52.7643-62.789Q52.7643-64.2489 51.7945-65.112Q50.8247-65.9751 49.3649-65.9751Q47.8242-65.9751 46.8946-65.0857Q45.965-64.1963 45.965-62.7337L48.0079 6.11477Q48.0609 7.57461 48.9768 8.45142Q49.8927 9.32824 51.4078 9.32824ZM70.1786 9.32824Q71.7719 9.32824 72.728 8.42492Q73.6841 7.5216 73.6841 6.08689L73.6841-62.7337Q73.6841-64.1684 72.728-65.0718Q71.7719-65.9751 70.1786-65.9751Q68.6384-65.9751 67.6558-65.0718Q66.6732-64.1684 66.6732-62.7337L66.6732 6.08689Q66.6732 7.5216 67.6558 8.42492Q68.6384 9.32824 70.1786 9.32824ZM88.974 9.38354Q90.4366 9.38354 91.3927 8.49278Q92.3488 7.60202 92.4018 6.14218L94.3922-62.7058Q94.4448-64.1684 93.475-65.0581Q92.5052-65.9477 90.9923-65.9477Q89.5046-65.9477 88.5611-65.0846Q87.6176-64.2214 87.565-62.7611L85.5746 6.11477Q85.5216 7.5216 86.4514 8.45257Q87.3812 9.38354 88.974 9.38354ZM42.9968-82.3807L51.5401-82.3807L51.5401-95.7533Q51.5401-98.744 53.3987-100.481Q55.2573-102.217 58.4395-102.217L81.8373-102.217Q84.9665-102.217 86.8388-100.481Q88.7111-98.744 88.7111-95.7533L88.7111-82.3807L97.3074-82.3807L97.3074-96.2805Q97.3074-102.83 93.2979-106.558Q89.2884-110.286 82.3097-110.286L57.9145-110.286Q50.9633-110.286 46.98-106.558Q42.9968-102.83 42.9968-96.2805Z"/>
  </g>
  <g id="Light-L" transform="matrix(1 0 0 1 1083.61 1556)">
   <path d="M41.1714 28.9076L97.9596 28.9076Q103.714 28.9076 107.59 25.2166Q111.465 21.5256 111.774 15.8302L116.529-79.3686L126.29-79.3686Q127.573-79.3686 128.487-80.3228Q129.4-81.2771 129.4-82.5131Q129.4-83.8433 128.463-84.7504Q127.526-85.6575 126.29-85.6575L12.8079-85.6575Q11.5581-85.6575 10.6042-84.7269Q9.65039-83.7962 9.65039-82.5131Q9.65039-81.2299 10.6042-80.2993Q11.5581-79.3686 12.8079-79.3686L22.5675-79.3686L27.4043 15.8635Q27.6788 21.5589 31.514 25.2333Q35.3492 28.9076 41.1714 28.9076ZM41.5627 22.6187Q38.509 22.6187 36.2826 20.4622Q34.0562 18.3057 33.8954 15.1846L29.1057-79.3686L109.797-79.3686L105.156 15.1846Q105.028 18.3057 102.802 20.4622Q100.576 22.6187 97.4074 22.6187ZM50.6444 9.74798Q51.9072 9.74798 52.6394 9.00282Q53.3715 8.25767 53.3382 7.15563L51.161-63.7433Q51.161-64.8786 50.3822-65.5604Q49.6033-66.2422 48.468-66.2422Q47.2515-66.2422 46.5128-65.5438Q45.7742-64.8453 45.7742-63.6498L47.9505 7.20275Q47.9846 8.33809 48.7001 9.04303Q49.4156 9.74798 50.6444 9.74798ZM69.5488 9.74798Q70.7987 9.74798 71.5544 9.02599Q72.31 8.304 72.31 7.15563L72.31-63.6498Q72.31-64.7982 71.5544-65.5202Q70.7987-66.2422 69.5488-66.2422Q68.3331-66.2422 67.5604-65.5202Q66.7876-64.7982 66.7876-63.6498L66.7876 7.15563Q66.7876 8.304 67.5604 9.02599Q68.3331 9.74798 69.5488 9.74798ZM88.4395 9.84143Q89.635 9.84143 90.3907 9.11293Q91.1464 8.38442 91.1804 7.24909L93.3235-63.6027Q93.3568-64.7982 92.5779-65.497Q91.7991-66.1959 90.6297-66.1959Q89.4472-66.1959 88.685-65.5141Q87.9228-64.8323 87.8895-63.6962L85.7465 7.20275Q85.7124 8.304 86.4514 9.07272Q87.1904 9.84143 88.4395 9.84143ZM42.9775-82.6478L49.536-82.6478L49.536-95.9252Q49.536-99.2593 51.595-101.168Q53.6541-103.076 57.2563-103.076L81.761-103.076Q85.3291-103.076 87.4113-101.168Q89.4935-99.2593 89.4935-95.9252L89.4935-82.6478L96.0861-82.6478L96.0861-96.2613Q96.0861-102.391 92.3342-105.861Q88.5823-109.332 82.0045-109.332L56.9795-109.332Q50.448-109.332 46.7128-105.861Q42.9775-102.391 42.9775-96.2613Z"/>
  </g>
  <g id="Thin-L" transform="matrix(1 0 0 1 787.742 1556)">
   <path d="M40.6918 28.6048L96.7479 28.6048Q101.745 28.6048 105.368 25.1789Q108.991 21.7529 109.25 16.8904L114.358-81.0344L125.785-81.0344Q126.589-81.0344 127.149-81.6354Q127.709-82.2364 127.709-82.9673Q127.709-83.8433 127.112-84.3717Q126.516-84.9001 125.785-84.9001L11.6467-84.9001Q10.8511-84.9001 10.2507-84.3354Q9.65039-83.7708 9.65039-82.9673Q9.65039-82.1638 10.2507-81.5991Q10.8511-81.0344 11.6467-81.0344L23.0722-81.0344L28.2626 16.8983Q28.5118 21.7608 32.0946 25.1828Q35.6775 28.6048 40.6918 28.6048ZM40.7298 24.7391Q37.3732 24.7391 34.8566 22.3301Q32.3399 19.9211 32.1791 16.5476L27.0612-81.0344L110.201-81.0344L105.181 16.5476Q105.028 19.9211 102.512 22.3301Q99.9951 24.7391 96.5491 24.7391ZM49.6346 10.3031Q50.4937 10.3031 50.9481 9.78528Q51.4024 9.26743 51.3946 8.56914L49.0406-65.0054Q49.0406-65.7115 48.5143-66.1535Q47.988-66.5955 47.2818-66.5955Q46.494-66.5955 46.0079-66.1496Q45.5219-65.7037 45.5219-64.8615L47.8746 8.6417Q47.8837 9.34785 48.3341 9.82549Q48.7845 10.3031 49.6346 10.3031ZM68.7159 10.3031Q69.5116 10.3031 70.0022 9.82095Q70.4928 9.33879 70.4928 8.56914L70.4928-64.8615Q70.4928-65.6311 70.0022-66.1133Q69.5116-66.5955 68.7159-66.5955Q67.9294-66.5955 67.4342-66.1133Q66.939-65.6311 66.939-64.8615L66.939 8.56914Q66.939 9.33879 67.4342 9.82095Q67.9294 10.3031 68.7159 10.3031ZM87.7325 10.447Q88.5748 10.447 89.0654 9.93312Q89.556 9.41921 89.5651 8.71306L91.91-64.7889Q91.9178-65.6311 91.3915-66.0776Q90.8652-66.5241 90.15-66.5241Q89.3713-66.5241 88.8489-66.0821Q88.3266-65.6402 88.3187-64.9328L85.9738 8.6417Q85.9647 9.33879 86.4514 9.89291Q86.9381 10.447 87.7325 10.447ZM42.9521-83.0011L46.8854-83.0011L46.8854-96.1525Q46.8854-99.9408 49.2095-102.076Q51.5336-104.212 55.6914-104.212L81.6601-104.212Q85.8088-104.212 88.1685-102.076Q90.5283-99.9408 90.5283-96.1525L90.5283-83.0011L94.4707-83.0011L94.4707-96.2359Q94.4707-101.81 91.0596-104.94Q87.6484-108.069 81.6007-108.069L55.7428-108.069Q49.7665-108.069 46.3593-104.94Q42.9521-101.81 42.9521-96.2359Z"/>
  </g>
  <g id="Ultralight-L" transform="matrix(1 0 0 1 491.464 1556)">
   <path d="M40.4461 28.4497L96.1273 28.4497Q100.737 28.4497 104.231 25.1595Q107.724 21.8693 107.957 17.4335L113.247-81.8877L125.527-81.8877Q126.084-81.8877 126.464-82.3077Q126.843-82.7277 126.843-83.1999Q126.843-83.8433 126.421-84.1778Q125.999-84.5122 125.527-84.5122L11.052-84.5122Q10.489-84.5122 10.0697-84.135Q9.65039-83.7577 9.65039-83.1999Q9.65039-82.6421 10.0697-82.2649Q10.489-81.8877 11.052-81.8877L23.3307-81.8877L28.7023 17.4283Q28.9384 21.8642 32.392 25.1569Q35.8456 28.4497 40.4461 28.4497ZM40.3032 25.8252Q36.7915 25.8252 34.1262 23.2869Q31.4608 20.7485 31.3 17.2458L26.014-81.8877L110.408-81.8877L105.194 17.2458Q105.028 20.7485 102.363 23.2869Q99.6977 25.8252 96.1094 25.8252ZM49.1174 10.5875Q49.7697 10.5875 50.0818 10.186Q50.3939 9.78463 50.399 9.29313L47.9545-65.6518Q47.9545-66.1382 47.5575-66.4573Q47.1606-66.7764 46.6743-66.7764Q46.1061-66.7764 45.7493-66.4599Q45.3926-66.1433 45.3926-65.4821L47.8357 9.37872Q47.832 9.86505 48.1466 10.2263Q48.4613 10.5875 49.1174 10.5875ZM68.2893 10.5875Q68.8523 10.5875 69.2072 10.2281Q69.562 9.8688 69.562 9.29313L69.562-65.4821Q69.562-66.0577 69.2072-66.4171Q68.8523-66.7764 68.2893-66.7764Q67.7226-66.7764 67.3696-66.4171Q67.0166-66.0577 67.0166-65.4821L67.0166 9.29313Q67.0166 9.8688 67.3696 10.2281Q67.7226 10.5875 68.2893 10.5875ZM87.3704 10.7572Q88.0317 10.7572 88.3866 10.3532Q88.7414 9.94922 88.7377 9.46289L91.186-65.3965Q91.1808-66.0577 90.7839-66.375Q90.3869-66.6922 89.9043-66.6922Q89.3324-66.6922 88.9329-66.3731Q88.5333-66.054 88.5385-65.5662L86.0902 9.37872Q86.094 9.8688 86.4514 10.313Q86.8089 10.7572 87.3704 10.7572ZM42.9391-83.1821L45.5278-83.1821L45.5278-96.2689Q45.5278-100.29 47.9877-102.542Q50.4475-104.793 54.8898-104.793L81.6084-104.793Q86.0544-104.793 88.5564-102.542Q91.0583-100.29 91.0583-96.2689L91.0583-83.1821L93.6433-83.1821L93.6433-96.2228Q93.6433-101.513 90.4067-104.468Q87.1701-107.423 81.3939-107.423L55.1094-107.423Q49.4174-107.423 46.1782-104.468Q42.9391-101.513 42.9391-96.2228Z"/>
  </g>
  <g id="Black-M" transform="matrix(1 0 0 1 2873.86 1126)">
   <path d="M36.873 17.8099L82.2129 17.8099Q89.4794 17.8099 93.5604 14.2245Q97.6414 10.6392 97.9535 3.3095L100.956-64.0483L104.281-64.0483Q107.453-64.0483 109.529-66.0121Q111.604-67.9759 111.604-71.1483Q111.604-74.263 109.529-76.1985Q107.454-78.134 104.281-78.134L14.7991-78.134Q11.6325-78.134 9.55452-76.1986Q7.47656-74.2633 7.47656-71.1483Q7.47656-67.9761 9.55452-66.0122Q11.6325-64.0483 14.7991-64.0483L18.1246-64.0483L21.1321 3.31499Q21.4387 10.6446 25.5171 14.2273Q29.5955 17.8099 36.873 17.8099ZM39.1143 3.38172Q37.3575 3.38172 36.4806 2.27599Q35.6037 1.17026 35.4791-0.997153L32.6426-64.0483L86.4219-64.0483L83.6016-0.997153Q83.5396 1.17026 82.6341 2.27599Q81.7286 3.38172 79.9612 3.38172ZM45.4924-2.38523Q47.7397-2.38523 49.0225-3.71942Q50.3054-5.05361 50.2428-7.1763L48.8118-53.5542Q48.7547-55.6824 47.415-56.9571Q46.0753-58.2317 43.8901-58.2317Q41.7567-58.2317 40.5052-56.9258Q39.2538-55.6198 39.3109-53.4977L40.7419-7.06239Q40.8045-4.9913 42.1132-3.68827Q43.4219-2.38523 45.4924-2.38523ZM59.5402-2.38523Q61.6791-2.38523 62.9618-3.66246Q64.2445-4.9397 64.2445-7.00501L64.2445-53.6119Q64.2445-55.7343 62.9618-56.983Q61.6791-58.2317 59.5402-58.2317Q57.4639-58.2317 56.1499-56.983Q54.8359-55.7343 54.8359-53.6119L54.8359-7.00501Q54.8359-4.9397 56.1499-3.66246Q57.4639-2.38523 59.5402-2.38523ZM73.5938-2.3858Q75.6588-2.3858 76.9701-3.68869Q78.2814-4.99158 78.344-7.06267L79.7695-53.498Q79.8321-55.6201 78.5781-56.926Q77.324-58.232 75.1903-58.232Q73.0053-58.232 71.6684-56.9573Q70.3315-55.6827 70.2689-53.5545L68.8433-7.17659Q68.7808-5.05389 70.0607-3.71984Q71.3407-2.3858 73.5938-2.3858ZM33.9614-75.795L48.6619-75.795L48.6619-84.4936Q48.6619-85.5635 49.36-86.1141Q50.0581-86.6647 51.3605-86.6647L67.7147-86.6647Q69.0116-86.6647 69.7096-86.1141Q70.4075-85.5635 70.4075-84.4936L70.4075-75.795L85.1136-75.795L85.1136-84.7769Q85.1136-91.6986 80.9719-95.3082Q76.8302-98.9178 68.855-98.9178L50.2146-98.9178Q42.2392-98.9178 38.1003-95.3082Q33.9614-91.6986 33.9614-84.7769Z"/>
  </g>
  <g id="Heavy-M" transform="matrix(1 0 0 1 2578.29 1126)">
   <path d="M35.8138 17.0921L81.0122 17.0921Q87.7978 17.0921 91.6848 13.6144Q95.5717 10.1367 95.8787 3.29562L98.9572-64.9178L102.883-64.9178Q105.656-64.9178 107.493-66.6773Q109.331-68.4369 109.331-71.2077Q109.331-73.9396 107.492-75.675Q105.654-77.4105 102.883-77.4105L13.9269-77.4105Q11.1701-77.4105 9.32333-75.6739Q7.47656-73.9373 7.47656-71.2077Q7.47656-68.4346 9.32333-66.6762Q11.1701-64.9178 13.9269-64.9178L17.8523-64.9178L20.9496 3.31201Q21.2401 10.1531 25.1178 13.6226Q28.9954 17.0921 35.8138 17.0921ZM37.6824 4.33762Q35.8546 4.33762 34.8472 3.15915Q33.8398 1.98068 33.7152-0.185349L30.7511-64.9178L86.0047-64.9178L83.0921-0.185349Q83.0275 1.98068 81.9983 3.15915Q80.9691 4.33762 79.1062 4.33762ZM44.2582-2.04603Q46.3029-2.04603 47.4835-3.25613Q48.6642-4.46623 48.6042-6.38633L47.1552-54.1402Q47.1116-56.0767 45.8851-57.2327Q44.6586-58.3887 42.6785-58.3887Q40.7232-58.3887 39.5715-57.2027Q38.4198-56.0167 38.4634-54.0921L39.9123-6.2968Q39.9723-4.40393 41.1666-3.22498Q42.3608-2.04603 44.2582-2.04603ZM58.4048-2.04603Q60.3764-2.04603 61.5582-3.21138Q62.7399-4.37674 62.7399-6.25547L62.7399-54.1793Q62.7399-56.1017 61.5582-57.2452Q60.3764-58.3887 58.4048-58.3887Q56.4932-58.3887 55.2815-57.2452Q54.0697-56.1017 54.0697-54.1793L54.0697-6.25547Q54.0697-4.37674 55.2815-3.21138Q56.4932-2.04603 58.4048-2.04603ZM72.5655-2.04148Q74.4465-2.04148 75.6501-3.22158Q76.8537-4.40168 76.9137-6.29454L78.3462-54.0898Q78.4062-56.0144 77.2451-57.2004Q76.0841-58.3865 74.1311-58.3865Q72.1487-58.3865 70.9304-57.2305Q69.7121-56.0745 69.6521-54.1379L68.2196-6.38404Q68.1595-4.46398 69.3331-3.25273Q70.5067-2.04148 72.5655-2.04148ZM33.8106-74.8067L46.8708-74.8067L46.8708-83.9103Q46.8708-85.2283 47.717-85.9434Q48.5632-86.6585 50.0835-86.6585L66.7074-86.6585Q68.2113-86.6585 69.0586-85.9434Q69.906-85.2283 69.906-83.9103L69.906-74.8067L82.9826-74.8067L82.9826-84.2489Q82.9826-90.7909 79.0506-94.2649Q75.1186-97.7389 67.6957-97.7389L49.0788-97.7389Q41.6581-97.7389 37.7343-94.2649Q33.8106-90.7909 33.8106-84.2489Z"/>
  </g>
  <g id="Bold-M" transform="matrix(1 0 0 1 2282.85 1126)">
   <path d="M34.6289 16.289L79.6691 16.289Q85.9166 16.289 89.5865 12.9318Q93.2565 9.57455 93.5578 3.2801L96.7215-65.8903L101.318-65.8903Q103.645-65.8903 105.216-67.4214Q106.788-68.9525 106.788-71.2743Q106.788-73.5778 105.214-75.0895Q103.64-76.6011 101.318-76.6011L12.9512-76.6011Q10.6529-76.6011 9.06471-75.0869Q7.47656-73.5727 7.47656-71.2743Q7.47656-68.9474 9.06471-67.4189Q10.6529-65.8903 12.9512-65.8903L17.5478-65.8903L20.7454 3.30868Q21.0179 9.60314 24.671 12.9461Q28.3242 16.289 34.6289 16.289ZM36.0807 5.40694Q34.1733 5.40694 33.02 4.14709Q31.8667 2.88725 31.7421 0.722771L28.6353-65.8903L85.5379-65.8903L82.5222 0.722771Q82.4548 2.88725 81.2871 4.14709Q80.1195 5.40694 78.1497 5.40694ZM42.8776-1.66658Q44.6957-1.66658 45.7619-2.73788Q46.8282-3.80917 46.7711-5.50264L45.3021-54.7957Q45.2735-56.5178 44.1736-57.5411Q43.0737-58.5644 41.3231-58.5644Q39.5672-58.5644 38.527-57.5125Q37.4868-56.4607 37.5153-54.7569L38.9842-5.44037Q39.0414-3.74687 40.1076-2.70672Q41.1739-1.66658 42.8776-1.66658ZM57.1347-1.66658Q58.9192-1.66658 59.988-2.70678Q61.0568-3.74699 61.0568-5.417L61.0568-54.814Q61.0568-56.5126 59.988-57.5385Q58.9192-58.5644 57.1347-58.5644Q55.4074-58.5644 54.31-57.5385Q53.2126-56.5126 53.2126-54.814L53.2126-5.417Q53.2126-3.74699 54.31-2.70678Q55.4074-1.66658 57.1347-1.66658ZM71.4152-1.65632Q73.0903-1.65632 74.1734-2.69905Q75.2565-3.74178 75.3138-5.43528L76.7541-54.7517Q76.8112-56.4555 75.7541-57.5074Q74.697-58.5593 72.9463-58.5593Q71.1905-58.5593 70.1049-57.536Q69.0193-56.5127 68.9621-54.7906L67.5218-5.49747Q67.4646-3.80408 68.5191-2.7302Q69.5737-1.65632 71.4152-1.65632ZM33.6419-73.7012L44.8671-73.7012L44.8671-83.2578Q44.8671-84.8534 45.879-85.7524Q46.8909-86.6515 48.6551-86.6515L65.5805-86.6515Q67.316-86.6515 68.3305-85.7524Q69.3449-84.8534 69.3449-83.2578L69.3449-73.7012L80.5989-73.7012L80.5989-83.6581Q80.5989-89.7755 76.9014-93.0978Q73.204-96.4202 66.3989-96.4202L47.8081-96.4202Q41.0081-96.4202 37.325-93.0978Q33.6419-89.7755 33.6419-83.6581Z"/>
  </g>
  <g id="Semibold-M" transform="matrix(1 0 0 1 1987.01 1126)">
   <path d="M33.8121 15.7354L78.7431 15.7354Q84.6197 15.7354 88.1401 12.4612Q91.6604 9.18704 91.9577 3.26939L95.1803-66.5608L100.24-66.5608Q102.259-66.5608 103.647-67.9344Q105.034-69.308 105.034-71.3202Q105.034-73.3284 103.643-74.6858Q102.252-76.0432 100.24-76.0432L12.2786-76.0432Q10.2963-76.0432 8.88642-74.6822Q7.47656-73.3213 7.47656-71.3202Q7.47656-69.3009 8.88642-67.9309Q10.2963-66.5608 12.2786-66.5608L17.3378-66.5608L20.6046 3.30638Q20.8648 9.22403 24.3631 12.4797Q27.8614 15.7354 33.8121 15.7354ZM34.9765 6.14412Q33.0143 6.14412 31.7603 4.82817Q30.5064 3.51223 30.3818 1.34882L27.1766-66.5608L85.2161-66.5608L82.1293 1.34882Q82.0599 3.51223 80.7969 4.82817Q79.5338 6.14412 77.4904 6.14412ZM41.9259-1.40499Q43.5877-1.40499 44.5751-2.3806Q45.5625-3.3562 45.5073-4.89343L44.0245-55.2476Q44.0064-56.8219 42.9937-57.7537Q41.9811-58.6856 40.3887-58.6856Q38.7702-58.6856 37.8069-57.7261Q36.8436-56.7667 36.8617-55.2153L38.3444-4.84995Q38.3996-3.29389 39.3776-2.34944Q40.3556-1.40499 41.9259-1.40499ZM56.2591-1.40499Q57.9146-1.40499 58.9055-2.35892Q59.8965-3.31284 59.8965-4.83896L59.8965-55.2516Q59.8965-56.7959 58.9055-57.7407Q57.9146-58.6856 56.2591-58.6856Q54.6589-58.6856 53.6403-57.7407Q52.6217-56.7959 52.6217-55.2516L52.6217-4.83896Q52.6217-3.31284 53.6403-2.35892Q54.6589-1.40499 56.2591-1.40499ZM70.6221-1.39079Q72.1554-1.39079 73.1555-2.33882Q74.1555-3.28685 74.2108-4.84291L75.6565-55.2081Q75.7116-56.7595 74.7262-57.719Q73.7408-58.6785 72.1295-58.6785Q70.5299-58.6785 69.5358-57.7467Q68.5416-56.8148 68.4865-55.2405L67.0408-4.88627Q66.9855-3.34915 67.958-2.36997Q68.9305-1.39079 70.6221-1.39079ZM33.5256-72.939L43.4858-72.939L43.4858-82.8079Q43.4858-84.5949 44.612-85.6208Q45.7381-86.6467 47.6704-86.6467L64.8037-86.6467Q66.6988-86.6467 67.8285-85.6208Q68.9582-84.5949 68.9582-82.8079L68.9582-72.939L78.9555-72.939L78.9555-83.2508Q78.9555-89.0754 75.4198-92.2932Q71.8841-95.511 65.5049-95.511L46.9322-95.511Q40.56-95.511 37.0428-92.2932Q33.5256-89.0754 33.5256-83.2508Z"/>
  </g>
  <g id="Medium-M" transform="matrix(1 0 0 1 1690.96 1126)">
   <path d="M33.1927 15.3156L78.041 15.3156Q83.6363 15.3156 87.0433 12.1044Q90.4502 8.89321 90.7445 3.26128L94.0116-67.0692L99.4218-67.0692Q101.208-67.0692 102.456-68.3234Q103.705-69.5776 103.705-71.3549Q103.705-73.1393 102.452-74.3797Q101.199-75.6201 99.4218-75.6201L11.7685-75.6201Q10.0259-75.6201 8.75123-74.3754Q7.47656-73.1307 7.47656-71.3549Q7.47656-69.5689 8.75123-68.3191Q10.0259-67.0692 11.7685-67.0692L17.1786-67.0692L20.4978 3.30464Q20.7487 8.93657 24.1296 12.1261Q27.5105 15.3156 33.1927 15.3156ZM34.1392 6.70307Q32.1354 6.70307 30.8052 5.34459Q29.475 3.98611 29.3504 1.82352L26.0706-67.0692L84.9722-67.0692L81.8314 1.82352Q81.7605 3.98611 80.4251 5.34459Q79.0897 6.70307 76.9904 6.70307ZM41.2042-1.20665Q42.7476-1.20665 43.6752-2.10969Q44.6028-3.01273 44.5491-4.4315L43.0559-55.5903Q43.0456-57.0524 42.0991-57.9149Q41.1526-58.7774 39.6802-58.7774Q38.1659-58.7774 37.2609-57.8881Q36.3559-56.9988 36.3661-55.5628L37.8593-4.40227Q37.913-2.95043 38.8241-2.07854Q39.7351-1.20665 41.2042-1.20665ZM55.5952-1.20665Q57.1528-1.20665 58.0848-2.09515Q59.0167-2.98365 59.0167-4.40067L59.0167-55.5834Q59.0167-57.0107 58.0848-57.894Q57.1528-58.7774 55.5952-58.7774Q54.0913-58.7774 53.1325-57.894Q52.1737-57.0107 52.1737-55.5834L52.1737-4.40067Q52.1737-2.98365 53.1325-2.09515Q54.0913-1.20665 55.5952-1.20665ZM70.0208-1.18945Q71.4465-1.18945 72.3836-2.06568Q73.3207-2.9419 73.3744-4.39375L74.8242-55.5541Q74.8778-56.9901 73.9468-57.8795Q73.0157-58.7689 71.5101-58.7689Q70.029-58.7689 69.1042-57.9064Q68.1794-57.0439 68.1258-55.5816L66.676-4.42283Q66.6223-3.00421 67.5325-2.09683Q68.4428-1.18945 70.0208-1.18945ZM33.4374-72.3611L42.4385-72.3611L42.4385-82.4668Q42.4385-84.3988 43.6512-85.5209Q44.864-86.6431 46.9237-86.6431L64.2146-86.6431Q66.2308-86.6431 67.4479-85.5209Q68.6649-84.3988 68.6649-82.4668L68.6649-72.3611L77.7094-72.3611L77.7094-82.942Q77.7094-88.5447 74.2963-91.6832Q70.8832-94.8217 64.827-94.8217L46.268-94.8217Q40.2202-94.8217 36.8288-91.6832Q33.4374-88.5447 33.4374-82.942Z"/>
  </g>
  <g id="Regular-M" transform="matrix(1 0 0 1 1395.12 1126)">
   <path d="M32.3849 14.7681L77.1252 14.7681Q82.3537 14.7681 85.6127 11.639Q88.8716 8.50996 89.1621 3.25069L92.4873-67.7324L98.3551-67.7324Q99.8368-67.7324 100.904-68.8308Q101.971-69.9292 101.971-71.4003Q101.971-72.8927 100.899-73.9805Q99.8262-75.0683 98.3551-75.0683L11.1033-75.0683Q9.67324-75.0683 8.5749-73.9751Q7.47656-72.882 7.47656-71.4003Q7.47656-69.9186 8.5749-68.8255Q9.67324-67.7324 11.1033-67.7324L16.9709-67.7324L20.3586 3.30236Q20.5972 8.56163 23.825 11.6648Q27.0528 14.7681 32.3849 14.7681ZM33.0472 7.43215Q30.9891 7.43215 29.5594 6.01819Q28.1297 4.60423 28.005 2.4427L24.628-67.7324L84.6539-67.7324L81.4429 2.4427Q81.3699 4.60423 79.9402 6.01819Q78.5104 7.43215 76.3383 7.43215ZM40.2629-0.947934Q41.6517-0.947934 42.5013-1.75633Q43.351-2.56474 43.2993-3.82898L41.7924-56.0372Q41.7924-57.3531 40.9322-58.1252Q40.072-58.8972 38.7561-58.8972Q37.3777-58.8972 36.5487-58.0993Q35.7197-57.3015 35.7197-56.0161L37.2265-3.81835Q37.2783-2.50243 38.1021-1.72518Q38.9259-0.947934 40.2629-0.947934ZM54.7292-0.947934Q56.1593-0.947934 57.0142-1.75111Q57.8691-2.55428 57.8691-3.82898L57.8691-56.0161Q57.8691-57.2908 57.0142-58.094Q56.1593-58.8972 54.7292-58.8972Q53.351-58.8972 52.4701-58.094Q51.5893-57.2908 51.5893-56.0161L51.5893-3.82898Q51.5893-2.55428 52.4701-1.75111Q53.351-0.947934 54.7292-0.947934ZM69.2365-0.926839Q70.5219-0.926839 71.3768-1.70941Q72.2317-2.49197 72.2836-3.80789L73.7387-56.0055Q73.7903-57.2908 72.9302-58.0888Q72.07-58.8867 70.7022-58.8867Q69.3757-58.8867 68.5414-58.1147Q67.707-57.3427 67.6554-56.0266L66.2003-3.81835Q66.1484-2.55428 66.9775-1.74056Q67.8066-0.926839 69.2365-0.926839ZM33.3224-71.6073L41.0723-71.6073L41.0723-82.0219Q41.0723-84.1432 42.3981-85.3907Q43.7238-86.6383 45.9498-86.6383L63.4463-86.6383Q65.6204-86.6383 66.9514-85.3907Q68.2823-84.1432 68.2823-82.0219L68.2823-71.6073L76.0842-71.6073L76.0842-82.5393Q76.0842-87.8523 72.831-90.8874Q69.5778-93.9225 63.9428-93.9225L45.4016-93.9225Q39.777-93.9225 36.5497-90.8874Q33.3224-87.8523 33.3224-82.5393Z"/>
  </g>
  <g id="Light-M" transform="matrix(1 0 0 1 1098.98 1126)">
   <path d="M32.0597 14.5628L76.3038 14.5628Q81.0189 14.5628 84.1068 11.6134Q87.1948 8.66405 87.451 3.96941L91.0156-68.8616L98.013-68.8616Q99.1695-68.8616 99.9971-69.7205Q100.825-70.5795 100.825-71.7082Q100.825-72.8927 99.9832-73.7237Q99.1417-74.5548 98.013-74.5548L10.3162-74.5548Q9.194-74.5548 8.33528-73.7098Q7.47656-72.8648 7.47656-71.7082Q7.47656-70.5516 8.33528-69.7066Q9.194-68.8616 10.3162-68.8616L17.313-68.8616L20.9405 4.00383Q21.1618 8.69847 24.2186 11.6306Q27.2753 14.5628 32.0597 14.5628ZM32.4825 8.86957Q30.2193 8.86957 28.5927 7.28441Q26.9662 5.69925 26.8416 3.36667L23.242-68.8616L84.9276-68.8616L81.4601 3.36667Q81.3699 5.69925 79.7434 7.28441Q78.1169 8.86957 75.7564 8.86957ZM39.5784-0.571617Q40.6936-0.571617 41.3549-1.22593Q42.0162-1.88024 41.9817-2.8708L40.3549-56.8928Q40.3549-57.9178 39.666-58.5272Q38.977-59.1367 37.952-59.1367Q36.8643-59.1367 36.2065-58.51Q35.5487-57.8833 35.5487-56.8375L37.175-2.84291Q37.2099-1.81793 37.854-1.19477Q38.4981-0.571617 39.5784-0.571617ZM54.1646-0.571617Q55.2867-0.571617 55.962-1.21222Q56.6372-1.85282 56.6372-2.8708L56.6372-56.8375Q56.6372-57.8555 55.962-58.4961Q55.2867-59.1367 54.1646-59.1367Q53.0773-59.1367 52.3846-58.4961Q51.6919-57.8555 51.6919-56.8375L51.6919-2.8708Q51.6919-1.85282 52.3846-1.21222Q53.0773-0.571617 54.1646-0.571617ZM68.7573-0.516311Q69.8032-0.516311 70.4784-1.15341Q71.1537-1.79051 71.1885-2.81549L72.7805-56.8096Q72.8149-57.8555 72.1259-58.4823Q71.437-59.1092 70.3771-59.1092Q69.3242-59.1092 68.6525-58.4998Q67.9807-57.8903 67.9463-56.8649L66.3544-2.84291Q66.3195-1.85282 66.9775-1.18456Q67.6356-0.516311 68.7573-0.516311ZM33.3051-71.8468L39.2756-71.8468L39.2756-82.176Q39.2756-84.6052 40.781-86.0067Q42.2864-87.4082 44.889-87.4082L63.3779-87.4082Q65.9456-87.4082 67.4647-86.0067Q68.9838-84.6052 68.9838-82.176L68.9838-71.8468L74.9891-71.8468L74.9891-82.522Q74.9891-87.4588 71.9669-90.2629Q68.9448-93.067 63.6691-93.067L44.5633-93.067Q39.3151-93.067 36.3101-90.2629Q33.3051-87.4588 33.3051-82.522Z"/>
  </g>
  <g id="Thin-M" transform="matrix(1 0 0 1 803.03 1126)">
   <path d="M31.6297 14.2913L75.2175 14.2913Q79.2535 14.2913 82.1152 11.5796Q84.9769 8.86785 85.1879 4.91996L89.0693-70.3551L97.5605-70.3551Q98.2871-70.3551 98.7977-70.8973Q99.3084-71.4396 99.3084-72.1154Q99.3084-72.8927 98.7724-73.3842Q98.2364-73.8757 97.5605-73.8757L9.27513-73.8757Q8.56018-73.8757 8.01837-73.3589Q7.47656-72.842 7.47656-72.1154Q7.47656-71.3889 8.01837-70.872Q8.56018-70.3551 9.27513-70.3551L17.7655-70.3551L21.71 4.93157Q21.9086 8.87945 24.7391 11.5854Q27.5696 14.2913 31.6297 14.2913ZM31.7358 10.7707Q29.201 10.7707 27.3142 8.9591Q25.4275 7.14752 25.3028 4.5887L21.409-70.3551L85.2896-70.3551L81.4829 4.5887Q81.3699 7.14752 79.4831 8.9591Q77.5964 10.7707 74.9868 10.7707ZM38.6731-0.073907Q39.4263-0.073907 39.8385-0.524418Q40.2508-0.974929 40.2392-1.60352L38.4538-58.0243Q38.4538-58.6645 37.9913-59.0589Q37.5288-59.4534 36.8886-59.4534Q36.1852-59.4534 35.7538-59.0531Q35.3224-58.6529 35.3224-57.9238L37.107-1.55282Q37.1194-0.912624 37.5259-0.493265Q37.9323-0.073907 38.6731-0.073907ZM53.4178-0.073907Q54.1328-0.073907 54.5704-0.499491Q55.008-0.925075 55.008-1.60352L55.008-57.9238Q55.008-58.6022 54.5704-59.0278Q54.1328-59.4534 53.4178-59.4534Q52.7153-59.4534 52.2715-59.0278Q51.8276-58.6022 51.8276-57.9238L51.8276-1.60352Q51.8276-0.925075 52.2715-0.499491Q52.7153-0.073907 53.4178-0.073907ZM68.1235 0.0266452Q68.8526 0.0266452 69.2902-0.418063Q69.7278-0.86277 69.7403-1.50297L71.5132-57.8731Q71.5248-58.6022 71.0623-59.0029Q70.5997-59.4035 69.9471-59.4035Q69.2562-59.4035 68.7994-59.0091Q68.3427-58.6147 68.3311-57.9736L66.5582-1.55282Q66.5457-0.925075 66.9775-0.449215Q67.4093 0.0266452 68.1235 0.0266452ZM33.2823-72.1635L36.8992-72.1635L36.8992-82.3798Q36.8992-85.2162 38.6422-86.8213Q40.3853-88.4264 43.4859-88.4264L63.2874-88.4264Q66.3756-88.4264 68.1436-86.8213Q69.9115-85.2162 69.9115-82.3798L69.9115-72.1635L73.5409-72.1635L73.5409-82.4992Q73.5409-86.9382 70.8242-89.4368Q68.1075-91.9354 63.3071-91.9354L43.4546-91.9354Q38.704-91.9354 35.9932-89.4368Q33.2823-86.9382 33.2823-82.4992Z"/>
  </g>
  <g id="Ultralight-M" transform="matrix(1 0 0 1 506.707 1126)">
   <path d="M31.4094 14.1523L74.6612 14.1523Q78.3493 14.1523 81.0951 11.5622Q83.841 8.97223 84.0288 5.40683L88.0724-71.1201L97.3287-71.1201Q97.835-71.1201 98.1834-71.5001Q98.5317-71.8801 98.5317-72.324Q98.5317-72.8927 98.1522-73.2103Q97.7727-73.5279 97.3287-73.5279L8.74191-73.5279Q8.23553-73.5279 7.85605-73.1791Q7.47656-72.8303 7.47656-72.324Q7.47656-71.8177 7.85605-71.4689Q8.23553-71.1201 8.74191-71.1201L17.9972-71.1201L22.1042 5.40675Q22.291 8.97215 25.0057 11.5622Q27.7204 14.1523 31.4094 14.1523ZM31.3533 11.7444Q28.6795 11.7444 26.6594 9.81686Q24.6393 7.88931 24.5147 5.21462L20.4701-71.1201L85.475-71.1201L81.4946 5.21462Q81.3699 7.88931 79.3498 9.81686Q77.3297 11.7444 74.5927 11.7444ZM38.2094 0.181018Q38.7772 0.181018 39.0619-0.165109Q39.3466-0.511235 39.3467-0.954426L37.4801-58.6039Q37.4801-59.047 37.1335-59.3313Q36.787-59.6156 36.3438-59.6156Q35.8374-59.6156 35.522-59.3313Q35.2066-59.0471 35.2066-58.4802L37.0721-0.892042Q37.0731-0.44893 37.3578-0.133956Q37.6425 0.181018 38.2094 0.181018ZM53.0353 0.181018Q53.5417 0.181018 53.8576-0.134437Q54.1735-0.449891 54.1735-0.954426L54.1735-58.4802Q54.1735-58.9847 53.8576-59.3001Q53.5417-59.6156 53.0353-59.6156Q52.5299-59.6156 52.2135-59.3001Q51.8972-58.9847 51.8972-58.4802L51.8972-0.954426Q51.8972-0.449891 52.2135-0.134437Q52.5299 0.181018 53.0353 0.181018ZM67.7988 0.304745Q68.3657 0.304745 68.6816-0.0414209Q68.9975-0.387586 68.9985-0.830699L70.8641-58.4178Q70.864-58.9847 70.5174-59.2695Q70.1709-59.5543 69.7268-59.5543Q69.2213-59.5543 68.8747-59.27Q68.5281-58.9857 68.5282-58.5415L66.6626-0.892042Q66.6616-0.449891 66.9775-0.0725733Q67.2935 0.304745 67.7988 0.304745ZM33.2706-72.3258L35.682-72.3258L35.682-82.4841Q35.682-85.5291 37.5468-87.2385Q39.4115-88.948 42.7673-88.948L63.241-88.948Q66.5958-88.948 68.4913-87.2385Q70.3867-85.5291 70.3867-82.4841L70.3867-72.3258L72.7991-72.3258L72.7991-82.4875Q72.7991-86.6716 70.2389-89.0138Q67.6787-91.3559 63.1217-91.3559L42.8867-91.3559Q38.3911-91.3559 35.8309-89.0138Q33.2706-86.6716 33.2706-82.4875Z"/>
  </g>
  <g id="Black-S" transform="matrix(1 0 0 1 2886.43 696)">
   <path d="M29.1992 6.54297L64.7461 6.54297Q70.5566 6.54297 73.8037 3.71094Q77.0508 0.878906 77.2949-4.98047L79.6387-57.6172L82.1289-57.6172Q84.7168-57.6172 86.4014-59.2041Q88.0859-60.791 88.0859-63.3789Q88.0859-65.918 86.4014-67.4805Q84.7168-69.043 82.1289-69.043L11.8164-69.043Q9.22852-69.043 7.54395-67.4805Q5.85938-65.918 5.85938-63.3789Q5.85938-60.791 7.54395-59.2041Q9.22852-57.6172 11.8164-57.6172L14.3066-57.6172L16.6504-4.98047Q16.8945 0.878906 20.1416 3.71094Q23.3887 6.54297 29.1992 6.54297ZM31.0547-5.17578Q29.6875-5.17578 29.0283-6.03027Q28.3691-6.88477 28.2715-8.59375L26.0742-57.6172L67.8711-57.6172L65.6738-8.59375Q65.625-6.88477 64.9414-6.03027Q64.2578-5.17578 62.8906-5.17578ZM35.9863-9.57031Q37.793-9.57031 38.8184-10.6445Q39.8438-11.7188 39.7949-13.4277L38.6719-49.4629Q38.623-51.1719 37.5488-52.1973Q36.4746-53.2227 34.7168-53.2227Q33.0078-53.2227 32.0068-52.1729Q31.0059-51.123 31.0547-49.4141L32.1777-13.3301Q32.2266-11.6699 33.2764-10.6201Q34.3262-9.57031 35.9863-9.57031ZM46.9727-9.57031Q48.6816-9.57031 49.707-10.5957Q50.7324-11.6211 50.7324-13.2812L50.7324-49.5117Q50.7324-51.2207 49.707-52.2217Q48.6816-53.2227 46.9727-53.2227Q45.3125-53.2227 44.2627-52.2217Q43.2129-51.2207 43.2129-49.5117L43.2129-13.2812Q43.2129-11.6211 44.2627-10.5957Q45.3125-9.57031 46.9727-9.57031ZM57.959-9.57031Q59.6191-9.57031 60.6689-10.6201Q61.7188-11.6699 61.7676-13.3301L62.8906-49.4141Q62.9395-51.123 61.9385-52.1729Q60.9375-53.2227 59.2285-53.2227Q57.4707-53.2227 56.3965-52.1973Q55.3223-51.1719 55.2734-49.4629L54.1504-13.4277Q54.1016-11.7188 55.127-10.6445Q56.1523-9.57031 57.959-9.57031ZM26.6602-67.334L38.5742-67.334L38.5742-74.0234Q38.5742-74.8047 39.0869-75.1953Q39.5996-75.5859 40.5762-75.5859L53.3691-75.5859Q54.3457-75.5859 54.8584-75.1953Q55.3711-74.8047 55.3711-74.0234L55.3711-67.334L67.2852-67.334L67.2852-74.2188Q67.2852-79.7363 63.9893-82.5928Q60.6934-85.4492 54.2969-85.4492L39.6484-85.4492Q33.252-85.4492 29.9561-82.5928Q26.6602-79.7363 26.6602-74.2188Z"/>
  </g>
  <g id="Heavy-S" transform="matrix(1 0 0 1 2590.62 696)">
   <path d="M28.3349 5.95522L63.8241 5.95522Q69.2889 5.95522 72.392 3.19234Q75.495 0.429452 75.7391-5.08419L78.1174-58.2165L80.9765-58.2165Q83.2647-58.2165 84.7764-59.6593Q86.2881-61.1022 86.2881-63.3904Q86.2881-65.6414 84.7764-67.0656Q83.2647-68.4898 80.9765-68.4898L11.171-68.4898Q8.89431-68.4898 7.37684-67.0656Q5.85938-65.6414 5.85938-63.3904Q5.85938-61.1022 7.37684-59.6593Q8.89431-58.2165 11.171-58.2165L14.0301-58.2165L16.4199-5.07266Q16.6525 0.440977 19.7498 3.1981Q22.847 5.95522 28.3349 5.95522ZM29.9022-4.54194Q28.5005-4.54194 27.7549-5.43676Q27.0093-6.33159 26.9116-8.01753L24.6337-58.2165L67.4793-58.2165L65.2359-8.01753Q65.1871-6.33159 64.4228-5.43676Q63.6585-4.54194 62.2337-4.54194ZM35.0183-9.3283Q36.6866-9.3283 37.6486-10.3161Q38.6106-11.3039 38.5618-12.8746L37.4388-49.8547Q37.4015-51.4369 36.4021-52.3817Q35.4028-53.3264 33.7833-53.3264Q32.1896-53.3264 31.252-52.3572Q30.3144-51.3881 30.3517-49.8174L31.4747-12.8Q31.5236-11.255 32.4985-10.2917Q33.4734-9.3283 35.0183-9.3283ZM46.0737-9.3283Q47.679-9.3283 48.641-10.2788Q49.603-11.2293 49.603-12.7626L49.603-49.892Q49.603-51.4627 48.641-52.3945Q47.679-53.3264 46.0737-53.3264Q44.5173-53.3264 43.5309-52.3945Q42.5445-51.4627 42.5445-49.892L42.5445-12.7626Q42.5445-11.2293 43.5309-10.2788Q44.5173-9.3283 46.0737-9.3283ZM57.1407-9.3283Q58.6741-9.3283 59.6548-10.2917Q60.6355-11.255 60.6843-12.8L61.7958-49.8174Q61.8446-51.3881 60.9013-52.3572Q59.9579-53.3264 58.3642-53.3264Q56.7447-53.3264 55.7511-52.3817Q54.7576-51.4369 54.7087-49.8547L53.5972-12.8746Q53.5484-11.3039 54.5046-10.3161Q55.4609-9.3283 57.1407-9.3283ZM26.5334-66.4581L37.272-66.4581L37.272-73.5048Q37.272-74.459 37.8884-74.9706Q38.5048-75.4822 39.6196-75.4822L52.5163-75.4822Q53.6197-75.4822 54.2361-74.9706Q54.8525-74.459 54.8525-73.5048L54.8525-66.4581L65.6026-66.4581L65.6026-73.7693Q65.6026-79.0103 62.4565-81.7803Q59.3104-84.5503 53.3403-84.5503L38.7841-84.5503Q32.814-84.5503 29.6737-81.7803Q26.5334-79.0103 26.5334-73.7693Z"/>
  </g>
  <g id="Bold-S" transform="matrix(1 0 0 1 2294.91 696)">
   <path d="M27.3682 5.29785L62.793 5.29785Q67.8711 5.29785 70.813 2.6123Q73.7549-0.0732422 73.999-5.2002L76.416-58.8867L79.6875-58.8867Q81.6406-58.8867 82.959-60.1685Q84.2773-61.4502 84.2773-63.4033Q84.2773-65.332 82.959-66.6016Q81.6406-67.8711 79.6875-67.8711L10.4492-67.8711Q8.52051-67.8711 7.18994-66.6016Q5.85938-65.332 5.85938-63.4033Q5.85938-61.4502 7.18994-60.1685Q8.52051-58.8867 10.4492-58.8867L13.7207-58.8867L16.1621-5.17578Q16.3818-0.0488281 19.3115 2.62451Q22.2412 5.29785 27.3682 5.29785ZM28.6133-3.83301Q27.1729-3.83301 26.3306-4.77295Q25.4883-5.71289 25.3906-7.37305L23.0225-58.8867L67.041-58.8867L64.7461-7.37305Q64.6973-5.71289 63.8428-4.77295Q62.9883-3.83301 61.499-3.83301ZM33.9355-9.05762Q35.4492-9.05762 36.3403-9.94873Q37.2314-10.8398 37.1826-12.2559L36.0596-50.293Q36.0352-51.7334 35.1196-52.5879Q34.2041-53.4424 32.7393-53.4424Q31.2744-53.4424 30.4077-52.5635Q29.541-51.6846 29.5654-50.2686L30.6885-12.207Q30.7373-10.791 31.6284-9.92432Q32.5195-9.05762 33.9355-9.05762ZM45.0684-9.05762Q46.5576-9.05762 47.4487-9.92432Q48.3398-10.791 48.3398-12.1826L48.3398-50.3174Q48.3398-51.7334 47.4487-52.5879Q46.5576-53.4424 45.0684-53.4424Q43.6279-53.4424 42.7124-52.5879Q41.7969-51.7334 41.7969-50.3174L41.7969-12.1826Q41.7969-10.791 42.7124-9.92432Q43.6279-9.05762 45.0684-9.05762ZM56.2256-9.05762Q57.6172-9.05762 58.5205-9.92432Q59.4238-10.791 59.4727-12.207L60.5713-50.2686Q60.6201-51.6846 59.7412-52.5635Q58.8623-53.4424 57.3975-53.4424Q55.9326-53.4424 55.0293-52.5879Q54.126-51.7334 54.0771-50.293L52.9785-12.2559Q52.9297-10.8398 53.8086-9.94873Q54.6875-9.05762 56.2256-9.05762ZM26.3916-65.4785L35.8154-65.4785L35.8154-72.9248Q35.8154-74.0723 36.5479-74.7192Q37.2803-75.3662 38.5498-75.3662L51.5625-75.3662Q52.8076-75.3662 53.54-74.7192Q54.2725-74.0723 54.2725-72.9248L54.2725-65.4785L63.7207-65.4785L63.7207-73.2666Q63.7207-78.1982 60.7422-80.8716Q57.7637-83.5449 52.2705-83.5449L37.8174-83.5449Q32.3242-83.5449 29.3579-80.8716Q26.3916-78.1982 26.3916-73.2666Z"/>
  </g>
  <g id="Semibold-S" transform="matrix(1 0 0 1 1998.89 696)">
   <path d="M26.7017 4.84463L62.082 4.84463Q66.8936 4.84463 69.7244 2.2124Q72.5552-0.419824 72.7993-5.28018L75.243-59.3488L78.7988-59.3488Q80.5209-59.3488 81.706-60.5195Q82.891-61.6901 82.891-63.4122Q82.891-65.1188 81.706-66.2816Q80.5209-67.4445 78.7988-67.4445L9.95156-67.4445Q8.26279-67.4445 7.06108-66.2816Q5.85938-65.1188 5.85938-63.4122Q5.85938-61.6901 7.06108-60.5195Q8.26279-59.3488 9.95156-59.3488L13.5074-59.3488L15.9844-5.24688Q16.1952-0.386523 19.0094 2.22905Q21.8235 4.84463 26.7017 4.84463ZM27.7246-3.34424Q26.2575-3.34424 25.3486-4.31528Q24.4396-5.28633 24.342-6.92871L21.9116-59.3488L66.7389-59.3488L64.4084-6.92871Q64.3596-5.28633 63.4429-4.31528Q62.5262-3.34424 60.9925-3.34424ZM33.1891-8.871Q34.5961-8.871 35.4383-9.69546Q36.2806-10.5199 36.2317-11.8293L35.1087-50.5951Q35.0932-51.9378 34.2354-52.7301Q33.3776-53.5224 32.0194-53.5224Q30.6435-53.5224 29.8256-52.7057Q29.0078-51.889 29.0233-50.5796L30.1464-11.7982Q30.1952-10.4711 31.0286-9.67104Q31.8619-8.871 33.1891-8.871ZM44.3752-8.871Q45.7845-8.871 46.6267-9.67993Q47.4689-10.4889 47.4689-11.7827L47.4689-50.6106Q47.4689-51.92 46.6267-52.7212Q45.7845-53.5224 44.3752-53.5224Q43.0147-53.5224 42.1481-52.7212Q41.2814-51.92 41.2814-50.6106L41.2814-11.7827Q41.2814-10.4889 42.1481-9.67993Q43.0147-8.871 44.3752-8.871ZM55.5946-8.871Q56.8885-8.871 57.7385-9.67104Q58.5885-10.4711 58.6373-11.7982L59.7271-50.5796Q59.7759-51.889 58.9414-52.7057Q58.1069-53.5224 56.731-53.5224Q55.3728-53.5224 54.5316-52.7301Q53.6905-51.9378 53.6417-50.5951L52.552-11.8293Q52.5031-10.5199 53.3287-9.69546Q54.1543-8.871 55.5946-8.871ZM26.2938-64.8031L34.8112-64.8031L34.8112-72.5249Q34.8112-73.8057 35.6236-74.5459Q36.436-75.2862 37.8122-75.2862L50.9049-75.2862Q52.2478-75.2862 53.0602-74.5459Q53.8726-73.8057 53.8726-72.5249L53.8726-64.8031L62.4232-64.8031L62.4232-72.92Q62.4232-77.6384 59.5603-80.2451Q56.6973-82.8518 51.5329-82.8518L37.1509-82.8518Q31.9865-82.8518 29.1402-80.2451Q26.2938-77.6384 26.2938-72.92Z"/>
  </g>
  <g id="Medium-S" transform="matrix(1 0 0 1 1702.71 696)">
   <path d="M26.1963 4.50098L61.543 4.50098Q66.1523 4.50098 68.8989 1.90918Q71.6455-0.682617 71.8896-5.34082L74.3535-59.6992L78.125-59.6992Q79.6719-59.6992 80.7559-60.7856Q81.8398-61.8721 81.8398-63.4189Q81.8398-64.957 80.7559-66.0391Q79.6719-67.1211 78.125-67.1211L9.57422-67.1211Q8.06738-67.1211 6.96338-66.0391Q5.85938-64.957 5.85938-63.4189Q5.85938-61.8721 6.96338-60.7856Q8.06738-59.6992 9.57422-59.6992L13.3457-59.6992L15.8496-5.30078Q16.0537-0.642578 18.7803 1.9292Q21.5068 4.50098 26.1963 4.50098ZM27.0508-2.97363Q25.5635-2.97363 24.604-3.96826Q23.6445-4.96289 23.5469-6.5918L21.0693-59.6992L66.5098-59.6992L64.1523-6.5918Q64.1035-4.96289 63.1396-3.96826Q62.1758-2.97363 60.6084-2.97363ZM32.623-8.72949Q33.9492-8.72949 34.7544-9.50342Q35.5596-10.2773 35.5107-11.5059L34.3877-50.8242Q34.3789-52.0928 33.5649-52.8379Q32.751-53.583 31.4736-53.583Q30.165-53.583 29.3843-52.8135Q28.6035-52.0439 28.6123-50.8154L29.7354-11.4883Q29.7842-10.2285 30.5737-9.479Q31.3633-8.72949 32.623-8.72949ZM43.8496-8.72949Q45.1982-8.72949 46.0034-9.49463Q46.8086-10.2598 46.8086-11.4795L46.8086-50.833Q46.8086-52.0615 46.0034-52.8223Q45.1982-53.583 43.8496-53.583Q42.5498-53.583 41.7202-52.8223Q40.8906-52.0615 40.8906-50.833L40.8906-11.4795Q40.8906-10.2598 41.7202-9.49463Q42.5498-8.72949 43.8496-8.72949ZM55.1162-8.72949Q56.3359-8.72949 57.1455-9.479Q57.9551-10.2285 58.0039-11.4883L59.0869-50.8154Q59.1357-52.0439 58.335-52.8135Q57.5342-53.583 56.2256-53.583Q54.9482-53.583 54.1543-52.8379Q53.3604-52.0928 53.3115-50.8242L52.2285-11.5059Q52.1797-10.2773 52.9648-9.50342Q53.75-8.72949 55.1162-8.72949ZM26.2197-64.291L34.0498-64.291L34.0498-72.2217Q34.0498-73.6035 34.9229-74.4146Q35.7959-75.2256 37.2529-75.2256L50.4062-75.2256Q51.8232-75.2256 52.6963-74.4146Q53.5693-73.6035 53.5693-72.2217L53.5693-64.291L61.4395-64.291L61.4395-72.6572Q61.4395-77.2139 58.6641-79.77Q55.8887-82.3262 50.9736-82.3262L36.6455-82.3262Q31.7305-82.3262 28.9751-79.77Q26.2197-77.2139 26.2197-72.6572Z"/>
  </g>
  <g id="Regular-S" transform="matrix(1 0 0 1 1406.68 696)">
   <path d="M25.5371 4.05273L60.8398 4.05273Q65.1855 4.05273 67.8223 1.51367Q70.459-1.02539 70.7031-5.41992L73.1934-60.1562L77.2461-60.1562Q78.5645-60.1562 79.5166-61.1328Q80.4688-62.1094 80.4688-63.4277Q80.4688-64.7461 79.5166-65.7227Q78.5645-66.6992 77.2461-66.6992L9.08203-66.6992Q7.8125-66.6992 6.83594-65.7227Q5.85938-64.7461 5.85938-63.4277Q5.85938-62.1094 6.83594-61.1328Q7.8125-60.1562 9.08203-60.1562L13.1348-60.1562L15.6738-5.37109Q15.8691-0.976562 18.4814 1.53809Q21.0938 4.05273 25.5371 4.05273ZM26.1719-2.49023Q24.6582-2.49023 23.6328-3.51562Q22.6074-4.54102 22.5098-6.15234L19.9707-60.1562L66.2109-60.1562L63.8184-6.15234Q63.7695-4.54102 62.7441-3.51562Q61.7188-2.49023 60.1074-2.49023ZM31.8848-8.54492Q33.1055-8.54492 33.8623-9.25293Q34.6191-9.96094 34.5703-11.084L33.4473-51.123Q33.4473-52.2949 32.6904-52.9785Q31.9336-53.6621 30.7617-53.6621Q29.541-53.6621 28.8086-52.9541Q28.0762-52.2461 28.0762-51.123L29.1992-11.084Q29.248-9.91211 29.9805-9.22852Q30.7129-8.54492 31.8848-8.54492ZM43.1641-8.54492Q44.4336-8.54492 45.1904-9.25293Q45.9473-9.96094 45.9473-11.084L45.9473-51.123Q45.9473-52.2461 45.1904-52.9541Q44.4336-53.6621 43.1641-53.6621Q41.9434-53.6621 41.1621-52.9541Q40.3809-52.2461 40.3809-51.123L40.3809-11.084Q40.3809-9.96094 41.1621-9.25293Q41.9434-8.54492 43.1641-8.54492ZM54.4922-8.54492Q55.6152-8.54492 56.3721-9.22852Q57.1289-9.91211 57.1777-11.084L58.252-51.123Q58.3008-52.2461 57.5439-52.9541Q56.7871-53.6621 55.5664-53.6621Q54.3945-53.6621 53.6621-52.9785Q52.9297-52.2949 52.8809-51.123L51.8066-11.084Q51.7578-9.96094 52.4902-9.25293Q53.2227-8.54492 54.4922-8.54492ZM26.123-63.623L33.0566-63.623L33.0566-71.8262Q33.0566-73.3398 34.0088-74.2432Q34.9609-75.1465 36.5234-75.1465L49.7559-75.1465Q51.2695-75.1465 52.2217-74.2432Q53.1738-73.3398 53.1738-71.8262L53.1738-63.623L60.1562-63.623L60.1562-72.3145Q60.1562-76.6602 57.4951-79.1504Q54.834-81.6406 50.2441-81.6406L35.9863-81.6406Q31.3965-81.6406 28.7598-79.1504Q26.123-76.6602 26.123-72.3145Z"/>
  </g>
  <g id="Light-S" transform="matrix(1 0 0 1 1110.48 696)">
   <path d="M25.2495 3.87115L60.1133 3.87115Q64.0048 3.87115 66.4902 1.49104Q68.9756-0.889079 69.1895-4.78414L71.8915-61.1552L76.9435-61.1552Q77.9742-61.1552 78.7144-61.9199Q79.4545-62.6846 79.4545-63.7001Q79.4545-64.7461 78.7067-65.4956Q77.9589-66.245 76.9435-66.245L8.38572-66.245Q7.38856-66.245 6.62397-65.4879Q5.85938-64.7308 5.85938-63.7001Q5.85938-62.6694 6.62397-61.9123Q7.38856-61.1552 8.38572-61.1552L13.4374-61.1552L16.1886-4.75057Q16.3686-0.855509 18.8296 1.50782Q21.2906 3.87115 25.2495 3.87115ZM25.6724-1.21867Q23.9772-1.21867 22.7777-2.3955Q21.5782-3.57234 21.4806-5.33498L18.7447-61.1552L66.453-61.1552L63.8336-5.33498Q63.7695-3.57234 62.5701-2.3955Q61.3706-1.21867 59.5927-1.21867ZM31.2792-8.21203Q32.2578-8.21203 32.8481-8.78372Q33.4384-9.35542 33.4048-10.2364L32.1757-51.8799Q32.1757-52.7944 31.5703-53.3342Q30.9649-53.874 30.0504-53.874Q29.0868-53.874 28.5058-53.3174Q27.9249-52.7608 27.9249-51.8496L29.1537-10.2211Q29.1875-9.30659 29.761-8.75931Q30.3345-8.21203 31.2792-8.21203ZM42.6646-8.21203Q43.6618-8.21203 44.2596-8.77622Q44.8575-9.34041 44.8575-10.2364L44.8575-51.8496Q44.8575-52.7456 44.2596-53.3098Q43.6618-53.874 42.6646-53.874Q41.7013-53.874 41.0865-53.3098Q40.4716-52.7456 40.4716-51.8496L40.4716-10.2364Q40.4716-9.34041 41.0865-8.77622Q41.7013-8.21203 42.6646-8.21203ZM54.0682-8.18176Q54.9795-8.18176 55.5773-8.73667Q56.1752-9.29159 56.2091-10.2061L57.4043-51.8344Q57.4379-52.7456 56.8325-53.3023Q56.2271-53.8589 55.2788-53.8589Q54.349-53.8589 53.7604-53.3192Q53.1718-52.7794 53.1382-51.8646L51.943-10.2211Q51.9091-9.34041 52.4902-8.76109Q53.0713-8.18176 54.0682-8.18176ZM26.1078-63.8349L31.4672-63.8349L31.4672-71.9625Q31.4672-73.7485 32.5783-74.788Q33.6894-75.8275 35.585-75.8275L49.6953-75.8275Q51.5572-75.8275 52.6758-74.788Q53.7944-73.7485 53.7944-71.9625L53.7944-63.8349L59.1876-63.8349L59.1876-72.2992Q59.1876-76.312 56.7308-78.5979Q54.274-80.8838 50.002-80.8838L35.2448-80.8838Q30.9878-80.8838 28.5478-78.5979Q26.1078-76.312 26.1078-72.2992Z"/>
  </g>
  <g id="Thin-S" transform="matrix(1 0 0 1 814.436 696)">
   <path d="M24.8691 3.631L59.1523 3.631Q62.4431 3.631 64.7284 1.4611Q67.0136-0.708795 67.1875-3.94326L70.1698-62.4764L76.5432-62.4764Q77.1935-62.4764 77.6534-62.9609Q78.1132-63.4455 78.1132-64.0603Q78.1132-64.7461 77.6356-65.1952Q77.1581-65.6443 76.5432-65.6443L7.4648-65.6443Q6.82787-65.6443 6.34362-65.1775Q5.85938-64.7107 5.85938-64.0603Q5.85938-63.41 6.34362-62.9432Q6.82787-62.4764 7.4648-62.4764L13.8377-62.4764L16.8693-3.92988Q17.0292-0.695407 19.2901 1.4678Q21.5509 3.631 24.8691 3.631ZM25.0118 0.46308Q23.0764 0.46308 21.6467-0.914051Q20.217-2.29118 20.1194-4.25395L17.1231-62.4764L66.7732-62.4764L63.8538-4.25395Q63.7695-2.29118 62.3398-0.914051Q60.9101 0.46308 58.9119 0.46308ZM30.4784-7.77174Q31.1368-7.77174 31.5067-8.16316Q31.8767-8.55457 31.8633-9.11531L30.494-52.8809Q30.494-53.455 30.0889-53.8046Q29.6838-54.1541 29.1096-54.1541Q28.4861-54.1541 28.1054-53.7979Q27.7247-53.4416 27.7247-52.8106L29.0935-9.07987Q29.1075-8.50574 29.4707-8.13874Q29.834-7.77174 30.4784-7.77174ZM42.004-7.77174Q42.6409-7.77174 43.0286-8.14573Q43.4163-8.51972 43.4163-9.11531L43.4163-52.8106Q43.4163-53.4062 43.0286-53.7801Q42.6409-54.1541 42.004-54.1541Q41.381-54.1541 40.9864-53.7801Q40.5917-53.4062 40.5917-52.8106L40.5917-9.11531Q40.5917-8.51972 40.9864-8.14573Q41.381-7.77174 42.004-7.77174ZM53.5076-7.70146Q54.1386-7.70146 54.5262-8.08617Q54.9139-8.47089 54.9279-9.04502L56.2833-52.7751Q56.2967-53.4062 55.8916-53.7627Q55.4865-54.1193 54.8984-54.1193Q54.2888-54.1193 53.8904-53.7697Q53.492-53.4201 53.4786-52.8454L52.1232-9.07987Q52.1093-8.51972 52.4902-8.11059Q52.8712-7.70146 53.5076-7.70146ZM26.0876-64.1151L29.365-64.1151L29.365-72.1428Q29.365-74.289 30.6863-75.5087Q32.0076-76.7283 34.3439-76.7283L49.6153-76.7283Q51.9376-76.7283 53.2763-75.5087Q54.615-74.289 54.615-72.1428L54.615-64.1151L57.9064-64.1151L57.9064-72.279Q57.9064-75.8515 55.7199-77.8672Q53.5333-79.8828 49.6818-79.8828L34.264-79.8828Q30.4473-79.8828 28.2674-77.8672Q26.0876-75.8515 26.0876-72.279Z"/>
  </g>
  <g id="Ultralight-S" transform="matrix(1 0 0 1 518.068 696)">
   <path d="M24.6742 3.508L58.6601 3.508Q61.6432 3.508 63.826 1.44577Q66.0088-0.616455 66.1621-3.51257L69.2879-63.1531L76.3382-63.1531Q76.7937-63.1531 77.1099-63.4941Q77.4261-63.8351 77.4261-64.2448Q77.4261-64.7461 77.087-65.0414Q76.7479-65.3366 76.3382-65.3366L6.9931-65.3366Q6.54068-65.3366 6.20003-65.0185Q5.85938-64.7003 5.85938-64.2448Q5.85938-63.7894 6.20003-63.4712Q6.54068-63.1531 6.9931-63.1531L14.0427-63.1531L17.218-3.50952Q17.3676-0.613403 19.5259 1.4473Q21.6843 3.508 24.6742 3.508ZM24.6735 1.32446Q22.6151 1.32446 21.0674-0.155258Q19.5198-1.63498 19.4221-3.70026L16.2926-63.1531L66.9373-63.1531L63.8641-3.70026Q63.7695-1.63498 62.2219-0.155258Q60.6743 1.32446 58.5632 1.32446ZM30.0682-7.54623Q30.5626-7.54623 30.8197-7.84531Q31.0768-8.14438 31.0738-8.54111L29.6326-53.3936Q29.6326-53.7933 29.3301-54.0455Q29.0276-54.2976 28.6278-54.2976Q28.1784-54.2976 27.9003-54.044Q27.6222-53.7903 27.6222-53.3028L29.0627-8.49533Q29.0665-8.09555 29.3221-7.82089Q29.5776-7.54623 30.0682-7.54623ZM41.6656-7.54623Q42.1181-7.54623 42.3981-7.8228Q42.6781-8.09937 42.6781-8.54111L42.6781-53.3028Q42.6781-53.7445 42.3981-54.0211Q42.1181-54.2976 41.6656-54.2976Q41.217-54.2976 40.9351-54.0211Q40.6532-53.7445 40.6532-53.3028L40.6532-8.54111Q40.6532-8.09937 40.9351-7.8228Q41.217-7.54623 41.6656-7.54623ZM53.2204-7.45544Q53.7079-7.45544 53.9879-7.75299Q54.2679-8.05054 54.2717-8.45032L55.7091-53.257Q55.7121-53.7445 55.4096-53.9986Q55.1071-54.2526 54.7035-54.2526Q54.258-54.2526 53.957-54.0005Q53.656-53.7483 53.653-53.3478L52.2156-8.49533Q52.2118-8.09937 52.4902-7.7774Q52.7687-7.45544 53.2204-7.45544ZM26.0773-64.2586L28.2883-64.2586L28.2883-72.2351Q28.2883-74.5659 29.7173-75.8778Q31.1462-77.1896 33.7082-77.1896L49.5743-77.1896Q52.1324-77.1896 53.5839-75.8778Q55.0354-74.5659 55.0354-72.2351L55.0354-64.2586L57.2502-64.2586L57.2502-72.2687Q57.2502-75.6157 55.2021-77.4929Q53.154-79.3701 49.5178-79.3701L33.7616-79.3701Q30.1704-79.3701 28.1239-77.4929Q26.0773-75.6157 26.0773-72.2687Z"/>
  </g>
 </g>
</svg>
