<svg width="96" height="109" viewBox="0 0 96 109" fill="none" xmlns="http://www.w3.org/2000/svg">
<path d="M25.505 108.768H70.2453C73.731 108.768 76.5602 107.725 78.7328 105.639C80.9054 103.553 82.0886 100.757 82.2822 97.2507L85.6074 26.2676H91.4752C92.463 26.2676 93.3126 25.9015 94.0241 25.1692C94.7354 24.4369 95.0911 23.5804 95.0911 22.5997C95.0911 21.6048 94.7338 20.7447 94.0191 20.0195C93.3039 19.2943 92.456 18.9317 91.4752 18.9317H4.22342C3.27005 18.9317 2.42725 19.2961 1.69502 20.0249C0.962793 20.7537 0.59668 21.6119 0.59668 22.5997C0.59668 23.5875 0.962793 24.4458 1.69502 25.1745C2.42725 25.9032 3.27005 26.2676 4.22342 26.2676H10.091L13.4787 97.3024C13.6378 100.809 14.7933 103.596 16.9451 105.665C19.097 107.734 21.9503 108.768 25.505 108.768ZM26.1673 101.432C24.7953 101.432 23.6327 100.961 22.6795 100.018C21.7264 99.0756 21.2083 97.8837 21.1251 96.4427L17.7481 26.2676H77.774L74.563 96.4427C74.5144 97.8837 74.0135 99.0756 73.0603 100.018C72.1071 100.961 70.9065 101.432 69.4584 101.432H26.1673ZM33.383 93.0521C34.3089 93.0521 35.055 92.7826 35.6214 92.2437C36.1879 91.7047 36.4539 91.0139 36.4194 90.171L34.9125 37.9628C34.9125 37.0855 34.6258 36.3896 34.0523 35.8748C33.4789 35.3602 32.7535 35.1028 31.8762 35.1028C30.9573 35.1028 30.2215 35.3688 29.6688 35.9007C29.1162 36.4326 28.8398 37.127 28.8398 37.9839L30.3466 90.1817C30.3812 91.0589 30.673 91.7567 31.2222 92.2748C31.7714 92.793 32.4917 93.0521 33.383 93.0521ZM47.8493 93.0521C48.8027 93.0521 49.5644 92.7844 50.1343 92.2489C50.7043 91.7135 50.9892 91.0208 50.9892 90.171V37.9839C50.9892 37.1341 50.7043 36.4415 50.1343 35.906C49.5644 35.3705 48.8027 35.1028 47.8493 35.1028C46.9305 35.1028 46.1775 35.3705 45.5902 35.906C45.003 36.4415 44.7094 37.1341 44.7094 37.9839V90.171C44.7094 91.0208 45.003 91.7135 45.5902 92.2489C46.1775 92.7844 46.9305 93.0521 47.8493 93.0521ZM62.3566 93.0732C63.2136 93.0732 63.927 92.8123 64.4969 92.2906C65.0669 91.7689 65.3691 91.0694 65.4037 90.1921L66.8588 37.9945C66.8932 37.1376 66.6237 36.4432 66.0503 35.9112C65.4768 35.3793 64.7342 35.1133 63.8223 35.1133C62.938 35.1133 62.2177 35.3706 61.6615 35.8853C61.1053 36.4 60.8099 37.096 60.7755 37.9734L59.3204 90.1817C59.2858 91.0244 59.5449 91.717 60.0976 92.2595C60.6504 92.8019 61.4034 93.0732 62.3566 93.0732ZM26.4425 22.3927H34.1924V11.9781C34.1924 10.5639 34.6344 9.44098 35.5182 8.60931C36.402 7.77758 37.5859 7.36172 39.0699 7.36172H56.5664C58.0158 7.36172 59.1842 7.77758 60.0715 8.60931C60.9588 9.44098 61.4024 10.5639 61.4024 11.9781V22.3927H69.2043V11.4607C69.2043 7.91872 68.1199 5.13602 65.9511 3.11262C63.7823 1.08922 60.8196 0.0775146 57.0629 0.0775146H38.5217C34.772 0.0775146 31.8214 1.08922 29.6698 3.11262C27.5183 5.13602 26.4425 7.91872 26.4425 11.4607V22.3927Z" fill="#FF0000"/>
</svg>
