<svg width="101" height="124" viewBox="0 0 101 124" fill="none" xmlns="http://www.w3.org/2000/svg">
<path d="M24.5959 27.3133H32.4494V15.7352C32.4494 13.3164 33.0956 11.4469 34.3881 10.1266C35.6805 8.80636 37.5985 8.14622 40.142 8.14622H61.695V33.1665C61.695 35.9889 62.3918 38.0899 63.7855 39.4695C65.1791 40.8491 67.2558 41.5389 70.0157 41.5389H92.8578V83.275C92.8578 85.7149 92.2098 87.5897 90.9138 88.8995C89.6178 90.2092 87.719 90.8641 85.2174 90.8641H75.5618V98.7176H85.6008C90.6374 98.7176 94.4238 97.4428 96.9598 94.8931C99.4958 92.3435 100.764 88.5123 100.764 83.3996V43.7874C100.764 40.7894 100.406 38.2453 99.6908 36.1552C98.9754 34.0652 97.7088 32.0904 95.8908 30.231L71.2285 5.16553C69.4727 3.37513 67.5583 2.11539 65.4855 1.38632C63.4126 0.657255 61.067 0.292725 58.4486 0.292725H39.707C34.6774 0.292725 30.9014 1.57616 28.3792 4.14303C25.857 6.70989 24.5959 10.5324 24.5959 15.6106V27.3133ZM68.772 32.0383V11.9839L90.8248 34.4616H71.1849C69.5763 34.4616 68.772 33.6539 68.772 32.0383ZM0.930664 107.764C0.930664 112.877 2.19003 116.708 4.70876 119.258C7.22743 121.807 11.0051 123.082 16.0417 123.082H61.9355C66.9722 123.082 70.7585 121.799 73.2944 119.232C75.8303 116.665 77.0983 112.842 77.0983 107.764V69.661C77.0983 66.53 76.8165 64.0814 76.2529 62.3152C75.6893 60.549 74.4296 58.6708 72.4737 56.6804L45.5304 29.282C43.678 27.3606 41.8619 26.1094 40.082 25.5285C38.3021 24.9477 36.0329 24.6572 33.2744 24.6572H16.0417C11.012 24.6572 7.2361 25.9407 4.71396 28.5076C2.19176 31.0746 0.930664 34.8971 0.930664 39.9752V107.764ZM8.78416 107.64V40.0998C8.78416 37.681 9.4304 35.8115 10.7229 34.4911C12.0154 33.1709 13.9334 32.5107 16.4768 32.5107H32.4754V60.8177C32.4754 63.9163 33.2482 66.2227 34.794 67.7371C36.3397 69.2515 38.6305 70.0087 41.6664 70.0087H69.193V107.64C69.193 110.08 68.5536 111.954 67.2748 113.264C65.996 114.574 64.0885 115.229 61.5522 115.229H16.425C13.9161 115.229 12.0154 114.574 10.7229 113.264C9.4304 111.954 8.78416 110.08 8.78416 107.64ZM42.5674 62.6727C40.7301 62.6727 39.8115 61.7541 39.8115 59.9168V34.287L67.6797 62.6727H42.5674Z" fill="black"/>
</svg>
