<svg width="108" height="108" viewBox="0 0 108 108" fill="none" xmlns="http://www.w3.org/2000/svg">
<path d="M107.356 80.5699C107.356 79.4026 107.007 78.4994 106.31 77.8604C105.612 77.2215 104.669 76.902 103.481 76.902H33.0665C32.1329 76.902 31.666 76.418 31.666 75.45V5.07824C31.666 3.85591 31.3052 2.86827 30.5835 2.11534C29.8619 1.36234 28.9174 0.98584 27.75 0.98584C26.5552 0.98584 25.602 1.36234 24.8904 2.11534C24.1789 2.86827 23.8231 3.85591 23.8231 5.07824V80.3495C23.8231 81.5386 24.1739 82.4839 24.8755 83.1855C25.5771 83.8871 26.519 84.2379 27.7011 84.2379H103.481C104.669 84.2379 105.612 83.908 106.31 83.2483C107.007 82.5886 107.356 81.6958 107.356 80.5699ZM0.339844 28.137C0.339844 29.27 0.68871 30.1645 1.38644 30.8207C2.08418 31.4769 3.02698 31.805 4.21484 31.805H74.6298C75.5978 31.805 76.0817 32.2718 76.0817 33.2053V103.629C76.0817 104.844 76.434 105.828 77.1384 106.581C77.843 107.334 78.7926 107.711 79.9874 107.711C81.1548 107.711 82.1029 107.334 82.8316 106.581C83.5604 105.828 83.9247 104.844 83.9247 103.629V28.2953C83.9247 27.1477 83.5653 26.2145 82.8464 25.4955C82.1276 24.7767 81.1943 24.4172 80.0466 24.4172H4.21484C3.02698 24.4172 2.08418 24.7557 1.38644 25.4327C0.68871 26.1098 0.339844 27.0112 0.339844 28.137Z" fill="black"/>
</svg>
