<svg width="101" height="124" viewBox="0 0 101 124" fill="none" xmlns="http://www.w3.org/2000/svg">
<path d="M24.5968 29.2367H39.65L74.8075 64.6318V98.7176H85.6017C90.6384 98.7176 94.4247 97.4428 96.9607 94.8931C99.4967 92.3435 100.765 88.5123 100.765 83.3996V15.6106C100.765 10.5324 99.4967 6.70989 96.9607 4.14303C94.4247 1.57616 90.6384 0.292725 85.6017 0.292725H39.7079C34.6783 0.292725 30.9024 1.56753 28.3801 4.11713C25.8579 6.66679 24.5968 10.498 24.5968 15.6106V29.2367ZM50.7648 17.032C49.7066 17.032 48.9216 16.7381 48.4098 16.1502C47.898 15.5624 47.642 14.8985 47.642 14.1585V13.1003C47.642 12.3604 47.898 11.6965 48.4098 11.1086C48.9216 10.5208 49.7066 10.2268 50.7648 10.2268H74.5964C75.6476 10.2268 76.4291 10.5208 76.9409 11.1086C77.4528 11.6965 77.7087 12.3604 77.7087 13.1003V14.1585C77.7087 14.8985 77.4528 15.5624 76.9409 16.1502C76.4291 16.7381 75.6476 17.032 74.5964 17.032H50.7648ZM0.931641 107.764C0.931641 112.877 2.19101 116.708 4.70974 119.258C7.22841 121.807 11.006 123.082 16.0426 123.082H61.9364C66.9732 123.082 70.7595 121.799 73.2953 119.232C75.8313 116.665 77.0992 112.842 77.0992 107.764V69.661C77.0992 66.53 76.8174 64.0814 76.2538 62.3152C75.6903 60.549 74.4306 58.6708 72.4746 56.6804L45.5313 29.282C43.679 27.3606 41.8629 26.1094 40.0829 25.5285C38.3031 24.9477 36.0339 24.6572 33.2753 24.6572H16.0426C11.013 24.6572 7.23707 25.9407 4.71494 28.5076C2.19274 31.0746 0.931641 34.8971 0.931641 39.9752V107.764ZM8.78514 107.64V40.0998C8.78514 37.681 9.43137 35.8115 10.7238 34.4911C12.0164 33.1709 13.9343 32.5107 16.4777 32.5107H32.4763V60.8177C32.4763 63.9163 33.2492 66.2227 34.7949 67.7371C36.3407 69.2515 38.6315 70.0087 41.6673 70.0087H69.1939V107.64C69.1939 110.08 68.5545 111.954 67.2757 113.264C65.997 114.574 64.0895 115.229 61.5531 115.229H16.4259C13.9171 115.229 12.0164 114.574 10.7238 113.264C9.43137 111.954 8.78514 110.08 8.78514 107.64ZM42.5683 62.6727C40.7311 62.6727 39.8124 61.7541 39.8124 59.9168V34.287L67.6806 62.6727H42.5683Z" fill="black"/>
</svg>
