<svg width="50" height="48" viewBox="0 0 50 48" fill="none" xmlns="http://www.w3.org/2000/svg">
<path d="M6.59092 41.0954H10.9584V37.7504H6.54473C5.56372 37.7504 4.82239 37.4996 4.32077 36.998C3.81917 36.4964 3.56837 35.7533 3.56837 34.7689V13.7163C3.56837 12.7353 3.81917 11.9931 4.32077 11.4898C4.82239 10.9865 5.56372 10.7348 6.54473 10.7348H43.4607C44.4226 10.7348 45.1545 10.9865 45.6562 11.4898C46.1578 11.9931 46.4087 12.7353 46.4087 13.7163V34.7689C46.4087 35.7533 46.1578 36.4964 45.6562 36.998C45.1545 37.4996 44.4226 37.7504 43.4607 37.7504H39.3162V41.0954H43.409C45.5557 41.0954 47.1908 40.5498 48.3145 39.4586C49.4382 38.3674 50 36.752 50 34.6123V13.878C50 11.735 49.4382 10.1178 48.3145 9.02664C47.1908 7.93543 45.5557 7.38983 43.409 7.38983H6.59092C4.54026 7.38983 2.92911 7.93543 1.75748 9.02664C0.585828 10.1178 0 11.735 0 13.878V34.6123C0 36.752 0.558869 38.3674 1.67661 39.4586C2.79435 40.5498 4.43245 41.0954 6.59092 41.0954ZM13.1441 47.6483H36.8611C38.2614 47.6483 39.3158 47.3141 40.0244 46.6456C40.7331 45.977 41.0875 44.9024 41.0875 43.4217V25.3763C41.0875 23.9109 40.7331 22.841 40.0244 22.1666C39.3158 21.4921 38.2614 21.1548 36.8611 21.1548H13.1441C11.802 21.1548 10.762 21.4921 10.0242 22.1666C9.28641 22.841 8.91752 23.9109 8.91752 25.3763V43.4217C8.91752 44.9024 9.27102 45.977 9.978 46.6456C10.685 47.3141 11.7404 47.6483 13.1441 47.6483ZM14.2402 44.3212C13.6597 44.3212 13.2221 44.177 12.9277 43.8884C12.6331 43.5999 12.4859 43.1483 12.4859 42.5335V26.2413C12.4859 25.642 12.6331 25.1989 12.9277 24.9121C13.2221 24.6253 13.6597 24.4819 14.2402 24.4819H35.7598C36.3592 24.4819 36.7984 24.6253 37.0776 24.9121C37.3567 25.1989 37.4962 25.642 37.4962 26.2413V42.5335C37.4962 43.1483 37.3567 43.5999 37.0776 43.8884C36.7984 44.177 36.3592 44.3212 35.7598 44.3212H14.2402ZM8.75582 9.38963H12.2087V5.96949C12.2087 5.06213 12.4406 4.37863 12.9045 3.91898C13.3685 3.45933 14.0635 3.2295 14.9897 3.2295H35.0155C35.9382 3.2295 36.6333 3.45933 37.1007 3.91898C37.568 4.37863 37.8017 5.06213 37.8017 5.96949V9.34343H41.2212V6.22876C41.2212 4.0789 40.6927 2.50331 39.6357 1.50199C38.5788 0.500662 37.0233 0 34.9693 0H15.0359C13.0863 0 11.5522 0.500662 10.4336 1.50199C9.31509 2.50331 8.75582 4.0789 8.75582 6.22876V9.38963ZM17.3439 31.9003H32.7178C33.1063 31.9003 33.4302 31.7668 33.6895 31.4998C33.9488 31.2328 34.0784 30.9068 34.0784 30.5217C34.0784 30.1366 33.9488 29.8183 33.6895 29.5667C33.4302 29.3151 33.1063 29.1893 32.7178 29.1893H17.3439C16.9366 29.1893 16.6033 29.3151 16.344 29.5667C16.0847 29.8183 15.955 30.1366 15.955 30.5217C15.955 30.9068 16.0847 31.2328 16.344 31.4998C16.6033 31.7668 16.9366 31.9003 17.3439 31.9003ZM17.3439 39.6138H32.7178C33.1063 39.6138 33.4302 39.488 33.6895 39.2364C33.9488 38.9848 34.0784 38.6665 34.0784 38.2814C34.0784 37.8963 33.9488 37.5694 33.6895 37.3007C33.4302 37.032 33.1063 36.8976 32.7178 36.8976H17.3439C16.9366 36.8976 16.6033 37.032 16.344 37.3007C16.0847 37.5694 15.955 37.8963 15.955 38.2814C15.955 38.6665 16.0847 38.9848 16.344 39.2364C16.6033 39.488 16.9366 39.6138 17.3439 39.6138ZM35.7187 15.9886C35.7187 16.7657 35.9913 17.4196 36.5365 17.9502C37.0817 18.4808 37.7352 18.7419 38.4969 18.7334C39.2449 18.7368 39.8916 18.4727 40.4369 17.9413C40.9821 17.4097 41.2547 16.7588 41.2547 15.9886C41.2547 15.2559 40.9821 14.6153 40.4369 14.0667C39.8916 13.5181 39.2449 13.2438 38.4969 13.2438C37.7352 13.2438 37.0817 13.5181 36.5365 14.0667C35.9913 14.6153 35.7187 15.2559 35.7187 15.9886Z" fill="white"/>
</svg>
