<svg width="91" height="91" viewBox="0 0 91 91" fill="none" xmlns="http://www.w3.org/2000/svg">
<path d="M16.2307 90.7679H75.4488C80.5612 90.7679 84.3927 89.4973 86.9433 86.9561C89.4939 84.415 90.7693 80.6297 90.7693 75.6003V16.0142C90.7693 10.9848 89.4939 7.20141 86.9433 4.66401C84.3927 2.12661 80.5612 0.85791 75.4488 0.85791H16.2307C11.1522 0.85791 7.32916 2.12471 4.76156 4.65831C2.19396 7.19191 0.910156 10.9772 0.910156 16.0142V75.6003C0.910156 80.6448 2.19396 84.4339 4.76156 86.9675C7.32916 89.5011 11.1522 90.7679 16.2307 90.7679ZM16.3553 82.8682C13.9156 82.8682 12.0396 82.2291 10.7274 80.9507C9.41502 79.6724 8.75886 77.7625 8.75886 75.2209V16.4049C8.75886 13.8974 9.41502 11.9959 10.7274 10.7006C12.0396 9.40527 13.9156 8.75761 16.3553 8.75761H75.3242C77.7486 8.75761 79.6208 9.40527 80.9407 10.7006C82.2605 11.9959 82.9205 13.8974 82.9205 16.4049V75.2209C82.9205 77.7625 82.2605 79.6724 80.9407 80.9507C79.6208 82.2291 77.7486 82.8682 75.3242 82.8682H16.3553ZM76.1951 45.7789C76.1951 44.7936 75.7269 43.8328 74.7907 42.8965L60.6983 28.8154C60.3963 28.487 60.0282 28.2284 59.5941 28.0396C59.1599 27.8509 58.6823 27.7565 58.1613 27.7565C57.1759 27.7565 56.3482 28.1019 55.6782 28.7928C55.008 29.4837 54.673 30.3387 54.673 31.358C54.673 32.4037 55.026 33.2664 55.732 33.946L59.4541 37.5548L65.3506 42.4944L55.0432 42.1546H36.6872L26.3289 42.4944L32.2253 37.5548L35.9361 33.946C36.6496 33.2664 37.0064 32.4037 37.0064 31.358C37.0064 30.3387 36.6713 29.4837 36.0013 28.7928C35.3311 28.1019 34.5034 27.7565 33.5181 27.7565C32.9971 27.7565 32.5195 27.8509 32.0854 28.0396C31.6512 28.2284 31.2831 28.487 30.9811 28.8154L16.8887 42.8965C15.9524 43.8328 15.4843 44.7936 15.4843 45.7789C15.4843 46.6963 15.9524 47.6401 16.8887 48.6103L30.9811 62.7423C31.2831 63.0708 31.6512 63.3209 32.0854 63.4926C32.5195 63.6644 32.9971 63.7503 33.5181 63.7503C34.5034 63.7503 35.3311 63.4134 36.0013 62.7395C36.6713 62.0656 37.0064 61.219 37.0064 60.1997C37.0064 59.2219 36.6496 58.3592 35.9361 57.6117L32.2253 53.9519L26.3912 49.0633L36.6872 49.4031H55.0432L65.2996 49.0633L59.4541 53.9519L55.732 57.6117C55.026 58.3592 54.673 59.2219 54.673 60.1997C54.673 61.219 55.008 62.0656 55.6782 62.7395C56.3482 63.4134 57.1759 63.7503 58.1613 63.7503C58.6823 63.7503 59.1599 63.6644 59.5941 63.4926C60.0282 63.3209 60.3963 63.0708 60.6983 62.7423L74.7907 48.6103C75.7269 47.6401 76.1951 46.6963 76.1951 45.7789Z" fill="black"/>
</svg>
