<svg width="87" height="106" viewBox="0 0 87 106" fill="none" xmlns="http://www.w3.org/2000/svg">
<path d="M0.712646 62.258C0.712646 68.2801 1.82359 73.8973 4.04549 79.1095C6.26735 84.3216 9.35269 88.9039 13.3015 92.8562C17.2503 96.8086 21.8308 99.9043 27.0429 102.143C32.2551 104.382 37.855 105.502 43.8425 105.502C49.8302 105.502 55.4302 104.382 60.6423 102.143C65.8545 99.9043 70.435 96.8086 74.3838 92.8562C78.3326 88.9039 81.4179 84.3216 83.6398 79.1095C85.8617 73.8973 86.9726 68.2801 86.9726 62.258C86.9726 61.0906 86.5909 60.1271 85.8277 59.3674C85.0645 58.6077 84.0854 58.2278 82.8906 58.2278C81.7576 58.2278 80.8458 58.6077 80.1551 59.3674C79.4644 60.1271 79.1191 61.0906 79.1191 62.258C79.1191 67.1889 78.2085 71.789 76.3873 76.0584C74.566 80.3277 72.0436 84.0742 68.82 87.2978C65.5964 90.5214 61.8517 93.0438 57.5858 94.865C53.3199 96.6863 48.7388 97.5969 43.8425 97.5969C38.9464 97.5969 34.3636 96.6863 30.0941 94.865C25.8247 93.0438 22.0782 90.5214 18.8547 87.2978C15.6312 84.0742 13.1105 80.3277 11.2927 76.0584C9.47495 71.789 8.56609 67.1889 8.56609 62.258C8.56609 57.3688 9.47495 52.793 11.2927 48.5307C13.1105 44.2684 15.6312 40.5272 18.8547 37.3071C22.0782 34.087 25.8247 31.5681 30.0941 29.7504C34.3636 27.9327 38.9464 27.0238 43.8425 27.0238C45.6946 27.0238 47.4775 27.0986 49.1912 27.2482C50.9049 27.3977 52.4795 27.646 53.9148 27.993L39.3546 42.4612C38.947 42.8618 38.6517 43.2918 38.4686 43.7512C38.2855 44.2107 38.1939 44.6995 38.1939 45.2178C38.1939 46.3365 38.5669 47.2689 39.3129 48.0149C40.059 48.7608 40.9812 49.1338 42.0795 49.1338C43.2744 49.1338 44.1999 48.7677 44.8561 48.0355L65.0181 27.8197C65.8207 26.9756 66.222 25.9906 66.222 24.8647C66.222 23.7592 65.8207 22.788 65.0181 21.951L44.8667 1.52809C44.176 0.733891 43.2261 0.336792 42.0172 0.336792C40.9533 0.336792 40.0501 0.725289 39.3076 1.50229C38.5651 2.27922 38.1939 3.22709 38.1939 4.34589C38.1939 4.87116 38.2855 5.37036 38.4686 5.84349C38.6517 6.31662 38.9298 6.75699 39.303 7.16459L52.2346 20.015C50.9865 19.758 49.6526 19.5547 48.2328 19.4052C46.8131 19.2557 45.3496 19.181 43.8425 19.181C37.855 19.181 32.2551 20.2902 27.0429 22.5085C21.8308 24.7268 17.2503 27.8086 13.3015 31.7539C9.35269 35.6992 6.26735 40.2744 4.04549 45.4795C1.82359 50.6846 0.712646 56.2774 0.712646 62.258Z" fill="black"/>
</svg>
